<svg width="41" height="17" viewBox="0 0 41 17" fill="none" xmlns="http://www.w3.org/2000/svg">
<path fill-rule="evenodd" clip-rule="evenodd" d="M18.91 13.2054V8.25102H21.467C22.5148 8.25102 23.3992 7.89993 24.1201 7.20749L24.2932 7.03194C25.6101 5.59831 25.5236 3.36496 24.1201 2.0386C23.4184 1.33641 22.4571 0.956057 21.467 0.975563H17.3623V13.2054H18.91ZM18.9101 6.74902V2.47737H21.506C22.0637 2.47737 22.5924 2.69193 22.9866 3.08203C23.8231 3.90125 23.8423 5.26662 23.0347 6.1151C22.6405 6.53446 22.0829 6.76853 21.506 6.74902H18.9101ZM31.5125 5.49099C30.8492 4.87657 29.9456 4.56449 28.8016 4.56449C27.3309 4.56449 26.2254 5.11064 25.4948 6.19318L26.8598 7.06116C27.3597 6.31996 28.0422 5.94936 28.9074 5.94936C29.4553 5.94936 29.984 6.15417 30.3974 6.52477C30.8011 6.87586 31.0318 7.383 31.0318 7.91939V8.28024C30.4358 7.94865 29.686 7.7731 28.7632 7.7731C27.6865 7.7731 26.8214 8.02667 26.1773 8.54356C25.5333 9.06045 25.2064 9.74313 25.2064 10.6111C25.1872 11.4011 25.5237 12.152 26.1197 12.6592C26.7253 13.2053 27.4943 13.4784 28.3979 13.4784C29.4649 13.4784 30.3109 13.0005 30.9549 12.0448H31.0222V13.2053H32.5026V8.04618C32.5026 6.96364 32.1758 6.1054 31.5125 5.49099ZM27.3119 11.6644C26.9946 11.4304 26.8023 11.05 26.8023 10.6404C26.8023 10.182 27.0139 9.80168 27.4273 9.49935C27.8503 9.19702 28.3791 9.04097 29.004 9.04097C29.8693 9.03122 30.5423 9.22627 31.0231 9.61638C31.0231 10.2796 30.7635 10.855 30.2539 11.3426C29.7924 11.8107 29.1675 12.074 28.5137 12.074C28.0811 12.0838 27.658 11.9375 27.3119 11.6644ZM35.8287 16.8821L41.0004 4.83756H39.3181L36.9245 10.8452H36.8957L34.4444 4.83756H32.7622L36.1555 12.6689L34.2329 16.8821H35.8287Z" fill="#3C4043"/>
<path d="M13.5668 7.1785C13.5668 6.70063 13.5284 6.22275 13.4515 5.75462H6.92434V8.4561H10.6637C10.5099 9.32408 10.0101 10.1043 9.27949 10.5919V12.3474H11.5097C12.817 11.1283 13.5668 9.32408 13.5668 7.1785Z" fill="#4285F4"/>
<path d="M6.92495 14.0441C8.78984 14.0441 10.3664 13.4199 11.5103 12.3471L9.2801 10.5917C8.65526 11.0208 7.85739 11.2646 6.92495 11.2646C5.11773 11.2646 3.58928 10.026 3.04135 8.36806H0.743872V10.1821C1.91664 12.5519 4.31025 14.0441 6.92495 14.0441Z" fill="#34A853"/>
<path d="M3.04056 8.36815C2.75212 7.50017 2.75212 6.55416 3.04056 5.67643V3.87219H0.742713C-0.247571 5.85197 -0.247571 8.1926 0.742713 10.1724L3.04056 8.36815Z" fill="#FBBC04"/>
<path d="M6.92495 2.77992C7.91507 2.76042 8.86675 3.14077 9.5781 3.83321L11.5583 1.82417C10.2991 0.634345 8.64565 -0.0190808 6.92495 0.000424444C4.31025 0.000424444 1.91664 1.50233 0.743872 3.87222L3.04135 5.68621C3.58928 4.01851 5.11773 2.77992 6.92495 2.77992Z" fill="#EA4335"/>
</svg>
