<svg width="85" height="68" viewBox="0 0 85 68" fill="none" xmlns="http://www.w3.org/2000/svg">
<path d="M85 30.345V62.6451C85.0013 63.2834 84.8766 63.9155 84.6329 64.5055C84.3893 65.0954 84.0315 65.6313 83.5802 66.0826C83.1289 66.5339 82.5929 66.8918 82.003 67.1355C81.413 67.3791 80.7808 67.5039 80.1425 67.5026H4.85751C4.21925 67.5039 3.587 67.3791 2.99707 67.1355C2.40713 66.8918 1.87112 66.5339 1.4198 66.0826C0.968475 65.6313 0.610725 65.0954 0.36708 64.5055C0.123434 63.9155 -0.00130772 63.2834 1.0337e-05 62.6451V30.345M12.5 0H17.5C18.885 0 20 1.115 20 2.5V5H10V2.5C10 1.115 11.115 0 12.5 0ZM67.5 0H72.5C73.885 0 75 1.115 75 2.5V5H65V2.5C65 1.115 66.115 0 67.5 0Z" fill="#B2CDF8"/>
</svg>
