<svg width="18" height="22" viewBox="0 0 18 22" fill="none" xmlns="http://www.w3.org/2000/svg">
<path fill-rule="evenodd" clip-rule="evenodd" d="M5.11427 21.211L5.48238 18.7942L4.66235 18.7745H0.74658L3.46791 0.940142C3.47638 0.886137 3.50379 0.836005 3.54382 0.800341C3.58404 0.764678 3.6353 0.745114 3.68893 0.745114H10.2915C12.4837 0.745114 13.9963 1.21648 14.786 2.14699C15.1563 2.58351 15.3921 3.0398 15.5063 3.54173C15.6259 4.06853 15.6279 4.69783 15.5112 5.46551L15.5027 5.52135V6.0133L15.873 6.23014C16.1847 6.40112 16.4326 6.59675 16.6226 6.82072C16.9393 7.19406 17.1441 7.66849 17.2307 8.23075C17.3202 8.8091 17.2906 9.49751 17.1441 10.2768C16.9752 11.1731 16.7021 11.9538 16.3332 12.5925C15.994 13.181 15.5619 13.6693 15.0486 14.0475C14.5587 14.407 13.9766 14.6799 13.3185 14.8545C12.6806 15.0261 11.9535 15.1128 11.1559 15.1128H10.6421C10.2748 15.1128 9.91789 15.2495 9.63771 15.4947C9.35675 15.7449 9.17102 16.0869 9.11403 16.4608L9.07519 16.6785L8.42473 20.9383L8.39535 21.0946C8.38747 21.1441 8.37406 21.1688 8.35434 21.1855C8.33679 21.2008 8.31156 21.211 8.28691 21.211H5.11427Z" fill="#28356A"/>
<path fill-rule="evenodd" clip-rule="evenodd" d="M16.222 5.57785C16.2025 5.70807 16.1798 5.84115 16.1546 5.97789C15.2839 10.5986 12.3048 12.1949 8.50025 12.1949H6.56307C6.09775 12.1949 5.70558 12.544 5.63322 13.0184L4.36049 21.3626C4.31337 21.6742 4.54563 21.9549 4.84967 21.9549H8.28553C8.69229 21.9549 9.03793 21.6494 9.10201 21.2347L9.13573 21.0543L9.78264 16.8112L9.82424 16.5785C9.88753 16.1623 10.234 15.8566 10.6407 15.8566H11.1545C14.4833 15.8566 17.0893 14.4599 17.851 10.4175C18.169 8.72886 18.0044 7.31883 17.1625 6.32719C16.9077 6.02823 16.5917 5.78001 16.222 5.57785Z" fill="#298FC2"/>
<path fill-rule="evenodd" clip-rule="evenodd" d="M15.3145 5.20265C15.1814 5.1625 15.0442 5.12623 14.9034 5.09342C14.7619 5.06142 14.6169 5.0331 14.4677 5.00823C13.9454 4.92101 13.373 4.87964 12.76 4.87964H7.58491C7.45734 4.87964 7.33628 4.9094 7.22803 4.9632C6.98926 5.0818 6.812 5.31535 6.76902 5.60126L5.66803 12.8085L5.63648 13.0186C5.70884 12.5442 6.10101 12.1951 6.56633 12.1951H8.50352C12.3081 12.1951 15.2871 10.598 16.1578 5.97807C16.1838 5.84133 16.2057 5.70825 16.2252 5.57803C16.005 5.45718 15.7664 5.35386 15.5095 5.26582C15.446 5.24402 15.3806 5.22303 15.3145 5.20265Z" fill="#22284F"/>
<path fill-rule="evenodd" clip-rule="evenodd" d="M6.76737 5.60138C6.81035 5.31547 6.98761 5.08192 7.22638 4.96413C7.33541 4.91013 7.45569 4.88037 7.58325 4.88037H12.7583C13.3713 4.88037 13.9437 4.92195 14.466 5.00917C14.6153 5.03383 14.7602 5.06236 14.9018 5.09435C15.0425 5.12696 15.1798 5.16344 15.3129 5.20338C15.3789 5.22376 15.4444 5.24495 15.5085 5.26594C15.7654 5.35398 16.0041 5.45812 16.2244 5.57815C16.4835 3.87059 16.2222 2.70797 15.329 1.65519C14.3442 0.496026 12.5669 0 10.2926 0H3.68976C3.22523 0 2.82892 0.349093 2.75715 0.824332L0.00703818 18.8421C-0.0471833 19.1985 0.218798 19.5201 0.566604 19.5201H4.64287L6.76737 5.60138Z" fill="#28356A"/>
</svg>
