<svg width="33" height="32" viewBox="0 0 33 32" fill="none" xmlns="http://www.w3.org/2000/svg">
    <g clip-path="url(#clip0_144_10892)">
        <path d="M0.03125 16.0002C0.03125 8.70105 0.03125 5.05148 2.34705 2.78392C4.66286 0.516357 8.39009 0.516357 15.8446 0.516357C23.299 0.516357 27.0262 0.516357 29.3421 2.78392C31.6579 5.05148 31.6579 8.70105 31.6579 16.0002C31.6579 23.2994 31.6579 26.949 29.3421 29.2166C27.0262 31.4841 23.299 31.4841 15.8446 31.4841C8.39009 31.4841 4.66286 31.4841 2.34705 29.2166C0.03125 26.949 0.03125 23.2994 0.03125 16.0002Z" fill="#243A5A"/>
        <path d="M19.0072 20.6453C19.4438 20.6453 19.8058 20.9953 19.7191 21.4143C19.5658 22.1545 19.1934 22.8405 18.6399 23.3824C17.8986 24.1084 16.893 24.5162 15.8445 24.5162C14.796 24.5162 13.7905 24.1084 13.0491 23.3824C12.4956 22.8405 12.1232 22.1545 11.97 21.4143C11.8832 20.9953 12.2451 20.6453 12.6818 20.6453H19.0072Z" fill="#2DF8BB"/>
        <path d="M20.6694 14.2787C20.2476 14.3894 19.9893 14.8215 20.2032 15.1942C20.4283 15.5866 20.7396 15.929 21.1185 16.1948C21.7132 16.6121 22.4373 16.8146 23.1675 16.7677C23.8976 16.7209 24.5885 16.4276 25.1225 15.9378C25.6566 15.4481 26.0007 14.7921 26.0962 14.0818C26.1917 13.3715 26.0328 12.6507 25.6464 12.0423C25.26 11.4339 24.67 10.9755 23.9772 10.7452C23.2843 10.5148 22.5314 10.5269 21.8466 10.7793C21.4104 10.94 21.0192 11.1919 20.6981 11.5138C20.3929 11.8197 20.5282 12.3025 20.9064 12.5163L21.3075 12.7431C21.9175 13.088 21.7972 13.9828 21.1168 14.1614L20.6694 14.2787Z" fill="#2DF8BB"/>
        <path d="M11.0197 14.2787C11.4415 14.3894 11.6999 14.8215 11.486 15.1942C11.2609 15.5866 10.9495 15.929 10.5708 16.1948C9.97604 16.6121 9.25187 16.8146 8.52177 16.7677C7.79161 16.7209 7.10065 16.4276 6.56661 15.9378C6.03258 15.4481 5.68849 14.7921 5.59298 14.0818C5.49748 13.3715 5.65646 12.6507 6.04285 12.0423C6.42923 11.4339 7.01911 10.9755 7.71198 10.7452C8.40483 10.5148 9.15786 10.5269 9.84266 10.7793C10.2787 10.94 10.67 11.1919 10.9912 11.5138C11.2963 11.8197 11.1609 12.3025 10.7828 12.5163L10.3817 12.7431C9.77166 13.088 9.892 13.9828 10.5724 14.1614L11.0197 14.2787Z" fill="#2DF8BB"/>
    </g>
    <defs>
        <clipPath id="clip0_144_10892">
            <rect width="32" height="32" fill="white" transform="translate(0.03125)"/>
        </clipPath>
    </defs>
</svg>
