<svg width="33" height="32" viewBox="0 0 33 32" fill="none" xmlns="http://www.w3.org/2000/svg">
    <path fill-rule="evenodd" clip-rule="evenodd" d="M16.0313 32C24.8678 32 32.0312 24.8365 32.0312 16C32.0312 7.16344 24.8678 0 16.0313 0C7.19468 0 0.03125 7.16344 0.03125 16C0.03125 24.8365 7.19468 32 16.0313 32ZM21.0227 7.45347C21.2657 6.59044 20.4281 6.0801 19.6633 6.62504L8.98574 14.2316C8.15622 14.8226 8.2867 16 9.18174 16H11.9934V15.9782H17.4733L13.0082 17.5536L11.0398 24.5465C10.7969 25.4096 11.6343 25.9199 12.3993 25.3749L23.0768 17.7684C23.9063 17.1774 23.7757 16 22.8808 16H18.6169L21.0227 7.45347Z" fill="#F15757"/>
</svg>
