<svg width="256" height="215" viewBox="0 0 256 215" fill="none" xmlns="http://www.w3.org/2000/svg">
<g clip-path="url(#clip0_5_13932)">
<path fill-rule="evenodd" clip-rule="evenodd" d="M119 212C89.3507 203.392 80.0659 180.701 58.5 158.5C33.3205 132.58 3.00486 120 3.00486 86.1998C3.00487 57 15.1406 25.4907 46.892 10.5C77.8996 -4.13954 109.693 47.0828 142.5 57C178.242 67.8046 237.484 51.1771 244.92 87.9326C252.132 123.582 248.647 166.856 224 193.5C201.178 218.17 150 221 119 212Z" fill="#3AADA1" fill-opacity="0.08"/>
<g clip-path="url(#clip1_5_13932)">
<path d="M123.436 13C100.961 13 82.6698 31.2589 82.6698 53.7319V73.8596H96.2701V53.7319C96.2701 38.7713 108.476 26.6003 123.436 26.6003C138.397 26.6003 150.568 38.7713 150.568 53.7319V73.8596H164.168V53.7319C164.168 31.2589 145.909 13 123.436 13Z" fill="#3C4959"/>
<path d="M184.739 80.7968V164.097C184.737 165.006 184.556 165.906 184.207 166.745C183.857 167.584 183.345 168.346 182.701 168.987C182.057 169.628 181.292 170.136 180.452 170.481C179.611 170.827 178.71 171.003 177.801 171H72.1957C71.2869 171.003 70.3865 170.826 69.5459 170.481C68.7053 170.135 67.9411 169.627 67.2968 168.986C66.6526 168.345 66.141 167.583 65.7913 166.745C65.4415 165.906 65.2605 165.006 65.2586 164.097V80.7968C65.2566 79.8853 65.4347 78.9823 65.7826 78.1398C66.1306 77.2972 66.6415 76.5317 67.2861 75.8871C67.9306 75.2426 68.6962 74.7317 69.5387 74.3837C70.3812 74.0358 71.2842 73.8577 72.1957 73.8596H177.801C178.713 73.8577 179.616 74.0358 180.459 74.3837C181.301 74.7317 182.067 75.2426 182.711 75.8871C183.356 76.5317 183.867 77.2972 184.215 78.1398C184.563 78.9823 184.741 79.8853 184.739 80.7968Z" fill="#3AADA1"/>
<path d="M125.054 127.671C131.274 127.671 136.316 122.629 136.316 116.408C136.316 110.188 131.274 105.146 125.054 105.146C118.834 105.146 113.791 110.188 113.791 116.408C113.791 122.629 118.834 127.671 125.054 127.671Z" fill="#3C4959"/>
<path d="M133.749 141.252H116.359L120.69 121.615H129.417L133.749 141.252Z" fill="#3C4959"/>
<path d="M156.502 82.8064H163.447V164.305H156.502V82.8064ZM83.3927 82.8064H90.3373V164.305H83.3927V82.8064Z" fill="#455C6C"/>
</g>
<path d="M234.538 51.1573C234.902 49.6142 237.098 49.6142 237.462 51.1573L240.567 64.3157C240.698 64.8696 241.13 65.3021 241.684 65.4328L254.843 68.5378C256.386 68.9019 256.386 71.0981 254.843 71.4622L241.684 74.5672C241.13 74.6979 240.698 75.1304 240.567 75.6843L237.462 88.8427C237.098 90.3858 234.902 90.3858 234.538 88.8427L231.433 75.6843C231.302 75.1304 230.87 74.6979 230.316 74.5672L217.157 71.4622C215.614 71.0981 215.614 68.9019 217.157 68.5378L230.316 65.4328C230.87 65.3021 231.302 64.8696 231.433 64.3157L234.538 51.1573Z" fill="#FFD952"/>
<path d="M34.5378 171.157C34.9019 169.614 37.0981 169.614 37.4622 171.157L40.5672 184.316C40.6979 184.87 41.1304 185.302 41.6843 185.433L54.8427 188.538C56.3858 188.902 56.3858 191.098 54.8427 191.462L41.6843 194.567C41.1304 194.698 40.6979 195.13 40.5672 195.684L37.4622 208.843C37.0981 210.386 34.9019 210.386 34.5378 208.843L31.4328 195.684C31.3021 195.13 30.8696 194.698 30.3157 194.567L17.1573 191.462C15.6142 191.098 15.6142 188.902 17.1573 188.538L30.3157 185.433C30.8696 185.302 31.3021 184.87 31.4328 184.316L34.5378 171.157Z" fill="#FFD952"/>
<path d="M25.2689 30.5787C25.451 29.8071 26.549 29.8071 26.7311 30.5787L28.2836 37.1578C28.3489 37.4348 28.5652 37.6511 28.8422 37.7164L35.4213 39.2689C36.1929 39.451 36.1929 40.549 35.4213 40.7311L28.8422 42.2836C28.5652 42.3489 28.3489 42.5652 28.2836 42.8422L26.7311 49.4213C26.549 50.1929 25.451 50.1929 25.2689 49.4213L23.7164 42.8422C23.6511 42.5652 23.4348 42.3489 23.1578 42.2836L16.5787 40.7311C15.8071 40.549 15.8071 39.451 16.5787 39.2689L23.1578 37.7164C23.4348 37.6511 23.6511 37.4348 23.7164 37.1578L25.2689 30.5787Z" fill="#FFD952"/>
<path d="M196.903 152.868C197.176 151.711 198.824 151.711 199.097 152.868L201.425 162.737C201.523 163.152 201.848 163.477 202.263 163.575L212.132 165.903C213.289 166.176 213.289 167.824 212.132 168.097L202.263 170.425C201.848 170.523 201.523 170.848 201.425 171.263L199.097 181.132C198.824 182.289 197.176 182.289 196.903 181.132L194.575 171.263C194.477 170.848 194.152 170.523 193.737 170.425L183.868 168.097C182.711 167.824 182.711 166.176 183.868 165.903L193.737 163.575C194.152 163.477 194.477 163.152 194.575 162.737L196.903 152.868Z" fill="#FFD952"/>
</g>
<defs>
<clipPath id="clip0_5_13932">
<rect width="256" height="215" fill="white"/>
</clipPath>
<clipPath id="clip1_5_13932">
<rect width="158" height="158" fill="white" transform="translate(46 13)"/>
</clipPath>
</defs>
</svg>
