<svg width="160" height="160" viewBox="0 0 160 160" fill="none" xmlns="http://www.w3.org/2000/svg">
<path d="M137.5 66.25C138.881 66.25 140 65.1307 140 63.75C140 62.3693 138.881 61.25 137.5 61.25C136.119 61.25 135 62.3693 135 63.75C135 65.1307 136.119 66.25 137.5 66.25Z" fill="#B2CDF8"/>
<path d="M10 123.75C11.3807 123.75 12.5 124.869 12.5 126.25C12.5 127.631 11.3807 128.75 10 128.75C8.61929 128.75 7.5 127.631 7.5 126.25C7.5 124.869 8.61929 123.75 10 123.75Z" fill="#B2CDF8"/>
<path d="M107.518 146.25H42.5175C36.9775 146.25 32.5175 141.79 32.5175 136.25V21.25L22.5175 11.25H107.518C113.058 11.25 117.518 15.71 117.518 21.25V136.25" fill="#F4F7F8"/>
<path d="M107.518 146.25H42.5175C36.9775 146.25 32.5175 141.79 32.5175 136.25V106.25L117.518 51.25V136.25" fill="#DAE7FC"/>
<path d="M78.75 33.75H97.7075V38.75H78.75V33.75Z" fill="#B2CDF8"/>
<path d="M107.518 146.25H42.5175C36.9775 146.25 32.5175 141.79 32.5175 136.25V21.25M22.5175 11.25H107.518C113.058 11.25 117.518 15.71 117.518 21.25V68.6575M117.518 126.632V136.25" stroke="#0E7BFF" stroke-width="2" stroke-linecap="round" stroke-linejoin="round"/>
<path d="M12.5 21.25C12.5 19.4947 12.9622 17.7701 13.8399 16.25C14.7176 14.7299 15.9798 13.4677 17.5 12.59C19.0202 11.7123 20.7446 11.25 22.5 11.25C24.2554 11.25 25.9798 11.7123 27.5 12.59C29.0202 13.4677 30.2826 14.7299 31.1603 16.25C32.038 17.7701 32.5 19.4947 32.5 21.25H22.5H12.5Z" fill="#DAE7FC" stroke="#0E7BFF" stroke-width="2" stroke-linecap="round" stroke-linejoin="round"/>
<path d="M130 136.25C130 138.006 129.539 139.731 128.661 141.251C127.783 142.772 126.521 144.035 125 144.912C123.256 145.912 121.252 146.364 119.248 146.207C89.9976 146.207 74.9976 146.25 42.4976 146.25C44.2551 146.25 45.9776 145.797 47.4976 144.925C49.0184 144.047 50.2813 142.784 51.1591 141.263C52.0368 139.741 52.4984 138.016 52.4976 136.26H119.998L130 136.25Z" stroke="#0E7BFF" stroke-width="2" stroke-linecap="round" stroke-linejoin="round"/>
<path d="M97.5 21.25H50V26.25H97.5V21.25Z" fill="#6CA6FD"/>
<path d="M97.5 21.25H50V26.25H97.5V21.25Z" stroke="#0E7BFF" stroke-width="2" stroke-linecap="round" stroke-linejoin="round"/>
<path d="M38.75 68.75H73.75" stroke="#0E7BFF" stroke-width="2"/>
<path d="M40 48.75H47.5V63.75H40V48.75Z" fill="#DAE7FC"/>
<path d="M47.5 48.75V63.75H40L47.5 48.75Z" fill="#B2CDF8"/>
<path d="M40 48.75H47.5V63.75H40V48.75Z" stroke="#0E7BFF" stroke-width="2" stroke-linecap="round" stroke-linejoin="round"/>
<path d="M52.5 41.25H60V63.75H52.5V41.25Z" fill="#DAE7FC"/>
<path d="M60 41.25V63.75H52.5L60 41.25Z" fill="#B2CDF8"/>
<path d="M52.5 41.25H60V63.75H52.5V41.25Z" stroke="#0E7BFF" stroke-width="2" stroke-linecap="round" stroke-linejoin="round"/>
<path d="M65 33.75H72.5V63.75H65V33.75Z" fill="#DAE7FC"/>
<path d="M72.5 33.75V63.75H65L72.5 33.75Z" fill="#B2CDF8"/>
<path d="M65 33.75H72.5V63.75H65V33.75ZM78.75 33.75H97.7075V38.75H78.75V33.75Z" stroke="#0E7BFF" stroke-width="2" stroke-linecap="round" stroke-linejoin="round"/>
<path d="M110 45H80C79.3096 45 78.75 45.5596 78.75 46.25C78.75 46.9404 79.3096 47.5 80 47.5H110C110.69 47.5 111.25 46.9404 111.25 46.25C111.25 45.5596 110.69 45 110 45Z" fill="#0E7BFF"/>
<path d="M110 52.5H80C79.3096 52.5 78.75 53.0596 78.75 53.75C78.75 54.4404 79.3096 55 80 55H110C110.69 55 111.25 54.4404 111.25 53.75C111.25 53.0596 110.69 52.5 110 52.5Z" fill="#0E7BFF"/>
<path d="M110 67.5H80C79.3096 67.5 78.75 68.0596 78.75 68.75C78.75 69.4404 79.3096 70 80 70H110C110.69 70 111.25 69.4404 111.25 68.75C111.25 68.0596 110.69 67.5 110 67.5Z" fill="#0E7BFF"/>
<path d="M110 60H80C79.3096 60 78.75 60.5596 78.75 61.25C78.75 61.9404 79.3096 62.5 80 62.5H110C110.69 62.5 111.25 61.9404 111.25 61.25C111.25 60.5596 110.69 60 110 60Z" fill="#0E7BFF"/>
<path d="M94.1025 75H40C39.3096 75 38.75 75.5596 38.75 76.25C38.75 76.9404 39.3096 77.5 40 77.5H94.1025C94.7928 77.5 95.3525 76.9404 95.3525 76.25C95.3525 75.5596 94.7928 75 94.1025 75Z" fill="#0E7BFF"/>
<path d="M87.5601 82.5H39.94C39.2828 82.5 38.75 83.0596 38.75 83.75C38.75 84.4404 39.2828 85 39.94 85H87.5601C88.2173 85 88.75 84.4404 88.75 83.75C88.75 83.0596 88.2173 82.5 87.5601 82.5Z" fill="#0E7BFF"/>
<path d="M85 90H40C39.3096 90 38.75 90.5596 38.75 91.25C38.75 91.9404 39.3096 92.5 40 92.5H85C85.6904 92.5 86.25 91.9404 86.25 91.25C86.25 90.5596 85.6904 90 85 90Z" fill="#0E7BFF"/>
<path d="M85 97.5H40C39.3096 97.5 38.75 98.0596 38.75 98.75C38.75 99.4404 39.3096 100 40 100H85C85.6904 100 86.25 99.4404 86.25 98.75C86.25 98.0596 85.6904 97.5 85 97.5Z" fill="#0E7BFF"/>
<path d="M86.2175 105H40C39.3096 105 38.75 105.56 38.75 106.25V106.315C38.75 107.005 39.3096 107.565 40 107.565H86.2175C86.9079 107.565 87.4675 107.005 87.4675 106.315V106.25C87.4675 105.56 86.9079 105 86.2175 105Z" fill="#0E7BFF"/>
<path d="M113.75 126.25C129.628 126.25 142.5 113.378 142.5 97.5C142.5 81.6218 129.628 68.75 113.75 68.75C97.8718 68.75 85 81.6218 85 97.5C85 113.378 97.8718 126.25 113.75 126.25Z" fill="#F4F7F8"/>
<path d="M90 112.5H40C39.3096 112.5 38.75 113.06 38.75 113.75C38.75 114.44 39.3096 115 40 115H90C90.6904 115 91.25 114.44 91.25 113.75C91.25 113.06 90.6904 112.5 90 112.5Z" fill="#0E7BFF"/>
<path d="M97.5 120H40C39.3096 120 38.75 120.56 38.75 121.25C38.75 121.94 39.3096 122.5 40 122.5H97.5C98.1904 122.5 98.75 121.94 98.75 121.25C98.75 120.56 98.1904 120 97.5 120Z" fill="#0E7BFF"/>
<path d="M107.5 127.5H40C39.3096 127.5 38.75 128.06 38.75 128.75C38.75 129.44 39.3096 130 40 130H107.5C108.19 130 108.75 129.44 108.75 128.75C108.75 128.06 108.19 127.5 107.5 127.5Z" fill="#0E7BFF"/>
<path d="M142.5 97.5C142.5 113.377 129.628 126.25 113.75 126.25C105.81 126.25 98.6251 123.032 93.4201 117.83L134.08 77.1698C136.754 79.8367 138.874 83.0058 140.319 86.4948C141.764 89.9837 142.505 93.7237 142.5 97.5Z" fill="#DAE7FC"/>
<path d="M113.75 126.25C129.628 126.25 142.5 113.378 142.5 97.5C142.5 81.6218 129.628 68.75 113.75 68.75C97.8718 68.75 85 81.6218 85 97.5C85 113.378 97.8718 126.25 113.75 126.25Z" stroke="#0E7BFF" stroke-width="2" stroke-linecap="round" stroke-linejoin="round"/>
<path d="M113.752 118.76C125.488 118.76 135.002 109.246 135.002 97.5095C135.002 85.7729 125.488 76.2585 113.752 76.2585C102.015 76.2585 92.5006 85.7729 92.5006 97.5095C92.5006 109.246 102.015 118.76 113.752 118.76Z" fill="#B2CDF8"/>
<path d="M119.25 118.035C113.807 119.493 108.008 118.73 103.127 115.914L113.752 97.5095L119.25 118.035Z" fill="#6CA6FD"/>
<path d="M113.752 118.76C125.488 118.76 135.002 109.246 135.002 97.5095C135.002 85.7729 125.488 76.2585 113.752 76.2585C102.015 76.2585 92.5006 85.7729 92.5006 97.5095C92.5006 109.246 102.015 118.76 113.752 118.76Z" stroke="#0E7BFF" stroke-width="2" stroke-linecap="round" stroke-linejoin="round"/>
<path d="M128.778 112.536C125.47 115.844 121.164 117.968 116.526 118.578C111.888 119.189 107.178 118.252 103.127 115.914L113.752 97.5095L128.778 112.536Z" stroke="#0E7BFF" stroke-width="2" stroke-linecap="round" stroke-linejoin="round"/>
<path d="M113.752 76.261C119.387 76.261 124.792 78.4995 128.777 82.4844C132.763 86.4692 135.002 91.8738 135.002 97.5095H113.752V76.261Z" fill="#DAE7FC"/>
<path d="M135.002 97.5095C135.002 91.8738 132.763 86.4692 128.777 82.4844C124.792 78.4995 119.387 76.261 113.752 76.261V97.5095M135.002 97.5095H113.752M135.002 97.5095C135.002 103.146 132.763 108.551 128.778 112.536L113.752 97.5095" stroke="#0E7BFF" stroke-width="2" stroke-linecap="round" stroke-linejoin="round"/>
<path d="M128.778 112.536C126.14 115.174 122.854 117.072 119.25 118.037L113.752 97.5095L128.778 112.536Z" fill="#DAE7FC" stroke="#0E7BFF" stroke-width="2" stroke-linecap="round" stroke-linejoin="round"/>
<path d="M135.002 97.5095C135.002 103.146 132.763 108.551 128.778 112.536L113.752 97.5095H135.002Z" fill="#F4F7F8" stroke="#0E7BFF" stroke-width="2" stroke-linecap="round" stroke-linejoin="round"/>
<path d="M137.5 66.25C138.881 66.25 140 65.1307 140 63.75C140 62.3693 138.881 61.25 137.5 61.25C136.119 61.25 135 62.3693 135 63.75C135 65.1307 136.119 66.25 137.5 66.25Z" stroke="#0E7BFF" stroke-width="2" stroke-linecap="round" stroke-linejoin="round"/>
<path d="M124.28 45.5297L122.513 43.7625M127.84 45.5297L129.608 43.7625M127.84 49.0899L129.608 50.8572M122.538 50.8325L124.305 49.0649M136.452 133.737L139.987 130.202M136.452 130.202L139.987 133.737M147.5 113.732H152.5M150 111.232V116.232" stroke="#0E7BFF" stroke-width="2" stroke-linecap="round" stroke-linejoin="round"/>
<path d="M10 123.75C11.3807 123.75 12.5 124.869 12.5 126.25C12.5 127.631 11.3807 128.75 10 128.75C8.61929 128.75 7.5 127.631 7.5 126.25C7.5 124.869 8.61929 123.75 10 123.75Z" stroke="#0E7BFF" stroke-width="2" stroke-linecap="round" stroke-linejoin="round"/>
<path d="M19.2801 146.967L17.5125 148.737M22.8401 146.97L24.6075 148.737M22.8401 143.41L24.6075 141.64M17.5375 141.665L19.3051 143.435" stroke="#0E7BFF" stroke-width="2" stroke-linecap="round" stroke-linejoin="round"/>
<path d="M25 132.5C25.6904 132.5 26.25 131.94 26.25 131.25C26.25 130.56 25.6904 130 25 130C24.3096 130 23.75 130.56 23.75 131.25C23.75 131.94 24.3096 132.5 25 132.5Z" fill="#0E7BFF"/>
<path d="M147.5 72.5C148.19 72.5 148.75 71.9404 148.75 71.25C148.75 70.5596 148.19 70 147.5 70C146.81 70 146.25 70.5596 146.25 71.25C146.25 71.9404 146.81 72.5 147.5 72.5Z" fill="#0E7BFF"/>
<path d="M145 55C145.69 55 146.25 54.4404 146.25 53.75C146.25 53.0596 145.69 52.5 145 52.5C144.31 52.5 143.75 53.0596 143.75 53.75C143.75 54.4404 144.31 55 145 55Z" fill="#0E7BFF"/>
<path d="M130 136.25C130 138.006 129.539 139.731 128.661 141.251C127.783 142.772 126.521 144.035 125 144.912C123.256 145.912 121.252 146.364 119.248 146.207C89.9976 146.207 74.9976 146.25 42.4976 146.25C44.2551 146.25 45.9776 145.797 47.4976 144.925C49.0184 144.047 50.2813 142.784 51.1591 141.263C52.0368 139.741 52.4984 138.016 52.4976 136.26H119.998L130 136.25Z" fill="#B2CDF8" stroke="#0E7BFF" stroke-width="2" stroke-linecap="round" stroke-linejoin="round"/>
</svg>
