<svg width="33" height="32" viewBox="0 0 33 32" fill="none" xmlns="http://www.w3.org/2000/svg">
    <g clip-path="url(#clip0_144_10884)">
        <path d="M0.03125 28.4263C5.25289 28.4263 9.48581 24.1933 9.48581 18.9717C9.48581 13.75 5.25289 9.51709 0.03125 9.51709V16.1353C1.59773 16.1353 2.8676 17.4052 2.8676 18.9717C2.8676 20.5381 1.59773 21.808 0.03125 21.808V28.4263Z" fill="#726BEA"/>
        <path d="M31.5465 12.6686C29.9308 12.1568 28.2103 11.8806 26.4252 11.8806C17.0698 11.8806 9.48584 19.4647 9.48584 28.8201C9.48584 29.7591 9.56225 30.6803 9.70916 31.5777H20.2342C19.8585 30.7353 19.6496 29.8021 19.6496 28.8201C19.6496 25.0779 22.6831 22.0443 26.4252 22.0443C28.4705 22.0443 30.3041 22.9505 31.5465 24.3833V12.6686Z" fill="#A5B4FC"/>
        <path d="M1.69336 0.0625C2.47721 7.15335 8.48889 12.6686 15.7887 12.6686C23.0884 12.6686 29.1001 7.15335 29.8839 0.0625H19.7418C19.1157 1.63213 17.5817 2.74129 15.7887 2.74129C13.9956 2.74129 12.4617 1.63213 11.8354 0.0625H1.69336Z" fill="#4F46E5"/>
    </g>
    <defs>
        <clipPath id="clip0_144_10884">
            <rect x="0.03125" width="32" height="32" rx="16" fill="white"/>
        </clipPath>
    </defs>
</svg>
