<svg width="33" height="32" viewBox="0 0 33 32" fill="none" xmlns="http://www.w3.org/2000/svg">
    <g clip-path="url(#clip0_144_10901)">
        <path d="M21.9801 26.1552L1.74227 11.8074C-0.308589 10.3535 0.388567 7.32619 2.94593 6.6143L24.4551 0.614301C24.9108 0.445327 25.399 0.390475 25.8794 0.454301C26.3598 0.518127 26.8185 0.698788 27.2174 0.981292C27.6161 1.2638 27.9437 1.63999 28.1727 2.07866C28.4017 2.51733 28.5257 3.00581 28.5343 3.50358L27.2595 23.8503C27.1084 26.2653 24.031 27.6091 21.9801 26.1552Z" fill="#E9327C"/>
        <path d="M15.5611 29.6971L3.63836 5.73307C3.36582 5.18485 3.24589 4.56991 3.29179 3.95608C3.33769 3.34225 3.54765 2.75336 3.8985 2.25439C4.24935 1.75541 4.72747 1.3657 5.28013 1.12825C5.83279 0.890803 6.43852 0.814838 7.03051 0.908739L29.1263 4.41365C29.635 4.49436 30.1178 4.69801 30.5351 5.00787C30.9522 5.31774 31.2919 5.72495 31.5262 6.19603C31.7604 6.66712 31.8826 7.18861 31.8825 7.71765C31.8824 8.24669 31.7601 8.76816 31.5258 9.23916L21.3471 29.6982C21.0737 30.2449 20.659 30.7036 20.1486 31.0237C19.6381 31.3439 19.0517 31.5132 18.4537 31.5131C17.8558 31.513 17.2694 31.3435 16.759 31.0231C16.2487 30.7026 15.8342 30.2439 15.5611 29.6971Z" fill="#1DACE3"/>
        <path d="M28.48 4.31048L17.4654 2.56323L3.94189 6.33714L9.33978 17.1905L21.98 26.1551C22.2588 26.3507 22.5656 26.5005 22.8892 26.5992L27.6903 16.9493L28.48 4.31048Z" fill="#001A49"/>
    </g>
    <defs>
        <clipPath id="clip0_144_10901">
            <rect width="32" height="32" fill="white" transform="translate(0.03125)"/>
        </clipPath>
    </defs>
</svg>
