<svg width="33" height="26" viewBox="0 0 33 26" fill="none" xmlns="http://www.w3.org/2000/svg">
    <g clip-path="url(#clip0_144_10875)">
        <path d="M31.7609 12.9649C31.7609 9.59875 30.4236 6.37041 28.0434 3.99016C25.6631 1.60992 22.4348 0.272706 19.0687 0.272705C15.7025 0.272705 12.4742 1.60992 10.0939 3.99016C7.71368 6.37041 6.37646 9.59875 6.37646 12.9649H10.3428C11.6572 12.9649 12.6822 11.8635 13.1636 10.6405C13.4797 9.8375 13.9593 9.09958 14.5813 8.47751C15.7714 7.2874 17.3856 6.6188 19.0687 6.6188C20.7517 6.6188 22.3659 7.2874 23.5561 8.47751C24.7462 9.66764 25.4147 11.2818 25.4147 12.9649H31.7609Z" fill="url(#paint0_linear_144_10875)"/>
        <path d="M24.4496 17.8219C25.0875 16.282 25.4158 14.6316 25.4158 12.9648H31.7612C31.7612 19.9745 26.0787 25.657 19.069 25.657C17.9713 25.657 16.906 25.5176 15.8901 25.2557C16.4649 25.1076 17.0299 24.919 17.5807 24.6909C19.1206 24.053 20.5197 23.1182 21.6983 21.9396C22.8769 20.761 23.8119 19.3618 24.4496 17.8219Z" fill="#FBCF8E"/>
        <path d="M0.03125 12.9648C0.0312498 14.6316 0.359543 16.2821 0.997384 17.822C1.63523 19.3619 2.57013 20.7611 3.74871 21.9396C4.92728 23.1182 6.32646 24.0531 7.86635 24.6909C9.40622 25.3288 11.0567 25.6571 12.7235 25.6571C14.3902 25.6571 16.0406 25.3288 17.5805 24.6909C19.1204 24.0531 20.5196 23.1182 21.6982 21.9396C22.8768 20.7611 23.8116 19.3619 24.4495 17.822C25.0873 16.2821 25.4157 14.6316 25.4157 12.9648H21.4493C20.135 12.9648 19.1099 14.0663 18.6285 15.2892C18.6149 15.3241 18.6008 15.3588 18.5865 15.3935C18.2675 16.1634 17.8001 16.863 17.2108 17.4522C16.6215 18.0415 15.9219 18.509 15.152 18.8279C14.3821 19.1469 13.5569 19.311 12.7235 19.311C11.8901 19.311 11.0648 19.1469 10.2949 18.8279C9.52494 18.509 8.8254 18.0415 8.23606 17.4522C7.64678 16.863 7.17934 16.1634 6.86042 15.3935C6.54149 14.6235 6.37735 13.7982 6.37735 12.9648H0.03125Z" fill="url(#paint1_linear_144_10875)"/>
        <path d="M0.0327148 12.9649C0.0327148 5.95517 5.71519 0.272705 12.7249 0.272705C13.8224 0.272705 14.8873 0.411997 15.9031 0.673878C13.7235 1.23535 11.7129 2.37163 10.0943 3.99017C7.71408 6.37039 6.37688 9.59875 6.37688 12.9649H0.0327148Z" fill="#73E5E2"/>
    </g>
    <defs>
        <linearGradient id="paint0_linear_144_10875" x1="31.7609" y1="6.6188" x2="6.37646" y2="6.6188" gradientUnits="userSpaceOnUse">
            <stop stop-color="#73E5E2"/>
            <stop offset="1" stop-color="#394F87"/>
        </linearGradient>
        <linearGradient id="paint1_linear_144_10875" x1="0.0312508" y1="19.311" x2="25.4157" y2="19.311" gradientUnits="userSpaceOnUse">
            <stop stop-color="#FBDC8E"/>
            <stop offset="1" stop-color="#FB958E"/>
        </linearGradient>
        <clipPath id="clip0_144_10875">
            <rect width="32" height="25.4545" fill="white" transform="translate(0.03125 0.272705)"/>
        </clipPath>
    </defs>
</svg>
