<svg width="33" height="28" viewBox="0 0 33 28" fill="none" xmlns="http://www.w3.org/2000/svg">
    <g clip-path="url(#clip0_144_10869)">
        <path d="M0.961536 12.2981C1.80874 8.89293 3.77083 5.86905 6.53539 3.70806C9.29998 1.54703 12.7081 0.373047 16.217 0.373047C19.726 0.373047 23.1341 1.54703 25.8987 3.70806C28.6633 5.86905 30.6253 8.89293 31.4725 12.2981H30.0945C27.77 12.2638 25.4931 12.9586 23.5835 14.2847C23.4733 14.3645 23.3582 14.4374 23.239 14.5028H23.0783C22.9591 14.4374 22.844 14.3645 22.7338 14.2847C20.8074 12.9892 18.5385 12.2974 16.217 12.2974C13.8956 12.2974 11.6267 12.9892 9.70029 14.2847C9.59005 14.3645 9.47499 14.4374 9.35579 14.5028H9.19503C9.07583 14.4374 8.96077 14.3645 8.85053 14.2847C6.94098 12.9586 4.66408 12.2638 2.33953 12.2981H0.961536ZM27.6142 19.4981C28.3215 18.9472 29.1983 18.659 30.0945 18.6828H31.9434V14.9966H30.0945C28.5158 14.9776 26.9733 15.4689 25.6965 16.3976C24.978 16.9273 24.1088 17.2131 23.2161 17.2131C22.3234 17.2131 21.4542 16.9273 20.7357 16.3976C19.4265 15.4863 17.8696 14.9977 16.2745 14.9977C14.6793 14.9977 13.1224 15.4863 11.8132 16.3976C11.0947 16.9273 10.2255 17.2131 9.33283 17.2131C8.44012 17.2131 7.57095 16.9273 6.85245 16.3976C5.55989 15.457 3.99518 14.965 2.39694 14.9966H0.490723V18.6828H2.33953C3.23581 18.659 4.11254 18.9472 4.81991 19.4981C6.1267 20.4101 7.68188 20.899 9.27541 20.899C10.8689 20.899 12.4241 20.4101 13.7309 19.4981C14.4392 18.9489 15.3153 18.6609 16.2113 18.6828C17.1079 18.657 17.9852 18.9455 18.6917 19.4981C20.0009 20.4095 21.5578 20.898 23.1529 20.898C24.7481 20.898 26.305 20.4095 27.6142 19.4981ZM27.6142 26.0894C28.3215 25.5386 29.1983 25.2504 30.0945 25.2741H31.9434V21.588H30.0945C28.5158 21.569 26.9733 22.0603 25.6965 22.989C24.978 23.5187 24.1088 23.8045 23.2161 23.8045C22.3234 23.8045 21.4542 23.5187 20.7357 22.989C19.4265 22.0777 17.8696 21.5892 16.2745 21.5892C14.6793 21.5892 13.1224 22.0777 11.8132 22.989C11.0947 23.5187 10.2255 23.8045 9.33283 23.8045C8.44012 23.8045 7.57095 23.5187 6.85245 22.989C5.55989 22.0485 3.99518 21.5564 2.39694 21.588H0.490723V25.2741H2.33953C3.23581 25.2504 4.11254 25.5386 4.81991 26.0894C6.1267 27.0014 7.68188 27.4904 9.27541 27.4904C10.8689 27.4904 12.4241 27.0014 13.7309 26.0894C14.4392 25.5403 15.3153 25.2523 16.2113 25.2741C17.1079 25.2484 17.9852 25.5369 18.6917 26.0894C20.0009 27.0009 21.5578 27.4894 23.1529 27.4894C24.7481 27.4894 26.305 27.0009 27.6142 26.0894Z" fill="#394149"/>
    </g>
    <defs>
        <clipPath id="clip0_144_10869">
            <rect x="0.03125" y="0.105225" width="32" height="27.7895" rx="13.8947" fill="white"/>
        </clipPath>
    </defs>
</svg>
