<svg width="161" height="160" viewBox="0 0 161 160" fill="none" xmlns="http://www.w3.org/2000/svg">
<path d="M34.2848 126.28C35.6655 126.28 36.7848 125.161 36.7848 123.78C36.7848 122.399 35.6655 121.28 34.2848 121.28C32.9041 121.28 31.7848 122.399 31.7848 123.78C31.7848 125.161 32.9041 126.28 34.2848 126.28Z" fill="#6CA6FD"/>
<path d="M129.25 96.2649C130.631 96.2649 131.75 95.1456 131.75 93.7649C131.75 92.3842 130.631 91.2649 129.25 91.2649C127.869 91.2649 126.75 92.3842 126.75 93.7649C126.75 95.1456 127.869 96.2649 129.25 96.2649Z" fill="#6CA6FD"/>
<path d="M94.2848 21.2802C95.6655 21.2802 96.7848 20.1609 96.7848 18.7802C96.7848 17.3994 95.6655 16.2802 94.2848 16.2802C92.9041 16.2802 91.7848 17.3994 91.7848 18.7802C91.7848 20.1609 92.9041 21.2802 94.2848 21.2802Z" fill="#6CA6FD"/>
<path d="M69.25 138.745H96.75V143.755H69.25V138.745Z" fill="#B2CDF8"/>
<path d="M104.25 134.217V138.755H61.75V113.755H104.25V128.725V134.217Z" fill="#6CA6FD"/>
<path d="M99.9176 113.735V99.555C105.749 96.4767 110.63 91.8666 114.037 86.2206C117.443 80.5747 119.246 74.1065 119.25 67.5125C119.25 47.4874 103.02 31.2551 83 31.2551C62.98 31.2551 46.75 47.4874 46.75 67.5125C46.7543 74.1065 48.5567 80.5747 51.9632 86.2206C55.3696 91.8666 60.2511 96.4767 66.0824 99.555V113.735" fill="#F4F7F8"/>
<path d="M116.575 53.8477L66.0798 104.343V113.733H99.9199V99.5575C105.751 96.4784 110.632 91.8677 114.038 86.2213C117.444 80.5749 119.246 74.1066 119.25 67.5125C119.25 62.675 118.295 58.0627 116.575 53.8477Z" fill="#DAE7FC"/>
<path d="M99.9176 113.735V99.555C105.749 96.4767 110.63 91.8666 114.037 86.2206C117.443 80.5747 119.246 74.1065 119.25 67.5125C119.25 47.4875 103.02 31.2551 83 31.2551C62.98 31.2551 46.75 47.4875 46.75 67.5125C46.7543 74.1065 48.5567 80.5747 51.9632 86.2206C55.3696 91.8666 60.2511 96.4767 66.0824 99.555V113.735M76.75 80.0149V115.015M89.25 80.0149V115.015" stroke="#0E7BFF" stroke-width="2"/>
<path d="M69.25 138.745H96.75V143.755H69.25V138.745Z" stroke="#0E7BFF" stroke-width="2" stroke-linecap="round" stroke-linejoin="round"/>
<path d="M104.11 118.755H61.8901C60.432 118.755 59.25 119.874 59.25 121.255C59.25 122.636 60.432 123.755 61.8901 123.755H104.11C105.568 123.755 106.75 122.636 106.75 121.255C106.75 119.874 105.568 118.755 104.11 118.755Z" fill="#B2CDF8"/>
<path d="M61.75 128.575V123.808M61.75 118.595V113.755H104.25V118.567M104.25 123.825V128.725M104.25 134.217V138.755H61.75V133.885" stroke="#0E7BFF" stroke-width="2" stroke-linecap="round" stroke-linejoin="round"/>
<path d="M104.11 128.755H61.8901C60.432 128.755 59.25 129.874 59.25 131.255C59.25 132.636 60.432 133.755 61.8901 133.755H104.11C105.568 133.755 106.75 132.636 106.75 131.255C106.75 129.874 105.568 128.755 104.11 128.755Z" fill="#B2CDF8"/>
<path d="M104.11 118.755H61.8901C60.432 118.755 59.25 119.874 59.25 121.255C59.25 122.636 60.432 123.755 61.8901 123.755H104.11C105.568 123.755 106.75 122.636 106.75 121.255C106.75 119.874 105.568 118.755 104.11 118.755Z" stroke="#0E7BFF" stroke-width="2"/>
<path d="M104.11 128.755H61.8901C60.432 128.755 59.25 129.874 59.25 131.255C59.25 132.636 60.432 133.755 61.8901 133.755H104.11C105.568 133.755 106.75 132.636 106.75 131.255C106.75 129.874 105.568 128.755 104.11 128.755Z" stroke="#0E7BFF" stroke-width="2"/>
<path d="M95.5 78.7649H70.5M51.75 67.5149C51.75 59.2269 55.0425 51.2785 60.903 45.418C66.7635 39.5575 74.712 36.2649 83 36.2649" stroke="#0E7BFF" stroke-width="2"/>
<path d="M115.343 92.0945C120.765 100.917 122.563 106.801 120.344 108.455C118.126 110.109 112.07 107.398 103.507 100.917C94.9456 94.4379 84.5755 84.7183 74.6709 73.8898C64.7662 63.0613 56.1359 52.008 50.6728 43.1544C45.2086 34.2993 43.3583 28.3672 45.528 26.6593C47.6976 24.9515 53.7099 27.6073 62.246 34.0444" stroke="#0E7BFF" stroke-width="2"/>
<path d="M44.6799 60.7837C38.2548 63.4191 35.5801 66.7662 37.1624 70.1909C38.7447 73.6155 44.4742 76.8801 53.2657 79.3663C62.0563 81.8527 73.2987 83.3881 84.864 83.6821C96.4293 83.976 107.515 83.0082 116.021 80.9615C124.528 78.9145 129.864 75.9308 131.02 72.5754C132.175 69.22 129.069 65.7257 122.29 62.7548" stroke="#0E7BFF" stroke-width="2"/>
<path d="M34.2848 126.28C35.6655 126.28 36.7848 125.161 36.7848 123.78C36.7848 122.399 35.6655 121.28 34.2848 121.28C32.9041 121.28 31.7848 122.399 31.7848 123.78C31.7848 125.161 32.9041 126.28 34.2848 126.28Z" stroke="#0E7BFF" stroke-width="2" stroke-linecap="round" stroke-linejoin="round"/>
<path d="M129.25 96.2649C130.631 96.2649 131.75 95.1456 131.75 93.7649C131.75 92.3842 130.631 91.2649 129.25 91.2649C127.869 91.2649 126.75 92.3842 126.75 93.7649C126.75 95.1456 127.869 96.2649 129.25 96.2649Z" stroke="#0E7BFF" stroke-width="2" stroke-linecap="round" stroke-linejoin="round"/>
<path d="M94.2848 21.2802C95.6655 21.2802 96.7848 20.1609 96.7848 18.7802C96.7848 17.3994 95.6655 16.2802 94.2848 16.2802C92.9041 16.2802 91.7848 17.3994 91.7848 18.7802C91.7848 20.1609 92.9041 21.2802 94.2848 21.2802Z" stroke="#0E7BFF" stroke-width="2" stroke-linecap="round" stroke-linejoin="round"/>
<path d="M19.2677 98.7649V93.7649M16.7677 96.2649H21.7677M124.268 123.765V118.765M121.768 121.265H126.768M134.268 51.2649V46.2649M131.768 48.7649H136.768M59.2677 18.7649V13.7649M56.7677 16.2649H61.7677M33.2026 34.8126L36.7376 31.2774M33.2026 31.2774L36.7376 34.8126M140.703 79.8126L144.238 76.2774M140.703 76.2774L144.238 79.8126" stroke="#0E7BFF" stroke-width="2" stroke-linecap="round" stroke-linejoin="round"/>
<path d="M76.75 145.005V147.505M89.25 145.005V147.505" stroke="#0E7BFF" stroke-width="2"/>
<path d="M61.0387 99.8517C51.2556 106.541 43.4468 109.718 39.3253 108.685C35.2038 107.652 35.1055 102.494 39.0526 94.3417C42.9997 86.1891 50.6702 75.708 60.3814 65.1968C70.0926 54.6856 81.0516 45.0024 90.8551 38.2716C100.66 31.5395 108.509 28.3098 112.679 29.2908C116.849 30.2717 117.001 35.3831 113.101 43.5041" stroke="#0E7BFF" stroke-width="2"/>
<path d="M61.0387 99.8517C51.2556 106.541 43.4468 109.718 39.3253 108.685C35.2038 107.652 35.1055 102.494 39.0526 94.3417C42.9997 86.1891 50.6702 75.708 60.3814 65.1968C70.0926 54.6856 81.0516 45.0024 90.8551 38.2716C100.66 31.5395 108.509 28.3098 112.679 29.2908C116.849 30.2717 117.001 35.3831 113.101 43.5041" stroke="#0E7BFF" stroke-width="2"/>
</svg>
