<svg width="24" height="24" viewBox="0 0 24 24" fill="none" xmlns="http://www.w3.org/2000/svg">
<path d="M2 3.43268C2 2.64165 2.65752 2 3.46864 2H20.4053C21.2164 2 21.8739 2.64165 21.8739 3.43268V20.5673C21.8739 21.3586 21.2164 22 20.4053 22H3.46864C2.65752 22 2 21.3586 2 20.5673V3.43268Z" fill="#006699"/>
<path fill-rule="evenodd" clip-rule="evenodd" d="M8.02395 18.7421V9.71095H5.02217V18.7421H8.02395ZM6.52305 8.4779C7.56983 8.4779 8.22136 7.78441 8.22136 6.91775C8.20185 6.03158 7.56983 5.35733 6.54291 5.35733C5.51609 5.35733 4.84473 6.03158 4.84473 6.91775C4.84473 7.78441 5.49612 8.4779 6.50348 8.4779H6.52305Z" fill="white"/>
<path fill-rule="evenodd" clip-rule="evenodd" d="M9.68555 18.7421H12.6873V13.6987C12.6873 13.4288 12.7068 13.1591 12.7861 12.9662C13.0031 12.4269 13.497 11.8684 14.3262 11.8684C15.4124 11.8684 15.8469 12.6966 15.8469 13.9106V18.7421H18.8484V13.5638C18.8484 10.7898 17.3675 9.49903 15.3926 9.49903C13.7732 9.49903 13.0623 10.4042 12.6673 11.0207H12.6874V9.71095H9.68563C9.72502 10.5584 9.68555 18.7421 9.68555 18.7421Z" fill="white"/>
</svg>
