<svg width="256" height="235" viewBox="0 0 256 235" fill="none" xmlns="http://www.w3.org/2000/svg">
<g clip-path="url(#clip0_5_14013)">
<path fill-rule="evenodd" clip-rule="evenodd" d="M119 212C89.3507 203.392 80.0659 180.701 58.5 158.5C33.3205 132.58 3.00486 120 3.00486 86.1998C3.00487 57 15.1406 25.4907 46.892 10.5C77.8996 -4.13954 109.693 47.0828 142.5 57C178.242 67.8046 237.484 51.1771 244.92 87.9326C252.132 123.582 248.647 166.856 224 193.5C201.178 218.17 150 221 119 212Z" fill="#2A94F4" fill-opacity="0.08"/>
<g clip-path="url(#clip1_5_14013)">
<path d="M193.379 72.8484V148.194C193.379 152.449 189.932 155.895 185.678 155.895H64.3174C60.0639 155.895 56.6169 152.449 56.6169 148.194V72.8484C56.6169 71.4873 56.968 70.2117 57.5903 69.103L60.5748 66.1175L119.253 7.43943C122.426 4.26693 127.57 4.26693 130.743 7.43943L189.421 66.118L192.406 69.1034C193.048 70.2471 193.383 71.5371 193.379 72.8484Z" fill="#0E538C"/>
<path d="M182.852 31.6563V148.76C182.852 152.701 179.658 155.899 175.713 155.899H74.2826C70.3318 155.899 67.1433 152.701 67.1433 148.76V31.6563C67.1433 27.7153 70.3318 24.5175 74.2826 24.5175H175.712C179.658 24.5175 182.852 27.7153 182.852 31.6563Z" fill="#CCE9FF"/>
<path d="M129.221 64.4407C129.221 66.3249 127.689 67.8581 125.8 67.8581H93.5446C92.6383 67.8579 91.7691 67.4979 91.1283 66.857C90.4874 66.2161 90.1273 65.347 90.1272 64.4407C90.1272 63.4932 90.5079 62.6411 91.1269 62.0225C91.4442 61.7049 91.8212 61.453 92.2362 61.2814C92.6512 61.1099 93.096 61.022 93.545 61.0229H125.8C127.689 61.0233 129.221 62.5508 129.221 64.4407ZM159.868 51.3183C159.868 53.2025 158.335 54.7357 156.446 54.7357H93.5446C92.6383 54.7355 91.7691 54.3755 91.1283 53.7346C90.4874 53.0937 90.1273 52.2246 90.1272 51.3183C90.1272 50.3755 90.5079 49.5196 91.1269 48.9001C91.444 48.5818 91.8209 48.3292 92.2358 48.1568C92.6508 47.9845 93.0957 47.8958 93.545 47.8958H156.446C157.354 47.896 158.224 48.2567 158.866 48.8985C159.507 49.5403 159.868 50.4107 159.868 51.3183ZM129.221 96.7715C129.221 98.6562 127.689 100.189 125.8 100.189H93.5446C92.6382 100.189 91.769 99.8288 91.1281 99.188C90.4872 98.5471 90.1272 97.6779 90.1272 96.7715C90.1272 95.8245 90.5079 94.9719 91.1269 94.3534C91.4443 94.0358 91.8214 93.7841 92.2363 93.6126C92.6513 93.4412 93.096 93.3533 93.545 93.3542H125.8C127.689 93.3546 129.221 94.8821 129.221 96.7715ZM159.868 83.6496C159.868 85.5338 158.335 87.067 156.446 87.067H93.5446C92.6383 87.0668 91.7691 86.7068 91.1283 86.0659C90.4874 85.425 90.1273 84.5559 90.1272 83.6496C90.1272 82.7068 90.5079 81.8509 91.1269 81.2314C91.444 80.9131 91.8209 80.6606 92.2358 80.4883C92.6508 80.316 93.0957 80.2274 93.545 80.2275H156.446C157.354 80.2278 158.224 80.5884 158.866 81.2301C159.507 81.8718 159.868 82.7421 159.868 83.6496ZM129.221 129.103C129.221 130.988 127.689 132.52 125.8 132.52H93.5446C92.6383 132.52 91.7692 132.16 91.1283 131.519C90.4874 130.879 90.1273 130.01 90.1272 129.103C90.1272 128.156 90.5079 127.303 91.1269 126.685C91.4442 126.367 91.8212 126.116 92.2362 125.944C92.6512 125.772 93.096 125.685 93.545 125.685H125.8C127.689 125.686 129.221 127.213 129.221 129.103ZM159.868 115.981C159.868 117.866 158.335 119.398 156.446 119.398H93.5446C92.6382 119.398 91.769 119.038 91.1281 118.397C90.4872 117.756 90.1272 116.887 90.1272 115.981C90.1272 115.038 90.5079 114.182 91.1269 113.563C91.444 113.244 91.8209 112.992 92.2358 112.82C92.6508 112.647 93.0957 112.559 93.545 112.559H156.446C157.354 112.559 158.224 112.92 158.866 113.561C159.507 114.203 159.868 115.073 159.868 115.981Z" fill="#F7F7F7"/>
<path d="M136.21 149.55L130.743 155.017C127.57 158.19 122.426 158.19 119.254 155.017L113.786 149.55H136.21Z" fill="url(#paint0_linear_5_14013)"/>
<path d="M193.379 87.2549V162.601C193.379 166.852 189.932 170.302 185.678 170.302H64.3174C60.0639 170.302 56.6169 166.852 56.6169 162.601V87.2549C56.6169 85.9948 56.9192 84.8062 57.4578 83.7557L119.253 145.551C122.426 148.724 127.57 148.724 130.743 145.551L192.538 83.7557C193.093 84.8384 193.382 86.0381 193.379 87.2549Z" fill="#2A94F4"/>
</g>
<path d="M234.538 51.1573C234.902 49.6142 237.098 49.6142 237.462 51.1573L240.567 64.3157C240.698 64.8696 241.13 65.3021 241.684 65.4328L254.843 68.5378C256.386 68.9019 256.386 71.0981 254.843 71.4622L241.684 74.5672C241.13 74.6979 240.698 75.1304 240.567 75.6843L237.462 88.8427C237.098 90.3858 234.902 90.3858 234.538 88.8427L231.433 75.6843C231.302 75.1304 230.87 74.6979 230.316 74.5672L217.157 71.4622C215.614 71.0981 215.614 68.9019 217.157 68.5378L230.316 65.4328C230.87 65.3021 231.302 64.8696 231.433 64.3157L234.538 51.1573Z" fill="#FFD952"/>
<path d="M34.5378 171.157C34.9019 169.614 37.0981 169.614 37.4622 171.157L40.5672 184.316C40.6979 184.87 41.1304 185.302 41.6843 185.433L54.8427 188.538C56.3858 188.902 56.3858 191.098 54.8427 191.462L41.6843 194.567C41.1304 194.698 40.6979 195.13 40.5672 195.684L37.4622 208.843C37.0981 210.386 34.9019 210.386 34.5378 208.843L31.4328 195.684C31.3021 195.13 30.8696 194.698 30.3157 194.567L17.1573 191.462C15.6142 191.098 15.6142 188.902 17.1573 188.538L30.3157 185.433C30.8696 185.302 31.3021 184.87 31.4328 184.316L34.5378 171.157Z" fill="#FFD952"/>
<path d="M25.2689 30.5787C25.451 29.8071 26.549 29.8071 26.7311 30.5787L28.2836 37.1578C28.3489 37.4348 28.5652 37.6511 28.8422 37.7164L35.4213 39.2689C36.1929 39.451 36.1929 40.549 35.4213 40.7311L28.8422 42.2836C28.5652 42.3489 28.3489 42.5652 28.2836 42.8422L26.7311 49.4213C26.549 50.1929 25.451 50.1929 25.2689 49.4213L23.7164 42.8422C23.6511 42.5652 23.4348 42.3489 23.1578 42.2836L16.5787 40.7311C15.8071 40.549 15.8071 39.451 16.5787 39.2689L23.1578 37.7164C23.4348 37.6511 23.6511 37.4348 23.7164 37.1578L25.2689 30.5787Z" fill="#FFD952"/>
<path d="M196.903 152.868C197.176 151.711 198.824 151.711 199.097 152.868L201.425 162.737C201.523 163.152 201.848 163.477 202.263 163.575L212.132 165.903C213.289 166.176 213.289 167.824 212.132 168.097L202.263 170.425C201.848 170.523 201.523 170.848 201.425 171.263L199.097 181.132C198.824 182.289 197.176 182.289 196.903 181.132L194.575 171.263C194.477 170.848 194.152 170.523 193.737 170.425L183.868 168.097C182.711 167.824 182.711 166.176 183.868 165.903L193.737 163.575C194.152 163.477 194.477 163.152 194.575 162.737L196.903 152.868Z" fill="#FFD952"/>
</g>
<defs>
<linearGradient id="paint0_linear_5_14013" x1="124.998" y1="149.55" x2="124.998" y2="157.396" gradientUnits="userSpaceOnUse">
<stop offset="0.288" stop-color="#E8F0F4"/>
<stop offset="0.921" stop-color="#C2E4F3"/>
<stop offset="1" stop-color="#A6E3FF"/>
</linearGradient>
<clipPath id="clip0_5_14013">
<rect width="256" height="215" fill="white"/>
</clipPath>
<clipPath id="clip1_5_14013">
<rect width="138" height="166" fill="white" transform="translate(56 5)"/>
</clipPath>
</defs>
</svg>
