<svg width="40" height="40" viewBox="0 0 40 40" fill="none" xmlns="http://www.w3.org/2000/svg">
<path d="M18.5378 1.15732C18.9019 -0.385772 21.0981 -0.385774 21.4622 1.15732L24.5672 14.3157C24.6979 14.8696 25.1304 15.3021 25.6843 15.4328L38.8427 18.5378C40.3858 18.9019 40.3858 21.0981 38.8427 21.4622L25.6843 24.5672C25.1304 24.6979 24.6979 25.1304 24.5672 25.6843L21.4622 38.8427C21.0981 40.3858 18.9019 40.3858 18.5378 38.8427L15.4328 25.6843C15.3021 25.1304 14.8696 24.6979 14.3157 24.5672L1.15732 21.4622C-0.385772 21.0981 -0.385774 18.9019 1.15732 18.5378L14.3157 15.4328C14.8696 15.3021 15.3021 14.8696 15.4328 14.3157L18.5378 1.15732Z" fill="#FFD952"/>
</svg>
