<svg width="33" height="32" viewBox="0 0 33 32" fill="none" xmlns="http://www.w3.org/2000/svg">
    <g clip-path="url(#clip0_144_10914)">
        <path d="M24.6156 14.1384C24.1707 14.5741 23.8301 15.1001 23.6179 15.6786C23.4057 16.2572 23.3272 16.8742 23.3878 17.4858L23.3667 17.4652C23.4292 18.1851 23.3294 18.9095 23.0746 19.588C22.8198 20.2664 22.416 20.8825 21.8914 21.3933C21.3668 21.9041 20.734 22.2973 20.0372 22.5453C19.3404 22.7934 18.5964 22.8906 17.8572 22.8298L17.8783 22.8504C16.994 22.7702 16.1058 22.9576 15.3348 23.3869C14.5639 23.8163 13.9477 24.4667 13.5703 25.2496C13.1929 26.0324 13.0726 26.9094 13.2259 27.7613C13.3793 28.6131 13.7987 29.3981 14.427 30.0093C15.0553 30.6205 15.8619 31.0282 16.7368 31.1766C17.6118 31.3252 18.5125 31.2073 19.3161 30.8392C20.1198 30.4709 20.7872 29.8705 21.2275 29.1194C21.6677 28.3683 21.8594 27.5034 21.7763 26.6424L21.7986 26.6629C21.7362 25.9432 21.8358 25.2187 22.0906 24.5402C22.3454 23.8618 22.7493 23.2457 23.2739 22.7348C23.7985 22.2241 24.4313 21.8308 25.128 21.5828C25.8249 21.3347 26.5688 21.2376 27.3082 21.2984L27.2859 21.2778C28.0082 21.341 28.7353 21.2257 29.3998 20.9425C30.0641 20.6593 30.6444 20.2173 31.0867 19.6577C31.5289 19.098 31.8191 18.4386 31.9299 17.7408C32.0408 17.0428 31.969 16.329 31.7211 15.6652C31.4732 15.0016 31.0572 14.4096 30.5118 13.9441C29.9663 13.4786 29.309 13.1547 28.6008 13.0025C27.8926 12.8503 27.1563 12.8745 26.4602 13.073C25.7642 13.2716 25.131 13.638 24.6191 14.1384H24.6156Z" fill="#394149"/>
        <path d="M15.9571 20.1556L15.9348 20.1351C16.5631 20.1967 17.1976 20.1216 17.7926 19.9152C18.3874 19.7088 18.9278 19.3763 19.3746 18.9417C19.8212 18.5071 20.1632 17.9811 20.3755 17.402C20.588 16.8229 20.6656 16.2052 20.6028 15.5933L20.6251 15.6139C20.5626 14.894 20.6624 14.1697 20.9171 13.4912C21.1719 12.8128 21.5758 12.1967 22.1003 11.6858C22.625 11.1751 23.2578 10.7818 23.9545 10.5338C24.6514 10.2856 25.3953 10.1886 26.1346 10.2493L26.1123 10.2288C26.9967 10.3097 27.8852 10.1229 28.6565 9.69403C29.428 9.26516 30.0447 8.61503 30.4227 7.83232C30.8006 7.04962 30.9214 6.17244 30.7686 5.32043C30.6158 4.46842 30.1967 3.68307 29.5685 3.07148C28.9405 2.45991 28.1339 2.05186 27.2588 1.90304C26.3838 1.7542 25.483 1.87182 24.6791 2.23984C23.8752 2.60785 23.2075 3.20836 22.767 3.95946C22.3265 4.71055 22.1347 5.57566 22.2178 6.43678L22.1967 6.41506C22.2593 7.13494 22.1597 7.85944 21.905 8.53798C21.6503 9.21651 21.2465 9.83273 20.7219 10.3436C20.1972 10.8544 19.5644 11.2476 18.8675 11.4956C18.1705 11.7436 17.4265 11.8405 16.6872 11.7796L16.7083 11.8013C16.08 11.7397 15.4453 11.8148 14.8505 12.0212C14.2556 12.2275 13.7152 12.5601 13.2685 12.9947C12.8218 13.4293 12.4799 13.9553 12.2674 14.5344C12.0551 15.1135 11.9775 15.7312 12.0403 16.3431L12.0192 16.3225C12.0814 17.0423 11.9815 17.7666 11.7267 18.445C11.4717 19.1233 11.068 19.7394 10.5434 20.2501C10.0188 20.7609 9.38613 21.154 8.68944 21.4023C7.99276 21.6504 7.24885 21.7476 6.50961 21.6871L6.53074 21.7076C5.64635 21.6267 4.75786 21.8135 3.98646 22.2424C3.21507 22.6713 2.59833 23.3213 2.22037 24.1041C1.8424 24.8868 1.7216 25.764 1.87446 26.616C2.02731 27.468 2.44639 28.2533 3.07449 28.8649C3.70261 29.4765 4.50919 29.8845 5.38423 30.0333C6.25926 30.1821 7.16015 30.0645 7.96401 29.6965C8.76786 29.3285 9.43557 28.7281 9.87603 27.977C10.3165 27.2258 10.5083 26.3608 10.4252 25.4996L10.4475 25.5202C10.3851 24.8003 10.4849 24.076 10.7397 23.3975C10.9944 22.7191 11.3983 22.1029 11.9228 21.5921C12.4475 21.0813 13.0802 20.6881 13.777 20.4401C14.4738 20.192 15.2177 20.0948 15.9571 20.1556Z" fill="#394149"/>
        <path d="M8.09071 17.8619C8.53558 17.4263 8.87618 16.9003 9.08821 16.3217C9.30023 15.7431 9.37845 15.1259 9.31727 14.5145L9.33956 14.5351C9.27712 13.8151 9.37684 13.0904 9.63179 12.4118C9.88674 11.7331 10.2908 11.1169 10.8157 10.606C11.3406 10.0952 11.9736 9.70207 12.6707 9.45413C13.3677 9.20618 14.112 9.10938 14.8515 9.1705L14.8292 9.14992C15.7132 9.23058 16.6014 9.04373 17.3725 8.61488C18.1435 8.18605 18.7598 7.53607 19.1376 6.75362C19.5154 5.97115 19.636 5.09429 19.4832 4.2426C19.3304 3.39091 18.9113 2.60586 18.2835 1.9945C17.6557 1.38314 16.8493 0.975227 15.9746 0.826404C15.1 0.67757 14.1993 0.795078 13.3958 1.16287C12.5921 1.53067 11.9246 2.13086 11.4842 2.8816C11.0437 3.63235 10.8518 4.4971 10.9347 5.35792L10.9136 5.33735C10.976 6.05718 10.8762 6.7816 10.6214 7.46005C10.3666 8.1385 9.96286 8.75462 9.43824 9.26543C8.91363 9.77624 8.28084 10.1694 7.58406 10.4175C6.88728 10.6656 6.14329 10.7627 5.40401 10.7019L5.42513 10.7225C4.70278 10.6594 3.97575 10.775 3.31143 11.0583C2.64711 11.3416 2.06699 11.7836 1.62483 12.3434C1.18267 12.9031 0.892775 13.5625 0.781997 14.2603C0.671231 14.9583 0.74317 15.6721 0.991147 16.3356C1.23912 16.9993 1.65513 17.5912 2.20061 18.0566C2.74608 18.522 3.40338 18.8458 4.1116 18.998C4.8198 19.1502 5.55601 19.1258 6.252 18.9273C6.94799 18.7287 7.58122 18.3623 8.09305 17.8619H8.09071Z" fill="#394149"/>
    </g>
    <defs>
        <clipPath id="clip0_144_10914">
            <rect width="32" height="32" fill="white" transform="translate(0.03125)"/>
        </clipPath>
    </defs>
</svg>
