<svg width="18" height="18" viewBox="0 0 18 18" fill="none" xmlns="http://www.w3.org/2000/svg">
<path fill-rule="evenodd" clip-rule="evenodd" d="M7.89623 1.71223C8.2332 1.52252 8.61337 1.42285 9.00008 1.42285C9.38678 1.42285 9.76695 1.52252 10.1039 1.71223C10.4409 1.90195 10.7233 2.17531 10.9238 2.50594L10.926 2.5095L17.2785 13.1145L17.2846 13.1249C17.481 13.4651 17.585 13.8508 17.5861 14.2437C17.5872 14.6366 17.4854 15.0229 17.2908 15.3642C17.0963 15.7055 16.8158 15.99 16.4771 16.1892C16.1385 16.3884 15.7537 16.4955 15.3608 16.4999L15.3526 16.5L2.63933 16.4999C2.24648 16.4956 1.86161 16.3884 1.52301 16.1892C1.1844 15.99 0.903866 15.7055 0.709314 15.3642C0.514761 15.0229 0.412971 14.6366 0.414071 14.2437C0.415171 13.8508 0.519123 13.4651 0.715584 13.1249L0.721676 13.1145L7.07632 2.50593C7.27687 2.1753 7.55926 1.90195 7.89623 1.71223ZM9.00008 2.92285C8.87118 2.92285 8.74445 2.95607 8.63213 3.01931C8.52031 3.08226 8.42653 3.17285 8.35973 3.28239L2.01209 13.8793C1.94821 13.9916 1.91443 14.1186 1.91407 14.2479C1.9137 14.3789 1.94763 14.5076 2.01248 14.6214C2.07733 14.7352 2.17084 14.83 2.28371 14.8964C2.39559 14.9622 2.52262 14.9979 2.65237 14.9999H15.3478C15.4775 14.9979 15.6046 14.9622 15.7164 14.8964C15.8293 14.83 15.9228 14.7352 15.9877 14.6214C16.0525 14.5076 16.0865 14.3789 16.0861 14.2479C16.0857 14.1186 16.052 13.9917 15.9881 13.8793L9.64133 3.28388L9.64042 3.28239C9.57362 3.17285 9.47984 3.08226 9.36802 3.01931C9.2557 2.95607 9.12898 2.92285 9.00008 2.92285Z" fill="#EC7373"/>
<path fill-rule="evenodd" clip-rule="evenodd" d="M9.00008 5.99991C9.41429 5.99991 9.75008 6.3357 9.75008 6.74991V9.74991C9.75008 10.1641 9.41429 10.4999 9.00008 10.4999C8.58586 10.4999 8.25008 10.1641 8.25008 9.74991V6.74991C8.25008 6.3357 8.58586 5.99991 9.00008 5.99991Z" fill="#EC7373"/>
<path fill-rule="evenodd" clip-rule="evenodd" d="M8.25008 12.7499C8.25008 12.3357 8.58586 11.9999 9.00008 11.9999H9.00758C9.42179 11.9999 9.75758 12.3357 9.75758 12.7499C9.75758 13.1641 9.42179 13.4999 9.00758 13.4999H9.00008C8.58586 13.4999 8.25008 13.1641 8.25008 12.7499Z" fill="#EC7373"/>
</svg>
