<svg width="18" height="18" viewBox="0 0 18 18" fill="none" xmlns="http://www.w3.org/2000/svg">
<path fill-rule="evenodd" clip-rule="evenodd" d="M3 8.25C3 5.3505 5.3505 3 8.25 3C11.1495 3 13.5 5.3505 13.5 8.25C13.5 9.66446 12.9406 10.9483 12.031 11.8923C12.0054 11.912 11.9807 11.9337 11.9572 11.9572C11.9337 11.9807 11.912 12.0054 11.8923 12.031C10.9483 12.9406 9.66446 13.5 8.25 13.5C5.3505 13.5 3 11.1495 3 8.25ZM12.4633 13.5239L11.9572 13.0178C11.6878 12.7485 11.6662 12.3251 11.8923 12.031C11.9394 11.9857 11.9857 11.9394 12.031 11.8923C12.3251 11.6662 12.7485 11.6878 13.0178 11.9572L13.5239 12.4633C13.2107 12.8548 12.8548 13.2107 12.4633 13.5239ZM12.4633 13.5239L15.2197 16.2803C15.5126 16.5732 15.9874 16.5732 16.2803 16.2803C16.5732 15.9874 16.5732 15.5126 16.2803 15.2197L13.5239 12.4633C14.4476 11.3085 15 9.84376 15 8.25C15 4.52208 11.9779 1.5 8.25 1.5C4.52208 1.5 1.5 4.52208 1.5 8.25C1.5 11.9779 4.52208 15 8.25 15C9.84376 15 11.3085 14.4476 12.4633 13.5239Z" fill="#475467"/>
<path d="M11.9572 13.0178L12.4633 13.5239C12.8548 13.2107 13.2107 12.8548 13.5239 12.4633L13.0178 11.9572C12.7485 11.6878 12.3251 11.6662 12.031 11.8923C11.9857 11.9394 11.9394 11.9857 11.8923 12.031C11.6662 12.3251 11.6878 12.7485 11.9572 13.0178Z" fill="#475467"/>
</svg>
