<svg width="21" height="21" viewBox="0 0 21 21" fill="none" xmlns="http://www.w3.org/2000/svg">
<path d="M16.625 7V1.75M14 4.375H19.25M19.25 10.5V15.05C19.25 16.5201 19.25 17.2552 18.9639 17.8167C18.7122 18.3107 18.3107 18.7122 17.8167 18.9639C17.2552 19.25 16.5201 19.25 15.05 19.25H5.95C4.47986 19.25 3.74479 19.25 3.18327 18.9639C2.68935 18.7122 2.28778 18.3107 2.03611 17.8167C1.75 17.2552 1.75 16.5201 1.75 15.05V5.95C1.75 4.47986 1.75 3.74479 2.03611 3.18327C2.28778 2.68935 2.68935 2.28778 3.18327 2.03611C3.74479 1.75 4.47986 1.75 5.95 1.75H10.5M1.87752 17.4355C2.28802 15.9588 3.64245 14.875 5.25 14.875H11.375C12.1881 14.875 12.5947 14.875 12.9328 14.9423C14.3212 15.2184 15.4066 16.3038 15.6827 17.6922C15.75 18.0303 15.75 18.4369 15.75 19.25M12.25 8.3125C12.25 10.2455 10.683 11.8125 8.75 11.8125C6.817 11.8125 5.25 10.2455 5.25 8.3125C5.25 6.3795 6.817 4.8125 8.75 4.8125C10.683 4.8125 12.25 6.3795 12.25 8.3125Z" stroke="#2575F0" stroke-width="1.4" stroke-linecap="round" stroke-linejoin="round"/>
</svg>
