<svg width="172" height="172" viewBox="0 0 172 172" fill="none" xmlns="http://www.w3.org/2000/svg">
<path d="M123.625 66.6162V169.85H48.7109V89.4264L74.7797 115.495L123.625 66.6162Z" fill="url(#paint0_linear_202_7620)"/>
<path d="M123.625 66.6162L84.5219 105.719L74.7797 115.462L65.0039 105.719L48.7109 89.4264L58.4867 79.6506L74.7797 95.9436L113.849 56.874L123.625 66.6162Z" fill="#FCC047"/>
<path d="M33.2578 89.5273H6.04688C4.19922 89.5273 2.6875 88.0156 2.6875 86.168C2.6875 84.3203 4.19922 82.8086 6.04688 82.8086H33.2578C35.1055 82.8086 36.6172 84.3203 36.6172 86.168C36.6172 88.0156 35.1055 89.5273 33.2578 89.5273Z" fill="#224A94"/>
<path d="M166.289 89.5273H139.078C137.23 89.5273 135.719 88.0156 135.719 86.168C135.719 84.3203 137.23 82.8086 139.078 82.8086H166.289C168.137 82.8086 169.648 84.3203 169.648 86.168C169.648 88.0156 168.137 89.5273 166.289 89.5273Z" fill="#224A94"/>
<path d="M86.168 36.6172C84.3203 36.6172 82.8086 35.1055 82.8086 33.2578V6.04688C82.8086 4.19922 84.3203 2.6875 86.168 2.6875C88.0156 2.6875 89.5273 4.19922 89.5273 6.04688V33.2578C89.5273 35.1055 88.0156 36.6172 86.168 36.6172Z" fill="#224A94"/>
<path d="M86.168 169.85C84.3203 169.85 82.8086 168.338 82.8086 166.491V139.078C82.8086 137.23 84.3203 135.719 86.168 135.719C88.0156 135.719 89.5273 137.23 89.5273 139.078V166.491C89.5273 168.338 88.0156 169.85 86.168 169.85Z" fill="#224A94"/>
<path d="M143.009 145.998C142.135 145.998 141.295 145.663 140.623 145.024L121.374 125.775C120.064 124.465 120.064 122.348 121.374 121.038C122.684 119.728 124.801 119.728 126.111 121.038L145.36 140.288C146.67 141.598 146.67 143.714 145.36 145.024C144.722 145.663 143.882 145.998 143.009 145.998Z" fill="#224A94"/>
<path d="M28.0846 144.756C27.2111 144.756 26.3713 144.42 25.6994 143.781C24.3893 142.471 24.3893 140.355 25.6994 139.045L44.9822 119.762C46.2924 118.452 48.4088 118.452 49.7189 119.762C51.0291 121.072 51.0291 123.188 49.7189 124.499L30.4697 143.781C29.7979 144.42 28.958 144.756 28.0846 144.756Z" fill="#224A94"/>
<path d="M122.113 50.6929C121.239 50.6929 120.4 50.3569 119.728 49.7187C118.418 48.4085 118.418 46.2921 119.728 44.9819L138.977 25.7663C140.287 24.4562 142.404 24.4562 143.714 25.7663C145.024 27.0765 145.024 29.1929 143.714 30.503L124.498 49.7187C123.826 50.3569 122.986 50.6929 122.113 50.6929Z" fill="#224A94"/>
<path d="M48.6771 52.1709C47.8037 52.1709 46.9639 51.835 46.292 51.1967L27.0764 31.9811C25.7662 30.6709 25.7662 28.5545 27.0764 27.2443C28.3865 25.9342 30.5029 25.9342 31.8131 27.2443L51.0287 46.46C52.3389 47.7701 52.3389 49.8865 51.0287 51.1967C50.3904 51.835 49.5506 52.1709 48.6771 52.1709Z" fill="#224A94"/>
<path d="M66.1797 40.514C64.8359 40.514 63.5929 39.7078 63.0554 38.3976L57.9828 25.6656C57.3109 23.9523 58.1507 22.0039 59.864 21.2984C61.5773 20.6265 63.5257 21.4664 64.2312 23.1797L69.3039 35.9117C69.9757 37.625 69.1359 39.5734 67.4226 40.2789C67.0195 40.4468 66.5828 40.514 66.1797 40.514ZM36.9195 70.1437C36.5164 70.1437 36.1132 70.0765 35.7437 69.9422L24.389 65.6758C22.6421 65.0375 21.7687 63.089 22.4406 61.3422C23.0789 59.5953 25.0273 58.7218 26.7742 59.3937L38.1289 63.6601C39.8757 64.2984 40.7492 66.2468 40.0773 67.9937C39.5734 69.3039 38.2632 70.1437 36.9195 70.1437ZM25.5648 115.529C24.4226 115.529 23.2804 114.924 22.6757 113.849C21.7351 112.237 22.2726 110.187 23.8851 109.247L35.2398 102.629C36.8523 101.688 38.9015 102.226 39.8421 103.838C40.7828 105.451 40.2453 107.5 38.6328 108.441L27.2781 115.059C26.7406 115.395 26.1359 115.529 25.5648 115.529ZM58.957 149.795C58.5203 149.795 58.1171 149.727 57.6804 149.559C55.9671 148.854 55.1273 146.905 55.8328 145.192L60.8382 132.964C61.5437 131.251 63.4922 130.411 65.2054 131.116C66.9187 131.822 67.7586 133.77 67.0531 135.484L62.0476 147.712C61.5437 149.022 60.2672 149.795 58.957 149.795ZM113.681 149.795C112.371 149.795 111.162 149.022 110.591 147.779L105.283 135.551C104.544 133.837 105.316 131.855 107.03 131.116C108.743 130.377 110.725 131.15 111.464 132.863L116.772 145.091C117.511 146.805 116.738 148.787 115.025 149.526C114.588 149.694 114.118 149.795 113.681 149.795ZM146.301 113.614C145.864 113.614 145.394 113.513 144.957 113.345L134.073 108.642C132.359 107.903 131.587 105.921 132.326 104.241C133.065 102.528 135.047 101.755 136.727 102.495L147.611 107.198C149.324 107.937 150.097 109.919 149.358 111.598C148.82 112.841 147.611 113.614 146.301 113.614ZM134.509 68.0273C133.233 68.0273 131.99 67.2883 131.419 66.0117C130.68 64.2984 131.452 62.3164 133.132 61.5773L144.923 56.3703C146.637 55.6312 148.619 56.4039 149.358 58.0836C150.097 59.7968 149.324 61.7789 147.645 62.5179L135.853 67.725C135.416 67.9265 134.98 68.0273 134.509 68.0273ZM107.466 41.0851C107.164 41.0851 106.828 41.0515 106.526 40.9508C104.745 40.4132 103.737 38.5656 104.241 36.7851L108.172 23.482C108.709 21.7015 110.557 20.6937 112.337 21.1976C114.118 21.7351 115.126 23.5828 114.622 25.3632L110.691 38.6664C110.255 40.1445 108.911 41.0851 107.466 41.0851Z" fill="#35D8BF"/>
<path d="M131.116 3.62793C131.116 3.62793 131.116 14.0084 120.769 14.0084C120.769 14.0084 131.116 14.0084 131.116 24.3889C131.116 24.3889 131.116 14.0084 141.497 14.0084C141.497 14.0084 131.116 14.0084 131.116 3.62793ZM124.532 18.7115C124.532 18.7115 124.532 22.474 120.769 22.474C120.769 22.474 124.532 22.474 124.532 26.2365C124.532 26.2365 124.532 22.474 128.294 22.474C128.294 22.474 124.532 22.474 124.532 18.7115ZM39.0357 118.149C39.0357 118.149 39.0357 123.994 33.1904 123.994C33.1904 123.994 39.0357 123.994 39.0357 129.84C39.0357 129.84 39.0357 123.994 44.8811 123.994C44.9147 123.994 39.0357 123.994 39.0357 118.149Z" fill="#FCC047"/>
<defs>
<linearGradient id="paint0_linear_202_7620" x1="86.168" y1="200.219" x2="86.168" y2="76.6315" gradientUnits="userSpaceOnUse">
<stop stop-color="white" stop-opacity="0"/>
<stop offset="0.144" stop-color="#FAFBFF" stop-opacity="0.086"/>
<stop offset="0.308" stop-color="#ECF0FF" stop-opacity="0.185"/>
<stop offset="0.483" stop-color="#D5DEFF" stop-opacity="0.29"/>
<stop offset="0.665" stop-color="#B5C5FF" stop-opacity="0.399"/>
<stop offset="0.85" stop-color="#8DA4FF" stop-opacity="0.51"/>
<stop offset="1" stop-color="#6686FF" stop-opacity="0.6"/>
</linearGradient>
</defs>
</svg>
