<svg width="40" height="14" viewBox="0 0 40 14" fill="none" xmlns="http://www.w3.org/2000/svg">
<path fill-rule="evenodd" clip-rule="evenodd" d="M10.0001 13.0386H6.53846L3.94265 2.84424C3.81944 2.37529 3.55784 1.96072 3.17303 1.76533C2.21268 1.2743 1.15444 0.883511 0 0.686419V0.293934H5.57642C6.34605 0.293934 6.92327 0.883511 7.01947 1.56824L8.36632 8.9218L11.8263 0.293934H15.1917L10.0001 13.0386ZM17.1158 13.0386H13.8466L16.5386 0.293934H19.8078L17.1158 13.0386ZM24.0374 3.8246C24.1336 3.13818 24.7108 2.74569 25.3842 2.74569C26.4424 2.64715 27.5952 2.84424 28.5572 3.33357L29.1345 0.589577C28.1724 0.197092 27.1142 0 26.1538 0C22.9808 0 20.6719 1.76533 20.6719 4.21539C20.6719 6.07927 22.3074 7.05793 23.4618 7.64751C24.7108 8.23539 25.1918 8.62787 25.0956 9.21575C25.0956 10.0976 24.1336 10.49 23.1732 10.49C22.0188 10.49 20.8643 10.1961 19.8078 9.70508L19.2306 12.4508C20.385 12.9401 21.634 13.1372 22.7884 13.1372C26.3462 13.234 28.5572 11.4704 28.5572 8.82326C28.5572 5.48969 24.0374 5.2943 24.0374 3.8246ZM39.9987 13.0386L37.4029 0.293934H34.6147C34.0375 0.293934 33.4602 0.686419 33.2678 1.2743L28.461 13.0386H31.8265L32.4982 11.1765H36.6333L37.0181 13.0386H39.9987ZM35.0957 3.72607L36.056 8.52934H33.364L35.0957 3.72607Z" fill="#172B85"/>
</svg>
