<svg width="256" height="235" viewBox="0 0 256 235" fill="none" xmlns="http://www.w3.org/2000/svg">
<g clip-path="url(#clip0_5_13967)">
<path fill-rule="evenodd" clip-rule="evenodd" d="M127.74 214.605C96.9074 213.013 68.4579 201.8 46.892 179.6C21.7125 153.679 -8.45634 120.543 3.00488 86.1998C14.1592 52.7761 61.0756 56.9471 92.8269 41.9564C123.834 27.3168 149.127 -8.19502 181.934 1.72224C217.676 12.5268 237.484 51.1771 244.92 87.9326C252.132 123.582 244.375 161.883 219.728 188.527C196.906 213.197 161.215 216.335 127.74 214.605Z" fill="#37E288" fill-opacity="0.1"/>
<path d="M104.6 168.919C103.928 168.919 103.265 168.765 102.662 168.467C102.06 168.169 101.534 167.737 101.126 167.203L56.8936 109.344C56.1918 108.424 55.8835 107.263 56.0365 106.116C56.1895 104.968 56.7911 103.929 57.7096 103.225L77.0444 88.4386C77.965 87.7371 79.1262 87.4294 80.2734 87.5829C81.4206 87.7364 82.4601 88.3386 83.1639 89.2575L106.791 120.147L167.663 54.9677C168.454 54.1203 169.549 53.6218 170.708 53.5819C171.866 53.542 172.993 53.964 173.841 54.755L191.617 71.3651C192.464 72.1562 192.962 73.2514 193.002 74.41C193.042 75.5685 192.62 76.6955 191.829 77.543L124.366 149.788C123.572 150.625 122.48 151.115 121.327 151.15C120.174 151.185 119.054 150.763 118.211 149.976C117.368 149.189 116.87 148.101 116.826 146.948C116.782 145.796 117.195 144.673 117.975 143.823L182.469 74.7746L171.067 64.1266L109.638 129.9C109.204 130.364 108.675 130.729 108.086 130.967C107.497 131.206 106.863 131.313 106.228 131.282C105.593 131.251 104.973 131.081 104.411 130.786C103.848 130.49 103.357 130.076 102.971 129.571L78.8715 98.0288L66.4809 107.505L108.067 161.893C108.562 162.541 108.866 163.313 108.945 164.124C109.024 164.935 108.875 165.752 108.515 166.483C108.154 167.213 107.596 167.829 106.905 168.259C106.213 168.69 105.415 168.918 104.6 168.919Z" fill="#1DC86D"/>
<path opacity="0.5" d="M234.538 41.1573C234.902 39.6142 237.098 39.6142 237.462 41.1573L240.567 54.3157C240.698 54.8696 241.13 55.3021 241.684 55.4328L254.843 58.5378C256.386 58.9019 256.386 61.0981 254.843 61.4622L241.684 64.5672C241.13 64.6979 240.698 65.1304 240.567 65.6843L237.462 78.8427C237.098 80.3858 234.902 80.3858 234.538 78.8427L231.433 65.6843C231.302 65.1304 230.87 64.6979 230.316 64.5672L217.157 61.4622C215.614 61.0981 215.614 58.9019 217.157 58.5378L230.316 55.4328C230.87 55.3021 231.302 54.8696 231.433 54.3157L234.538 41.1573Z" fill="#37E288"/>
<path opacity="0.5" d="M189.903 120.868C190.176 119.711 191.824 119.711 192.097 120.868L194.425 130.737C194.523 131.152 194.848 131.477 195.263 131.575L205.132 133.903C206.289 134.176 206.289 135.824 205.132 136.097L195.263 138.425C194.848 138.523 194.523 138.848 194.425 139.263L192.097 149.132C191.824 150.289 190.176 150.289 189.903 149.132L187.575 139.263C187.477 138.848 187.152 138.523 186.737 138.425L176.868 136.097C175.711 135.824 175.711 134.176 176.868 133.903L186.737 131.575C187.152 131.477 187.477 131.152 187.575 130.737L189.903 120.868Z" fill="#37E288"/>
<path opacity="0.5" d="M54.5378 171.157C54.9019 169.614 57.0981 169.614 57.4622 171.157L60.5672 184.316C60.6979 184.87 61.1304 185.302 61.6843 185.433L74.8427 188.538C76.3858 188.902 76.3858 191.098 74.8427 191.462L61.6843 194.567C61.1304 194.698 60.6979 195.13 60.5672 195.684L57.4622 208.843C57.0981 210.386 54.9019 210.386 54.5378 208.843L51.4328 195.684C51.3021 195.13 50.8696 194.698 50.3157 194.567L37.1573 191.462C35.6142 191.098 35.6142 188.902 37.1573 188.538L50.3157 185.433C50.8696 185.302 51.3021 184.87 51.4328 184.316L54.5378 171.157Z" fill="#37E288"/>
<path opacity="0.5" d="M45.2689 70.5787C45.451 69.8071 46.549 69.8071 46.7311 70.5787L48.2836 77.1578C48.3489 77.4348 48.5652 77.6511 48.8422 77.7164L55.4213 79.2689C56.1929 79.451 56.1929 80.549 55.4213 80.7311L48.8422 82.2836C48.5652 82.3489 48.3489 82.5652 48.2836 82.8422L46.7311 89.4213C46.549 90.1929 45.451 90.1929 45.2689 89.4213L43.7164 82.8422C43.6511 82.5652 43.4348 82.3489 43.1578 82.2836L36.5787 80.7311C35.8071 80.549 35.8071 79.451 36.5787 79.2689L43.1578 77.7164C43.4348 77.6511 43.6511 77.4348 43.7164 77.1578L45.2689 70.5787Z" fill="#37E288"/>
</g>
<defs>
<clipPath id="clip0_5_13967">
<rect width="256" height="215" fill="white"/>
</clipPath>
</defs>
</svg>
