<svg width="205" height="50" viewBox="0 0 205 50" fill="none" xmlns="http://www.w3.org/2000/svg">
    <g clip-path="url(#clip0_144_9290)">
        <path d="M60.0076 35.1142H74.5832V30.724H65.1881V14.1874H60.0076V35.1142Z" fill="#2F234F"/>
        <path d="M83.2185 32.1872C81.1405 32.1872 80.0575 30.3725 80.0575 27.6506C80.0575 24.9286 81.1405 23.0847 83.2185 23.0847C85.2966 23.0847 86.4088 24.9286 86.4088 27.6506C86.4088 30.3725 85.2966 32.1872 83.2185 32.1872ZM83.2478 35.5823C88.0771 35.5823 91.238 32.1579 91.238 27.6506C91.238 23.1433 88.0771 19.7189 83.2478 19.7189C78.4478 19.7189 75.2283 23.1433 75.2283 27.6506C75.2283 32.1579 78.4478 35.5823 83.2478 35.5823Z" fill="#2F234F"/>
        <path d="M99.5975 40.2947C101.822 40.2947 103.783 39.7972 105.1 38.6265C106.3 37.5435 107.09 35.9045 107.09 33.6508V20.1289H102.524V21.7386H102.466C101.588 20.4801 100.241 19.6899 98.2512 19.6899C94.5341 19.6899 91.9585 22.7923 91.9585 27.1825C91.9585 31.7777 95.0902 34.2947 98.4561 34.2947C100.271 34.2947 101.412 33.563 102.29 32.5679H102.407V34.0606C102.407 35.8752 101.559 36.9289 99.539 36.9289C97.9585 36.9289 97.1683 36.2557 96.9048 35.4655H92.2804C92.7487 38.5972 95.4707 40.2947 99.5975 40.2947ZM99.5683 30.7533C97.7829 30.7533 96.6122 29.2899 96.6122 27.0362C96.6122 24.7533 97.7829 23.2899 99.5683 23.2899C101.558 23.2899 102.612 24.9874 102.612 27.0069C102.612 29.1143 101.646 30.7533 99.5683 30.7533Z" fill="#2F234F"/>
        <path d="M116.479 32.1872C114.401 32.1872 113.318 30.3725 113.318 27.6506C113.318 24.9286 114.401 23.0847 116.479 23.0847C118.557 23.0847 119.669 24.9286 119.669 27.6506C119.669 30.3725 118.557 32.1872 116.479 32.1872ZM116.508 35.5823C121.338 35.5823 124.499 32.1579 124.499 27.6506C124.499 23.1433 121.338 19.7189 116.508 19.7189C111.708 19.7189 108.489 23.1433 108.489 27.6506C108.489 32.1579 111.708 35.5823 116.508 35.5823Z" fill="#2F234F"/>
        <path d="M125.891 35.1142H130.662V20.1288H125.891V35.1142ZM125.891 18.0508H130.662V14.1874H125.891V18.0508Z" fill="#2F234F"/>
        <path d="M132.731 40.0606H137.502V33.563H137.561C138.497 34.8216 139.873 35.5826 141.805 35.5826C145.727 35.5826 148.331 32.4801 148.331 27.6216C148.331 23.1143 145.902 19.6899 141.922 19.6899C139.873 19.6899 138.409 20.5972 137.385 21.9435H137.297V20.1289H132.731V40.0606ZM140.575 31.8947C138.527 31.8947 137.356 30.2265 137.356 27.7972C137.356 25.3679 138.409 23.524 140.488 23.524C142.536 23.524 143.502 25.2216 143.502 27.7972C143.502 30.3435 142.39 31.8947 140.575 31.8947Z" fill="#2F234F"/>
        <path d="M156.099 35.5826C160.021 35.5826 162.919 33.885 162.919 30.6069C162.919 26.7728 159.816 26.0996 157.182 25.6606C155.28 25.3094 153.582 25.163 153.582 24.1094C153.582 23.1728 154.49 22.7338 155.66 22.7338C156.977 22.7338 157.885 23.1435 158.06 24.4899H162.451C162.216 21.5338 159.933 19.6899 155.69 19.6899C152.148 19.6899 149.221 21.3289 149.221 24.4899C149.221 28.0021 152.002 28.7045 154.607 29.1435C156.597 29.4947 158.412 29.6411 158.412 30.9874C158.412 31.9533 157.504 32.4801 156.07 32.4801C154.49 32.4801 153.494 31.7484 153.319 30.2557H148.812C148.958 33.563 151.709 35.5826 156.099 35.5826Z" fill="#2F234F"/>
        <path d="M169.398 35.5532C171.476 35.5532 172.794 34.7337 173.876 33.2703H173.964V35.1142H178.53V20.1288H173.759V28.4996C173.759 30.2849 172.764 31.5142 171.125 31.5142C169.603 31.5142 168.872 30.6069 168.872 28.9679V20.1288H164.13V29.963C164.13 33.2996 165.945 35.5532 169.398 35.5532Z" fill="#2F234F"/>
        <path d="M180.606 35.1143H185.377V26.7143C185.377 24.9289 186.255 23.6704 187.747 23.6704C189.182 23.6704 189.855 24.6069 189.855 26.2167V35.1143H194.625V26.7143C194.625 24.9289 195.474 23.6704 196.996 23.6704C198.43 23.6704 199.104 24.6069 199.104 26.2167V35.1143H203.874V25.3679C203.874 22.0021 202.177 19.6899 198.782 19.6899C196.85 19.6899 195.24 20.5094 194.069 22.324H194.011C193.25 20.7143 191.757 19.6899 189.796 19.6899C187.63 19.6899 186.196 20.7143 185.26 22.2655H185.172V20.1289H180.606V35.1143Z" fill="#2F234F"/>
        <path fill-rule="evenodd" clip-rule="evenodd" d="M11.2558 4.74555C9.51114 5.9655 7.93345 7.40788 6.56388 9.03156C12.1606 8.51196 19.271 9.3604 27.5261 13.488C36.3415 17.8956 43.44 18.0446 48.3803 17.0917C47.932 15.7345 47.3676 14.4301 46.6992 13.1901C41.0439 13.7865 33.7939 12.997 25.3447 8.77251C19.9793 6.08983 15.2498 4.98475 11.2558 4.74555ZM43.3957 8.48796C38.9297 3.49815 32.4396 0.35791 25.2159 0.35791C23.0945 0.35791 21.0363 0.628772 19.0741 1.13776C21.7316 1.86289 24.5548 2.92375 27.5261 4.40945C33.7122 7.50245 39.053 8.49834 43.3957 8.48796ZM49.4365 21.8556C43.4682 23.0341 35.2266 22.792 25.3447 17.851C16.1061 13.2318 8.75304 13.29 3.79386 14.392C3.53788 14.4489 3.28793 14.5086 3.04401 14.5708C2.39473 15.9829 1.87646 17.4678 1.50459 19.0097C1.90176 18.9036 2.31218 18.8028 2.73564 18.7086C8.75199 17.3717 17.2526 17.4297 27.5261 22.5665C36.7648 27.1858 44.1178 27.1276 49.0771 26.0256C49.247 25.9879 49.4144 25.9489 49.5791 25.9086C49.5971 25.5241 49.6061 25.1371 49.6061 24.7481C49.6061 23.7695 49.5486 22.8042 49.4365 21.8556ZM48.7827 31.0558C42.8724 32.0891 34.8708 31.6925 25.3447 26.9296C16.1061 22.3103 8.75304 22.3685 3.79386 23.4706C2.69306 23.7151 1.7028 24.013 0.829257 24.3275C0.826875 24.4674 0.825684 24.6076 0.825684 24.7481C0.825684 38.2185 11.7456 49.1384 25.2159 49.1384C36.505 49.1384 46.0028 41.4687 48.7827 31.0558Z" fill="#7F57F1"/>
    </g>
    <defs>
        <clipPath id="clip0_144_9290">
            <rect width="203.659" height="50" fill="white" transform="translate(0.701904)"/>
        </clipPath>
    </defs>
</svg>
