<svg width="162" height="41" viewBox="0 0 162 41" fill="none" xmlns="http://www.w3.org/2000/svg">
<path d="M18.8375 8.01904V2.89404H2.67871V38.1058H18.8375V32.9808C15.5274 32.9808 12.3528 31.6658 10.0122 29.3252C7.67159 26.9846 6.35665 23.8101 6.35665 20.4999C6.35665 17.1898 7.67159 14.0152 10.0122 11.6746C12.3528 9.334 15.5274 8.01904 18.8375 8.01904Z" fill="#394149"/>
<path d="M18.8379 8.01904V32.9808C22.148 32.9808 25.3226 31.6658 27.6633 29.3252C30.0039 26.9846 31.3188 23.8101 31.3188 20.4999C31.3188 17.1898 30.0039 14.0152 27.6633 11.6746C25.3226 9.334 22.148 8.01904 18.8379 8.01904Z" fill="#394149"/>
<path d="M40.3867 11.1543H44.0044V28.5793H40.3867V11.1543Z" fill="#394149"/>
<path d="M46.0308 22.6105C46.0308 21.3569 46.4031 20.1315 47.1003 19.0896C47.7976 18.0477 48.7885 17.2363 49.9474 16.7581C51.1064 16.2801 52.3811 16.1569 53.6102 16.4041C54.8392 16.6513 55.9672 17.2579 56.8511 18.1468C57.735 19.0359 58.3352 20.1673 58.5754 21.3978C58.8155 22.6283 58.685 23.9023 58.2002 25.0585C57.7155 26.2146 56.8985 27.2008 55.8526 27.8921C54.8068 28.5834 53.5792 28.9485 52.3256 28.9414C51.4941 28.9479 50.6696 28.7884 49.9006 28.472C49.1316 28.1557 48.4334 27.689 47.8471 27.0994C47.2608 26.5098 46.7983 25.8089 46.4863 25.0381C46.1745 24.2673 46.0196 23.442 46.0308 22.6105ZM55.0991 22.6105C55.0848 22.0701 54.9116 21.5457 54.6009 21.1033C54.2903 20.6607 53.8562 20.3196 53.3526 20.1226C52.8491 19.9255 52.2988 19.8813 51.7704 19.9955C51.2418 20.1095 50.7587 20.3769 50.3814 20.7642C50.0041 21.1514 49.7493 21.6412 49.649 22.1726C49.5486 22.7039 49.6071 23.2529 49.8172 23.7511C50.0273 24.2492 50.3795 24.6745 50.83 24.9735C51.2804 25.2725 51.809 25.4321 52.3497 25.4323C52.7178 25.4395 53.0834 25.3707 53.4237 25.2301C53.764 25.0896 54.0717 24.8804 54.3274 24.6156C54.5832 24.3507 54.7816 24.0359 54.9102 23.691C55.0389 23.346 55.095 22.9782 55.075 22.6105H55.0991Z" fill="#394149"/>
<path d="M72.934 16.6411V27.9885C72.934 31.992 69.7987 33.6923 66.6272 33.6923C65.5085 33.7841 64.3864 33.5618 63.3874 33.0505C62.3882 32.5392 61.5515 31.7592 60.9716 30.7982L64.0225 29.0376C64.2697 29.5361 64.663 29.9473 65.1499 30.2166C65.6368 30.4859 66.1942 30.6004 66.7478 30.545C67.1005 30.5884 67.4584 30.5534 67.796 30.4425C68.1336 30.3314 68.4424 30.1473 68.7005 29.9029C68.9587 29.6586 69.1596 29.3604 69.289 29.0294C69.4184 28.6985 69.473 28.343 69.449 27.9885V26.8911C69.028 27.4016 68.4938 27.8068 67.8889 28.0747C67.2839 28.3427 66.6249 28.4659 65.964 28.4347C64.3649 28.4347 62.8313 27.7994 61.7006 26.6686C60.5698 25.538 59.9346 24.0044 59.9346 22.4053C59.9346 20.8061 60.5698 19.2726 61.7006 18.1419C62.8313 17.0111 64.3649 16.3758 65.964 16.3758C66.6249 16.3446 67.2839 16.4678 67.8889 16.7358C68.4938 17.0037 69.028 17.4089 69.449 17.9194V16.7135L72.934 16.6411ZM69.449 22.3691C69.473 21.7922 69.3239 21.2212 69.0209 20.7297C68.7179 20.2382 68.2748 19.8485 67.7484 19.6109C67.2222 19.3732 66.637 19.2984 66.0678 19.3961C65.4988 19.4938 64.9718 19.7594 64.5549 20.1589C64.138 20.5584 63.8502 21.0736 63.7284 21.6381C63.6066 22.2025 63.6564 22.7904 63.8714 23.3263C64.0865 23.8622 64.457 24.3215 64.9351 24.6452C65.4134 24.9688 65.9775 25.1421 66.5549 25.1426C66.9317 25.1697 67.31 25.1175 67.6652 24.9895C68.0206 24.8613 68.3452 24.66 68.6179 24.3986C68.8907 24.1373 69.1055 23.8216 69.2487 23.472C69.3918 23.1224 69.4601 22.7466 69.449 22.3691Z" fill="#394149"/>
<path d="M74.9721 22.6102C74.9721 21.3575 75.3438 20.1331 76.0399 19.0917C76.7361 18.0503 77.7255 17.2388 78.883 16.7601C80.0405 16.2812 81.3141 16.1566 82.5425 16.4018C83.7709 16.6471 84.8989 17.2513 85.7839 18.1378C86.6688 19.0245 87.2708 20.1537 87.5136 21.3825C87.7566 22.6114 87.6295 23.8847 87.1485 25.0413C86.6675 26.1979 85.8541 27.1858 84.8115 27.88C83.7688 28.5743 82.5436 28.9435 81.2909 28.9411C80.4579 28.9492 79.6315 28.7908 78.8605 28.4754C78.0894 28.1599 77.3891 27.6937 76.8006 27.104C76.212 26.5144 75.7471 25.8131 75.4331 25.0415C75.1192 24.2699 74.9625 23.4432 74.9721 22.6102ZM84.0403 22.6102C84.0261 22.0692 83.8525 21.5444 83.5413 21.1016C83.2302 20.659 82.7953 20.3178 82.2911 20.1211C81.7869 19.9245 81.2359 19.8809 80.7072 19.9961C80.1784 20.1111 79.6953 20.3798 79.3185 20.7682C78.9416 21.1566 78.6878 21.6477 78.5889 22.1797C78.4899 22.7117 78.5501 23.2611 78.7619 23.759C78.9738 24.2571 79.328 24.6814 79.7801 24.979C80.232 25.2765 80.7618 25.4341 81.303 25.432C81.6711 25.4392 82.0368 25.3703 82.3771 25.2297C82.7174 25.0893 83.025 24.88 83.2807 24.6152C83.5365 24.3504 83.7349 24.0356 83.8636 23.6907C83.9922 23.3457 84.0483 22.9779 84.0283 22.6102H84.0403Z" fill="#394149"/>
<path d="M89.2852 13.4458C89.2852 13.0213 89.411 12.6063 89.6469 12.2533C89.8828 11.9003 90.218 11.6252 90.6102 11.4627C91.0025 11.3002 91.434 11.2577 91.8504 11.3406C92.2667 11.4234 92.6492 11.6278 92.9495 11.928C93.2496 12.2282 93.454 12.6107 93.5368 13.027C93.6197 13.4434 93.5771 13.875 93.4147 14.2672C93.2523 14.6594 92.9771 14.9946 92.6241 15.2305C92.2712 15.4664 91.8562 15.5923 91.4316 15.5923C90.8643 15.586 90.322 15.3578 89.9208 14.9566C89.5196 14.5554 89.2914 14.0132 89.2852 13.4458ZM89.6349 16.6414H93.2525V28.5796H89.6349V16.6414Z" fill="#394149"/>
<path d="M108.736 22.6104C108.777 23.4043 108.66 24.1985 108.392 24.9471C108.125 25.6958 107.712 26.3841 107.177 26.9724C106.643 27.5609 105.997 28.0377 105.277 28.3756C104.558 28.7135 103.779 28.9057 102.984 28.9413C102.31 28.9861 101.635 28.8782 101.009 28.6256C100.382 28.3728 99.8209 27.982 99.3667 27.4822V33.3789H95.749V16.6413H99.3667V17.7627C99.8215 17.2643 100.383 16.8753 101.01 16.6247C101.636 16.374 102.311 16.2684 102.984 16.3157C103.775 16.3513 104.552 16.5424 105.269 16.878C105.986 17.2136 106.63 17.6872 107.164 18.2717C107.698 18.8562 108.112 19.5402 108.382 20.2847C108.651 21.0291 108.772 21.8193 108.736 22.6104ZM105.119 22.6104C105.104 22.0503 104.925 21.5069 104.603 21.0483C104.282 20.5897 103.832 20.2361 103.31 20.0322C102.788 19.8282 102.218 19.7828 101.67 19.9016C101.123 20.0204 100.622 20.2982 100.232 20.7001C99.8418 21.1021 99.5788 21.6102 99.4762 22.1611C99.3734 22.7118 99.4355 23.2806 99.6548 23.7962C99.874 24.3118 100.24 24.7512 100.708 25.0594C101.176 25.3676 101.725 25.5308 102.285 25.5286C102.669 25.5449 103.051 25.4799 103.408 25.3378C103.765 25.1958 104.088 24.9799 104.356 24.7044C104.623 24.4289 104.829 24.0998 104.961 23.739C105.093 23.378 105.146 22.9935 105.119 22.6104Z" fill="#394149"/>
<path d="M119.746 24.9981C119.746 27.7476 117.334 28.9173 114.778 28.9173C113.735 29.0111 112.688 28.79 111.772 28.2827C110.857 27.7754 110.114 27.0051 109.641 26.0714L112.752 24.3108C112.875 24.7411 113.142 25.116 113.509 25.3728C113.875 25.6297 114.319 25.7528 114.766 25.7217C115.622 25.7217 116.056 25.4564 116.056 24.974C116.056 23.6596 110.183 24.359 110.183 20.2229C110.183 17.6181 112.378 16.3158 114.862 16.3158C115.806 16.2735 116.744 16.4878 117.577 16.9357C118.409 17.3837 119.104 18.0488 119.589 18.8602L116.478 20.5002C116.341 20.1891 116.116 19.9245 115.831 19.7383C115.547 19.5521 115.214 19.4524 114.874 19.4511C114.247 19.4511 113.873 19.6923 113.873 20.1143C113.873 21.489 119.746 20.5846 119.746 24.9981Z" fill="#394149"/>
<path d="M132.854 16.6411V28.5793H129.237V27.4579C128.826 27.9543 128.303 28.3471 127.714 28.6048C127.123 28.8625 126.48 28.9777 125.836 28.9411C123.424 28.9411 121.362 27.2167 121.362 23.997V16.6411H124.98V23.4543C124.951 23.7392 124.985 24.0268 125.079 24.2974C125.173 24.5679 125.324 24.8148 125.521 25.0213C125.72 25.2276 125.962 25.3885 126.228 25.4928C126.495 25.597 126.78 25.6421 127.066 25.6249C128.368 25.6249 129.285 24.8532 129.285 23.2132V16.6411H132.854Z" fill="#394149"/>
<path d="M153.354 21.2476V28.5793H149.736V21.5611C149.736 20.3552 149.169 19.6076 148.024 19.6076C146.878 19.6076 146.155 20.4396 146.155 21.8505V28.5793H142.537V21.5611C142.537 20.3552 141.97 19.6076 140.825 19.6076C139.679 19.6076 138.956 20.4396 138.956 21.8505V28.5793H135.338V16.6411H138.956V17.7384C139.331 17.2537 139.819 16.8697 140.38 16.6213C140.939 16.3729 141.553 16.2677 142.163 16.3155C142.775 16.2835 143.385 16.4114 143.932 16.6862C144.48 16.961 144.946 17.3735 145.286 17.8831C145.684 17.3506 146.21 16.9276 146.815 16.6535C147.42 16.3793 148.085 16.263 148.747 16.3155C151.569 16.3155 153.354 18.269 153.354 21.2476Z" fill="#394149"/>
<path d="M156.393 16.5691C157.858 16.5691 159.046 15.3813 159.046 13.9161C159.046 12.451 157.858 11.2632 156.393 11.2632C154.928 11.2632 153.74 12.451 153.74 13.9161C153.74 15.3813 154.928 16.5691 156.393 16.5691Z" fill="#394149"/>
</svg>
