<svg width="155" height="27" viewBox="0 0 155 27" fill="none" xmlns="http://www.w3.org/2000/svg">
<g clip-path="url(#clip0_1153_17256)">
<path d="M23.9599 20.6943H31.955L12.1495 0.888672H4.1543L23.9599 20.6943Z" fill="#7476ED"/>
<path d="M16.2568 0.888673L35.349 19.9809V0.888672H30.1823V6.91644L24.1545 0.888672L16.2568 0.888673Z" fill="#E56F8C"/>
<path d="M0.807617 1.55176V20.6942H5.97429V14.6664L12.002 20.6942H19.9501L0.807617 1.55176Z" fill="#64C2DB"/>
<path d="M47.8172 17.7165H52.4465V20.4445H44.2832V5.93652H47.8172V17.7165Z" fill="#3A3B7B"/>
<path d="M58.7616 20.6098C57.6318 20.6098 56.6122 20.3687 55.7029 19.8864C54.8073 19.4042 54.0978 18.7153 53.5742 17.8198C53.0645 16.9242 52.8096 15.8771 52.8096 14.6784C52.8096 13.4936 53.0713 12.4533 53.5949 11.5578C54.1185 10.6484 54.8349 9.95262 55.7442 9.4704C56.6536 8.98818 57.6731 8.74707 58.8029 8.74707C59.9327 8.74707 60.9522 8.98818 61.8616 9.4704C62.7709 9.95262 63.4873 10.6484 64.0109 11.5578C64.5345 12.4533 64.7962 13.4936 64.7962 14.6784C64.7962 15.8633 64.5276 16.9104 63.9902 17.8198C63.4667 18.7153 62.7433 19.4042 61.8202 19.8864C60.9109 20.3687 59.8913 20.6098 58.7616 20.6098ZM58.7616 17.5511C59.4367 17.5511 60.0085 17.3031 60.4769 16.8071C60.9591 16.3111 61.2002 15.6016 61.2002 14.6784C61.2002 13.7553 60.966 13.0458 60.4976 12.5498C60.0429 12.0538 59.478 11.8058 58.8029 11.8058C58.114 11.8058 57.5422 12.0538 57.0876 12.5498C56.6329 13.032 56.4056 13.7416 56.4056 14.6784C56.4056 15.6016 56.626 16.3111 57.0669 16.8071C57.5216 17.3031 58.0865 17.5511 58.7616 17.5511Z" fill="#3A3B7B"/>
<path d="M70.4326 8.74707C71.2455 8.74707 71.9551 8.9124 72.5613 9.24307C73.1813 9.57374 73.6566 10.0078 73.9873 10.5451V8.9124H77.5213V20.4238C77.5213 21.4847 77.3077 22.4422 76.8806 23.2964C76.4673 24.1644 75.8266 24.8533 74.9586 25.3631C74.1044 25.8729 73.0366 26.1278 71.7553 26.1278C70.0468 26.1278 68.6622 25.7213 67.6013 24.9084C66.5404 24.1093 65.9342 23.0209 65.7826 21.6431H69.2753C69.3855 22.084 69.6473 22.4284 70.0606 22.6764C70.474 22.9382 70.9837 23.0691 71.59 23.0691C72.3202 23.0691 72.8988 22.8556 73.326 22.4284C73.7668 22.0151 73.9873 21.3469 73.9873 20.4238V18.7911C73.6428 19.3284 73.1675 19.7693 72.5613 20.1138C71.9551 20.4444 71.2455 20.6098 70.4326 20.6098C69.482 20.6098 68.6208 20.3687 67.8493 19.8864C67.0777 19.3904 66.4646 18.6947 66.01 17.7991C65.5691 16.8898 65.3486 15.8427 65.3486 14.6578C65.3486 13.4729 65.5691 12.4327 66.01 11.5371C66.4646 10.6416 67.0777 9.95262 67.8493 9.4704C68.6208 8.98818 69.482 8.74707 70.4326 8.74707ZM73.9873 14.6784C73.9873 13.7967 73.7393 13.1009 73.2433 12.5911C72.7611 12.0813 72.1686 11.8264 71.466 11.8264C70.7633 11.8264 70.164 12.0813 69.668 12.5911C69.1857 13.0871 68.9446 13.776 68.9446 14.6578C68.9446 15.5396 69.1857 16.2422 69.668 16.7658C70.164 17.2756 70.7633 17.5304 71.466 17.5304C72.1686 17.5304 72.7611 17.2756 73.2433 16.7658C73.7393 16.256 73.9873 15.5602 73.9873 14.6784Z" fill="#3A3B7B"/>
<path d="M84.7069 20.6098C83.5771 20.6098 82.5576 20.3687 81.6482 19.8864C80.7527 19.4042 80.0431 18.7153 79.5196 17.8198C79.0098 16.9242 78.7549 15.8771 78.7549 14.6784C78.7549 13.4936 79.0167 12.4533 79.5402 11.5578C80.0638 10.6484 80.7802 9.95262 81.6896 9.4704C82.5989 8.98818 83.6185 8.74707 84.7482 8.74707C85.878 8.74707 86.8976 8.98818 87.8069 9.4704C88.7162 9.95262 89.4327 10.6484 89.9562 11.5578C90.4798 12.4533 90.7416 13.4936 90.7416 14.6784C90.7416 15.8633 90.4729 16.9104 89.9356 17.8198C89.412 18.7153 88.6887 19.4042 87.7656 19.8864C86.8562 20.3687 85.8367 20.6098 84.7069 20.6098ZM84.7069 17.5511C85.382 17.5511 85.9538 17.3031 86.4222 16.8071C86.9045 16.3111 87.1456 15.6016 87.1456 14.6784C87.1456 13.7553 86.9114 13.0458 86.4429 12.5498C85.9882 12.0538 85.4234 11.8058 84.7482 11.8058C84.0594 11.8058 83.4876 12.0538 83.0329 12.5498C82.5782 13.032 82.3509 13.7416 82.3509 14.6784C82.3509 15.6016 82.5714 16.3111 83.0122 16.8071C83.4669 17.3031 84.0318 17.5511 84.7069 17.5511Z" fill="#3A3B7B"/>
<path d="M93.774 7.71396C93.154 7.71396 92.6442 7.53484 92.2446 7.17662C91.8589 6.80462 91.666 6.34996 91.666 5.81262C91.666 5.26151 91.8589 4.80685 92.2446 4.44863C92.6442 4.07663 93.154 3.89062 93.774 3.89062C94.3802 3.89062 94.8762 4.07663 95.262 4.44863C95.6615 4.80685 95.8613 5.26151 95.8613 5.81262C95.8613 6.34996 95.6615 6.80462 95.262 7.17662C94.8762 7.53484 94.3802 7.71396 93.774 7.71396ZM95.5306 8.91263V20.4446H91.9966V8.91263H95.5306Z" fill="#3A3B7B"/>
<path d="M101.005 10.5451C101.35 10.0078 101.825 9.57374 102.431 9.24307C103.037 8.9124 103.747 8.74707 104.56 8.74707C105.511 8.74707 106.372 8.98818 107.143 9.4704C107.915 9.95262 108.521 10.6416 108.962 11.5371C109.417 12.4327 109.644 13.4729 109.644 14.6578C109.644 15.8427 109.417 16.8898 108.962 17.7991C108.521 18.6947 107.915 19.3904 107.143 19.8864C106.372 20.3687 105.511 20.6098 104.56 20.6098C103.761 20.6098 103.051 20.4444 102.431 20.1138C101.825 19.7831 101.35 19.356 101.005 18.8324V25.9418H97.4717V8.9124H101.005V10.5451ZM106.048 14.6578C106.048 13.776 105.8 13.0871 105.304 12.5911C104.822 12.0813 104.222 11.8264 103.506 11.8264C102.803 11.8264 102.204 12.0813 101.708 12.5911C101.226 13.1009 100.985 13.7967 100.985 14.6784C100.985 15.5602 101.226 16.256 101.708 16.7658C102.204 17.2756 102.803 17.5304 103.506 17.5304C104.209 17.5304 104.808 17.2756 105.304 16.7658C105.8 16.2422 106.048 15.5396 106.048 14.6578Z" fill="#3A3B7B"/>
<path d="M115.57 20.6098C114.564 20.6098 113.669 20.4376 112.884 20.0931C112.098 19.7487 111.478 19.2802 111.024 18.6878C110.569 18.0816 110.314 17.4064 110.259 16.6624H113.752C113.793 17.062 113.979 17.3858 114.31 17.6338C114.64 17.8818 115.047 18.0058 115.529 18.0058C115.97 18.0058 116.307 17.9231 116.542 17.7578C116.79 17.5787 116.914 17.3513 116.914 17.0758C116.914 16.7451 116.741 16.504 116.397 16.3524C116.052 16.1871 115.494 16.008 114.723 15.8151C113.896 15.6222 113.207 15.4224 112.656 15.2158C112.105 14.9953 111.63 14.6578 111.23 14.2031C110.831 13.7347 110.631 13.1078 110.631 12.3224C110.631 11.6611 110.81 11.0618 111.168 10.5244C111.54 9.97329 112.078 9.53929 112.78 9.2224C113.497 8.90551 114.344 8.74707 115.322 8.74707C116.769 8.74707 117.906 9.10529 118.732 9.82174C119.573 10.5382 120.055 11.4889 120.179 12.6738H116.914C116.858 12.2742 116.679 11.9573 116.376 11.7231C116.087 11.4889 115.701 11.3718 115.219 11.3718C114.806 11.3718 114.489 11.4544 114.268 11.6198C114.048 11.7713 113.938 11.9849 113.938 12.2604C113.938 12.5911 114.11 12.8391 114.454 13.0044C114.812 13.1698 115.364 13.3351 116.108 13.5004C116.962 13.7209 117.658 13.9413 118.195 14.1618C118.732 14.3684 119.201 14.7129 119.6 15.1951C120.014 15.6636 120.227 16.2973 120.241 17.0964C120.241 17.7716 120.048 18.3778 119.662 18.9151C119.29 19.4387 118.746 19.852 118.03 20.1551C117.327 20.4582 116.507 20.6098 115.57 20.6098Z" fill="#3A3B7B"/>
<path d="M133.17 8.9126V20.4446H129.636V18.874C129.278 19.3838 128.789 19.7971 128.169 20.114C127.563 20.4171 126.888 20.5686 126.144 20.5686C125.262 20.5686 124.483 20.3758 123.808 19.99C123.133 19.5904 122.61 19.0186 122.238 18.2746C121.866 17.5306 121.68 16.6558 121.68 15.65V8.9126H125.193V15.1746C125.193 15.9462 125.393 16.5455 125.792 16.9726C126.192 17.3998 126.729 17.6133 127.404 17.6133C128.093 17.6133 128.637 17.3998 129.037 16.9726C129.437 16.5455 129.636 15.9462 129.636 15.1746V8.9126H133.17Z" fill="#3A3B7B"/>
<path d="M149.803 8.78857C151.236 8.78857 152.373 9.22257 153.213 10.0905C154.068 10.9585 154.495 12.1641 154.495 13.7072V20.4445H150.981V14.1825C150.981 13.4385 150.782 12.8668 150.382 12.4672C149.996 12.0539 149.459 11.8472 148.77 11.8472C148.081 11.8472 147.537 12.0539 147.137 12.4672C146.752 12.8668 146.559 13.4385 146.559 14.1825V20.4445H143.045V14.1825C143.045 13.4385 142.846 12.8668 142.446 12.4672C142.06 12.0539 141.523 11.8472 140.834 11.8472C140.145 11.8472 139.601 12.0539 139.201 12.4672C138.816 12.8668 138.623 13.4385 138.623 14.1825V20.4445H135.089V8.91257H138.623V10.3592C138.981 9.87702 139.449 9.49813 140.028 9.22257C140.607 8.93324 141.261 8.78857 141.991 8.78857C142.859 8.78857 143.631 8.97457 144.306 9.34657C144.995 9.71857 145.532 10.249 145.918 10.9379C146.318 10.3041 146.862 9.78746 147.551 9.38791C148.24 8.98835 148.991 8.78857 149.803 8.78857Z" fill="#3A3B7B"/>
</g>
<defs>
<clipPath id="clip0_1153_17256">
<rect width="154" height="27" fill="white" transform="translate(0.807617)"/>
</clipPath>
</defs>
</svg>
