<svg width="173" height="41" viewBox="0 0 173 41" fill="none" xmlns="http://www.w3.org/2000/svg">
<g clip-path="url(#clip0_1153_17341)">
<path d="M49.7461 29.5002H61.0988V26.2675H53.2079V11.1729H49.7461V29.5002Z" fill="#23216E"/>
<path d="M67.9208 29.8817C69.2954 29.8817 70.5045 29.5762 71.5481 28.9653C72.6002 28.3459 73.419 27.4932 74.0045 26.4072C74.5984 25.3126 74.8954 24.0526 74.8954 22.6272C74.8954 21.2102 74.6026 19.9587 74.0172 18.8726C73.4317 17.7781 72.6129 16.9211 71.5608 16.3017C70.5172 15.6823 69.3039 15.3726 67.9208 15.3726C66.5632 15.3726 65.3626 15.6781 64.319 16.289C63.2754 16.8999 62.4566 17.7526 61.8626 18.8472C61.2687 19.9332 60.9717 21.1932 60.9717 22.6272C60.9717 24.0441 61.2602 25.2999 61.8372 26.3944C62.4226 27.4805 63.2372 28.3332 64.2808 28.9526C65.3245 29.572 66.5378 29.8817 67.9208 29.8817ZM67.9208 26.649C66.8432 26.649 66.0245 26.2884 65.4645 25.5672C64.9129 24.8375 64.6372 23.8575 64.6372 22.6272C64.6372 21.4308 64.9002 20.4635 65.4263 19.7253C65.9608 18.9787 66.7923 18.6053 67.9208 18.6053C69.0154 18.6053 69.8384 18.9702 70.3899 19.6999C70.9499 20.4296 71.2299 21.4053 71.2299 22.6272C71.2299 23.8066 70.9542 24.7738 70.4026 25.529C69.8596 26.2756 69.0323 26.649 67.9208 26.649Z" fill="#23216E"/>
<path d="M81.7414 29.8817C82.3863 29.8817 82.9802 29.8053 83.5233 29.6526C84.0748 29.4999 84.5754 29.2835 85.0251 29.0035V30.3908C85.0421 30.8999 84.9105 31.3241 84.6305 31.6635C84.359 32.0114 83.9942 32.2702 83.536 32.4399C83.0778 32.6181 82.5899 32.7072 82.0724 32.7072C81.5887 32.7072 81.139 32.6011 80.7233 32.389C80.316 32.1769 80.002 31.8672 79.7814 31.4599L76.5742 33.0126C77.1002 33.9035 77.8511 34.6205 78.8269 35.1635C79.8027 35.715 80.876 35.9908 82.0469 35.9908C83.0566 35.9908 83.9942 35.855 84.8596 35.5835C85.7251 35.3205 86.4548 34.9175 87.0487 34.3744C87.6511 33.8314 88.0627 33.1399 88.2833 32.2999C88.3596 32.0029 88.4105 31.7017 88.436 31.3962C88.4699 31.0993 88.4869 30.7811 88.4869 30.4417V15.7544H85.4578V16.5181C84.9911 16.1532 84.4608 15.8732 83.8669 15.6781C83.2814 15.4744 82.6324 15.3726 81.9196 15.3726C80.6045 15.3726 79.459 15.6866 78.4833 16.3144C77.5075 16.9423 76.7481 17.8035 76.2051 18.8981C75.6705 19.9841 75.4033 21.2272 75.4033 22.6272C75.4033 24.0017 75.6663 25.2362 76.1924 26.3308C76.7269 27.4253 77.4693 28.2908 78.4196 28.9272C79.3699 29.5635 80.4772 29.8817 81.7414 29.8817ZM82.3014 26.8017C81.5548 26.8017 80.9439 26.615 80.4687 26.2417C79.9936 25.8684 79.6414 25.3678 79.4124 24.7399C79.1833 24.1035 79.0687 23.3993 79.0687 22.6272C79.0687 21.8635 79.1875 21.1678 79.4251 20.5399C79.6627 19.9035 80.0275 19.3987 80.5196 19.0253C81.0202 18.6435 81.6566 18.4526 82.4287 18.4526C83.5148 18.4526 84.2911 18.8387 84.7578 19.6108C85.2245 20.3744 85.4578 21.3799 85.4578 22.6272C85.4578 23.8744 85.2202 24.8841 84.7451 25.6562C84.2784 26.4199 83.4639 26.8017 82.3014 26.8017Z" fill="#23216E"/>
<path d="M96.7098 29.8817C98.0844 29.8817 99.2935 29.5762 100.337 28.9653C101.389 28.3459 102.208 27.4932 102.793 26.4072C103.387 25.3126 103.684 24.0526 103.684 22.6272C103.684 21.2102 103.392 19.9587 102.806 18.8726C102.221 17.7781 101.402 16.9211 100.35 16.3017C99.3062 15.6823 98.0928 15.3726 96.7098 15.3726C95.3522 15.3726 94.1516 15.6781 93.108 16.289C92.0644 16.8999 91.2456 17.7526 90.6516 18.8472C90.0577 19.9332 89.7607 21.1932 89.7607 22.6272C89.7607 24.0441 90.0492 25.2999 90.6262 26.3944C91.2116 27.4805 92.0262 28.3332 93.0698 28.9526C94.1135 29.572 95.3268 29.8817 96.7098 29.8817ZM96.7098 26.649C95.6322 26.649 94.8134 26.2884 94.2534 25.5672C93.7019 24.8375 93.4262 23.8575 93.4262 22.6272C93.4262 21.4308 93.6892 20.4635 94.2153 19.7253C94.7498 18.9787 95.5813 18.6053 96.7098 18.6053C97.8044 18.6053 98.6274 18.9702 99.1789 19.6999C99.7389 20.4296 100.019 21.4053 100.019 22.6272C100.019 23.8066 99.7431 24.7738 99.1916 25.529C98.6486 26.2756 97.8213 26.649 96.7098 26.649Z" fill="#23216E"/>
<path d="M105.21 13.8455H108.672V10.791H105.21V13.8455ZM105.21 29.5001H108.672V15.7546H105.21V29.5001Z" fill="#23216E"/>
<path d="M110.935 35.609H114.422V29.0035C114.872 29.2835 115.368 29.4999 115.911 29.6526C116.463 29.8053 117.061 29.8817 117.706 29.8817C118.97 29.8817 120.078 29.5635 121.028 28.9272C121.978 28.2908 122.716 27.4253 123.242 26.3308C123.777 25.2362 124.044 24.0017 124.044 22.6272C124.044 21.2272 123.773 19.9841 123.23 18.8981C122.695 17.8035 121.94 16.9423 120.964 16.3144C119.988 15.6866 118.843 15.3726 117.528 15.3726C116.815 15.3726 116.162 15.4744 115.568 15.6781C114.982 15.8732 114.456 16.1532 113.99 16.5181V15.7544H110.935V35.609ZM117.146 26.8017C115.992 26.8017 115.178 26.4199 114.702 25.6562C114.227 24.8841 113.99 23.8744 113.99 22.6272C113.99 21.3799 114.223 20.3744 114.69 19.6108C115.165 18.8387 115.941 18.4526 117.019 18.4526C117.791 18.4526 118.423 18.6435 118.915 19.0253C119.416 19.3987 119.785 19.9035 120.022 20.5399C120.26 21.1678 120.379 21.8635 120.379 22.6272C120.379 23.3993 120.264 24.1035 120.035 24.7399C119.806 25.3678 119.454 25.8684 118.979 26.2417C118.504 26.615 117.893 26.8017 117.146 26.8017Z" fill="#23216E"/>
<path d="M130.316 29.8817C132.114 29.8817 133.523 29.4787 134.541 28.6726C135.559 27.8665 136.068 26.7593 136.068 25.3508C136.068 24.2817 135.737 23.4375 135.076 22.8181C134.422 22.1987 133.311 21.6853 131.741 21.2781C130.672 21.0065 129.874 20.7859 129.348 20.6162C128.831 20.4466 128.487 20.2811 128.317 20.1199C128.156 19.9587 128.076 19.7593 128.076 19.5217C128.076 19.1229 128.266 18.8175 128.648 18.6053C129.039 18.3932 129.552 18.3084 130.188 18.3508C131.537 18.4526 132.276 19.0296 132.403 20.0817L135.941 19.4453C135.763 18.1981 135.152 17.2096 134.108 16.4799C133.065 15.7417 131.733 15.3726 130.112 15.3726C128.449 15.3726 127.121 15.7629 126.128 16.5435C125.136 17.3241 124.639 18.3762 124.639 19.6999C124.639 20.752 124.983 21.5835 125.67 22.1944C126.357 22.7969 127.541 23.3144 129.221 23.7472C130.214 24.0102 130.943 24.2223 131.41 24.3835C131.885 24.5447 132.191 24.7102 132.326 24.8799C132.462 25.0411 132.53 25.2575 132.53 25.529C132.53 25.9617 132.36 26.3011 132.021 26.5472C131.682 26.7847 131.198 26.9035 130.57 26.9035C129.806 26.9035 129.174 26.7211 128.674 26.3562C128.182 25.9914 127.863 25.4866 127.719 24.8417L124.181 25.3762C124.41 26.8102 125.055 27.9217 126.116 28.7108C127.185 29.4914 128.585 29.8817 130.316 29.8817Z" fill="#23216E"/>
<path d="M142.454 29.9072C143.447 29.9072 144.312 29.7417 145.051 29.4108C145.789 29.0799 146.408 28.6387 146.909 28.0872V29.4999H149.963V15.7544H146.476V22.729C146.476 23.5775 146.378 24.2647 146.183 24.7908C145.997 25.3084 145.755 25.7029 145.458 25.9744C145.161 26.2375 144.843 26.4156 144.503 26.509C144.164 26.6023 143.846 26.649 143.549 26.649C142.811 26.649 142.238 26.4835 141.831 26.1526C141.432 25.8217 141.143 25.4102 140.965 24.9181C140.787 24.4259 140.681 23.9381 140.647 23.4544C140.613 22.9623 140.596 22.5593 140.596 22.2453V15.7544H137.083V23.4672C137.083 23.6962 137.1 24.0611 137.134 24.5617C137.168 25.0623 137.266 25.6181 137.427 26.229C137.588 26.8314 137.855 27.4126 138.229 27.9726C138.611 28.5326 139.141 28.995 139.82 29.3599C140.498 29.7247 141.377 29.9072 142.454 29.9072Z" fill="#23216E"/>
<path d="M151.968 29.5002H155.455V21.1765C155.455 20.3875 155.671 19.7469 156.104 19.2547C156.545 18.7541 157.126 18.5038 157.848 18.5038C158.603 18.5038 159.193 18.7584 159.617 19.2675C160.049 19.7681 160.266 20.4723 160.266 21.3802V29.5002H163.728V21.1765C163.728 20.3875 163.944 19.7469 164.377 19.2547C164.818 18.7541 165.399 18.5038 166.12 18.5038C166.876 18.5038 167.465 18.7584 167.889 19.2675C168.322 19.7681 168.539 20.4723 168.539 21.3802V29.5002H172V20.4638C172 18.962 171.597 17.7487 170.791 16.8238C169.994 15.8905 168.81 15.4238 167.24 15.4238C166.358 15.4238 165.548 15.6147 164.809 15.9965C164.071 16.3784 163.482 16.9002 163.04 17.562C162.684 16.9172 162.175 16.3996 161.513 16.0093C160.851 15.619 160.028 15.4238 159.044 15.4238C158.212 15.4238 157.449 15.5893 156.753 15.9202C156.057 16.2426 155.48 16.6881 155.022 17.2565V15.7547H151.968V29.5002Z" fill="#23216E"/>
<path d="M20.71 0.5C9.66426 0.5 0.709961 9.4543 0.709961 20.5C11.7557 20.5 20.71 11.5457 20.71 0.5Z" fill="#45D2B0"/>
<path d="M20.71 40.5C31.7557 40.5 40.71 31.5457 40.71 20.5C29.6643 20.5 20.71 29.4543 20.71 40.5Z" fill="#45D2B0"/>
<path d="M20.71 0.5C31.7557 0.5 40.71 9.4543 40.71 20.5C29.6643 20.5 20.71 11.5457 20.71 0.5Z" fill="#23216E"/>
<path d="M20.71 40.5C9.66426 40.5 0.70996 31.5457 0.709961 20.5C11.7557 20.5 20.71 29.4543 20.71 40.5Z" fill="#23216E"/>
</g>
<defs>
<clipPath id="clip0_1153_17341">
<rect width="172" height="40" fill="white" transform="translate(0.709961 0.5)"/>
</clipPath>
</defs>
</svg>
