<svg width="155" height="41" viewBox="0 0 155 41" fill="none" xmlns="http://www.w3.org/2000/svg">
<path d="M13.2759 36.7828L9.66211 30.5235L14.9656 21.3628L18.3357 27.2005L38.2304 27.1898L32.5852 36.8692L13.2759 36.7828Z" fill="#FFAD64"/>
<path d="M41.783 20.9749L38.1693 27.2341L27.5842 27.2217L30.9546 21.3841L20.998 4.16016L32.2033 4.20932L41.783 20.9749Z" fill="#ADD4D3"/>
<path d="M13.833 4.12646H21.0607L26.3423 13.2999L19.6016 13.2995L9.6636 30.5342L4.10352 20.8056L13.833 4.12646Z" fill="#FB8351"/>
<path fill-rule="evenodd" clip-rule="evenodd" d="M21.9417 2.67753L21.9201 2.64014H12.979L2.38672 20.7984L9.65776 33.5206L9.66668 33.5052L12.4154 38.2662L33.437 38.3602L40.8193 25.7021H40.7702L43.4973 20.9786L33.068 2.72634L21.9417 2.67753ZM28.8581 14.7868H28.9139L23.658 5.65854L31.3381 5.69221L40.0683 20.971L37.3358 25.7041L30.1747 25.7078L32.6714 21.3835L28.8581 14.7868ZM20.1209 5.61354L23.7047 11.8133L18.7427 11.8132L10.2476 26.5453L9.66815 27.5463L5.82023 20.8135L14.6869 5.61354H20.1209ZM16.6752 21.3508L20.4603 14.7866L25.4237 14.7868L29.2374 21.3844L26.7401 25.7097L19.194 25.7139L16.6752 21.3508ZM11.3823 30.5298L12.8223 28.0326L14.9638 24.3336L17.4777 28.6882L25.0227 28.6841L25.0104 28.7052L35.6184 28.7177L31.7334 35.3792L14.1365 35.3004L11.3823 30.5298Z" fill="#333237"/>
<path d="M97.6518 13.5207C98.67 13.5207 99.4973 12.6934 99.4973 11.6541C99.4973 10.6146 98.67 9.80859 97.6518 9.80859C96.6125 9.80859 95.7852 10.6146 95.7852 11.6541C95.7852 12.6934 96.6125 13.5207 97.6518 13.5207ZM95.9973 25.7813H99.2851V15.1753H95.9973V25.7813Z" fill="#FB8351"/>
<path d="M101.199 30.8724H104.424V24.7208C105.039 25.5269 106.439 26.0784 107.902 26.0784C111.063 26.0784 112.972 23.6603 112.888 20.3087C112.802 16.8935 110.83 14.8359 107.881 14.8359C106.375 14.8359 104.954 15.4935 104.36 16.4693L104.19 15.1754H101.199V30.8724ZM104.487 20.4784C104.487 18.8875 105.548 17.8269 107.075 17.8269C108.624 17.8269 109.599 18.9087 109.599 20.4784C109.599 22.048 108.624 23.1299 107.075 23.1299C105.548 23.1299 104.487 22.0693 104.487 20.4784Z" fill="#FB8351"/>
<path d="M113.235 22.4299C113.32 24.5724 115.018 26.0572 117.69 26.0572C120.256 26.0572 122.039 24.6996 122.039 22.5147C122.039 20.945 121.105 19.9057 119.365 19.4814L117.478 19.0147C116.799 18.845 116.374 18.6754 116.374 18.1238C116.374 17.5724 116.82 17.2117 117.478 17.2117C118.22 17.2117 118.708 17.6996 118.686 18.4208H121.635C121.551 16.2147 119.874 14.8359 117.541 14.8359C115.186 14.8359 113.426 16.2359 113.426 18.3572C113.426 19.7784 114.211 20.945 116.311 21.4966L118.178 21.9845C118.729 22.1329 118.962 22.3875 118.962 22.7481C118.962 23.2784 118.474 23.6178 117.648 23.6178C116.693 23.6178 116.184 23.1724 116.184 22.4299H113.235Z" fill="#FB8351"/>
<path d="M127.038 26.0571C128.331 26.0571 129.626 25.4632 130.284 24.5935L130.496 25.7813H133.571V15.1753H130.305V20.6904C130.305 22.2813 129.838 23.1511 128.331 23.1511C127.165 23.1511 126.401 22.6207 126.401 20.648V15.1753H123.135V21.8358C123.135 24.3602 124.535 26.0571 127.038 26.0571Z" fill="#FB8351"/>
<path d="M138.752 25.7816V19.9907C138.752 18.2089 139.706 17.6998 140.639 17.6998C141.679 17.6998 142.358 18.3362 142.358 19.6514V25.7816H145.582V19.9907C145.582 18.1877 146.515 17.6786 147.448 17.6786C148.488 17.6786 149.188 18.3149 149.188 19.6514V25.7816H152.369V18.8453C152.369 16.4271 151.097 14.8149 148.361 14.8149C146.834 14.8149 145.582 15.5574 145.031 16.7028C144.394 15.5574 143.292 14.8149 141.531 14.8149C140.364 14.8149 139.282 15.3453 138.646 16.1937L138.518 15.1756H135.464V25.7816H138.752Z" fill="#FB8351"/>
<path d="M52.8499 10.0859H49.3711V25.783H59.0014V22.7072H52.8499V10.0859Z" fill="#333237"/>
<path d="M59.334 20.459C59.334 23.8104 61.5825 26.0378 64.9764 26.0378C68.3492 26.0378 70.5977 23.8104 70.5977 20.459C70.5977 17.1074 68.3492 14.8589 64.9764 14.8589C61.5825 14.8589 59.334 17.1074 59.334 20.459ZM62.6219 20.4378C62.6219 18.8468 63.5552 17.7862 64.9764 17.7862C66.3764 17.7862 67.3098 18.8468 67.3098 20.4378C67.3098 22.0499 66.3764 23.1104 64.9764 23.1104C63.5552 23.1104 62.6219 22.0499 62.6219 20.4378Z" fill="#333237"/>
<path d="M71.1224 20.2891C71.1224 23.4922 73.2013 25.6557 76.1497 25.6557C77.571 25.6557 78.8013 25.1467 79.4164 24.3194V25.7831C79.4164 27.2467 78.5043 28.2224 76.8922 28.2224C75.4497 28.2224 74.4527 27.5436 74.3891 26.3345H71.0801C71.377 29.2406 73.6255 31.1922 76.7013 31.1922C80.3285 31.1922 82.6194 28.8376 82.6194 25.1043V15.177H79.671L79.5013 16.2589C78.9073 15.3891 77.6559 14.8164 76.2134 14.8164C73.2436 14.8164 71.1224 17.0436 71.1224 20.2891ZM74.4315 20.2043C74.4315 18.677 75.4497 17.6589 76.7436 17.6589C78.2497 17.6589 79.3527 18.6557 79.3527 20.2043C79.3527 21.7527 78.271 22.8133 76.7649 22.8133C75.471 22.8133 74.4315 21.7527 74.4315 20.2043Z" fill="#333237"/>
<path d="M83.5723 20.459C83.5723 23.8104 85.8207 26.0378 89.2147 26.0378C92.5874 26.0378 94.8359 23.8104 94.8359 20.459C94.8359 17.1074 92.5874 14.8589 89.2147 14.8589C85.8207 14.8589 83.5723 17.1074 83.5723 20.459ZM86.8602 20.4378C86.8602 18.8468 87.7935 17.7862 89.2147 17.7862C90.6147 17.7862 91.548 18.8468 91.548 20.4378C91.548 22.0499 90.6147 23.1104 89.2147 23.1104C87.7935 23.1104 86.8602 22.0499 86.8602 20.4378Z" fill="#333237"/>
</svg>
