<svg width="158" height="35" viewBox="0 0 158 35" fill="none" xmlns="http://www.w3.org/2000/svg">
<path d="M24.6799 27.4267L4.34794 13.4017C2.28754 11.9805 2.98794 9.02133 5.55721 8.32546L27.1665 2.46046C27.6242 2.29529 28.1147 2.24167 28.5974 2.30406C29.08 2.36645 29.5408 2.54305 29.9416 2.8192C30.3422 3.09534 30.6713 3.46308 30.9014 3.89187C31.1315 4.32067 31.256 4.79817 31.2646 5.28473L29.9839 25.1736C29.8321 27.5343 26.7403 28.8479 24.6799 27.4267Z" fill="#E9327C"/>
<path d="M18.2315 30.8893L6.2533 7.46447C5.97949 6.92858 5.859 6.32747 5.90512 5.72745C5.95123 5.12743 6.16217 4.5518 6.51465 4.06405C6.86714 3.5763 7.34748 3.19536 7.90271 2.96325C8.45794 2.73115 9.06648 2.65689 9.66123 2.74868L31.8599 6.17473C32.3709 6.25363 32.8559 6.4527 33.2752 6.75558C33.6943 7.05847 34.0355 7.45652 34.2709 7.91701C34.5062 8.37749 34.6289 8.88725 34.6288 9.40439C34.6287 9.92152 34.5059 10.4313 34.2705 10.8917L24.0444 30.8904C23.7698 31.4248 23.3532 31.8731 22.8403 32.186C22.3275 32.4991 21.7384 32.6645 21.1376 32.6644C20.5368 32.6643 19.9477 32.4986 19.435 32.1855C18.9223 31.8722 18.5059 31.4238 18.2315 30.8893Z" fill="#1DACE3"/>
<path d="M31.2109 6.07366L20.145 4.36572L6.55859 8.05472L11.9816 18.6638L24.6806 27.4268C24.9608 27.618 25.2689 27.7644 25.5941 27.8608L30.4175 18.4281L31.2109 6.07366Z" fill="#001A49"/>
<path d="M87.2617 8.81209C87.2617 8.40076 87.3837 7.99869 87.6122 7.65669C87.8407 7.31469 88.1655 7.04813 88.5456 6.89072C88.9256 6.73333 89.3437 6.69214 89.7471 6.77238C90.1505 6.85263 90.5211 7.0507 90.8119 7.34154C91.1028 7.63239 91.3008 8.00295 91.381 8.40636C91.4613 8.80978 91.4202 9.22794 91.2627 9.60795C91.1053 9.98795 90.8387 10.3128 90.4968 10.5413C90.1548 10.7698 89.7527 10.8918 89.3414 10.8918C88.7915 10.8862 88.2659 10.6652 87.877 10.2764C87.4883 9.88763 87.2673 9.36191 87.2617 8.81209ZM87.6085 11.9083H91.0754V23.4615H87.6085V11.9083Z" fill="#001A49"/>
<path d="M106.047 17.6847C106.087 18.4483 105.976 19.2124 105.72 19.933C105.464 20.6535 105.068 21.3164 104.555 21.8834C104.041 22.4503 103.421 22.9102 102.73 23.2367C102.038 23.5631 101.289 23.7496 100.525 23.7854C99.8825 23.8203 99.2403 23.712 98.6447 23.4682C98.0492 23.2243 97.5154 22.8511 97.0819 22.3756V28.083H93.6162V11.9081H97.0819V12.9938C97.5156 12.5184 98.0494 12.1454 98.6449 11.9018C99.2404 11.6581 99.8826 11.55 100.525 11.5851C101.289 11.6208 102.038 11.8071 102.73 12.1334C103.421 12.4598 104.041 12.9196 104.554 13.4865C105.068 14.0534 105.464 14.7161 105.72 15.4366C105.976 16.1571 106.087 16.9211 106.047 17.6847ZM102.581 17.6847C102.567 17.1438 102.394 16.6189 102.084 16.1757C101.774 15.7325 101.339 15.3907 100.836 15.1932C100.332 14.9955 99.7811 14.951 99.2522 15.0649C98.7232 15.1788 98.2395 15.4461 97.8618 15.8335C97.484 16.2209 97.2289 16.7112 97.1284 17.2428C97.0279 17.7745 97.0865 18.324 97.2967 18.8226C97.5069 19.3211 97.8595 19.7466 98.3104 20.0458C98.7613 20.345 99.2904 20.5044 99.8314 20.5044C100.203 20.5212 100.574 20.4591 100.92 20.3224C101.266 20.1856 101.579 19.9772 101.838 19.711C102.098 19.4447 102.298 19.1265 102.426 18.7772C102.554 18.4281 102.607 18.0556 102.581 17.6847Z" fill="#001A49"/>
<path d="M116.744 19.9935C116.744 22.6512 114.434 23.7834 111.938 23.7834C110.93 23.8746 109.918 23.6612 109.032 23.1708C108.146 22.6805 107.428 21.9357 106.971 21.0328L109.974 19.3237C110.096 19.7411 110.358 20.1039 110.715 20.3514C111.073 20.5989 111.504 20.7162 111.938 20.6837C112.77 20.6837 113.185 20.4287 113.185 19.9674C113.185 18.6958 107.501 19.3668 107.501 15.3684C107.501 12.8501 109.626 11.5796 112.034 11.5796C112.938 11.5513 113.832 11.7656 114.624 12.2004C115.417 12.6351 116.078 13.2743 116.539 14.0514L113.583 15.646C113.453 15.3428 113.237 15.0842 112.962 14.9029C112.687 14.7215 112.364 14.6252 112.034 14.626C111.434 14.626 111.064 14.8527 111.064 15.2732C111.061 16.5992 116.744 15.7208 116.744 19.9935Z" fill="#001A49"/>
<path d="M129.412 11.9082V23.4614H125.946V22.3734C125.546 22.8527 125.037 23.2303 124.463 23.4755C123.889 23.7205 123.265 23.826 122.642 23.7833C120.308 23.7833 118.321 22.1195 118.321 18.9995V11.9082H121.787V18.494C121.758 18.7694 121.789 19.0479 121.879 19.3099C121.968 19.5719 122.113 19.8114 122.305 20.0115C122.496 20.2117 122.729 20.3676 122.986 20.4686C123.244 20.5697 123.521 20.6132 123.798 20.5963C125.068 20.5963 125.951 19.8574 125.951 18.2163V11.9082H129.412Z" fill="#001A49"/>
<path d="M149.277 16.3664V23.4611H145.811V16.6679C145.811 15.513 145.256 14.773 144.148 14.773C142.992 14.773 142.346 15.5822 142.346 16.9456V23.4611H138.879V16.6679C138.879 15.513 138.325 14.773 137.215 14.773C136.06 14.773 135.413 15.5822 135.413 16.9456V23.4611H131.947V11.9079H135.419V12.9664C135.778 12.4951 136.249 12.1213 136.79 11.8791C137.331 11.637 137.924 11.5343 138.515 11.5804C139.108 11.5514 139.699 11.6765 140.23 11.9437C140.76 12.2108 141.212 12.6108 141.542 13.1047C141.926 12.588 142.435 12.1771 143.021 11.9105C143.607 11.6439 144.252 11.5303 144.893 11.5804C147.545 11.5849 149.277 13.4787 149.277 16.3664Z" fill="#001A49"/>
<path d="M152.213 11.8367C153.634 11.8367 154.786 10.6849 154.786 9.26407C154.786 7.84324 153.634 6.69141 152.213 6.69141C150.792 6.69141 149.641 7.84324 149.641 9.26407C149.641 10.6849 150.792 11.8367 152.213 11.8367Z" fill="#001A49"/>
<path d="M39.9434 6.59375H43.4102V23.4612H39.9434V6.59375ZM45.3732 17.6846C45.3694 16.4733 45.7251 15.2882 46.3952 14.2793C47.0653 13.2703 48.0198 12.4828 49.1378 12.0167C50.2558 11.5505 51.4868 11.4266 52.6753 11.6605C53.8638 11.8945 54.9561 12.4758 55.8139 13.331C56.6717 14.1861 57.2565 15.2765 57.4942 16.4642C57.7318 17.652 57.6118 18.8834 57.1492 20.0028C56.6865 21.1222 55.9022 22.0792 54.8953 22.7525C53.8885 23.4258 52.7045 23.7853 51.4932 23.7853C50.6887 23.7938 49.8906 23.6421 49.1455 23.3388C48.4004 23.0355 47.7231 22.5867 47.1534 22.0188C46.5836 21.4508 46.1327 20.775 45.8271 20.0308C45.5214 19.2867 45.3672 18.489 45.3732 17.6846ZM54.1542 17.6846C54.1406 17.162 53.9733 16.6552 53.6731 16.2274C53.373 15.7995 52.9533 15.4696 52.4667 15.279C51.9799 15.0885 51.4479 15.0455 50.937 15.1558C50.4261 15.266 49.9591 15.5245 49.5943 15.8987C49.2294 16.273 48.9832 16.7465 48.886 17.2601C48.789 17.7737 48.8455 18.3044 49.0486 18.7861C49.2515 19.2676 49.5921 19.6787 50.0275 19.9678C50.463 20.2569 50.974 20.4112 51.4966 20.4114C51.8545 20.4216 52.2107 20.3575 52.5425 20.2232C52.8745 20.089 53.1749 19.8874 53.425 19.6311C53.6752 19.375 53.8695 19.0698 53.9958 18.7348C54.122 18.3996 54.1776 18.0421 54.1588 17.6846H54.1542ZM71.4364 11.9046V22.8809C71.4364 26.7626 68.4093 28.4025 65.3368 28.4025C64.2554 28.4841 63.1723 28.2664 62.2062 27.7732C61.2403 27.2801 60.4287 26.5304 59.8606 25.6066L62.8174 23.8964C63.0561 24.3785 63.4363 24.7763 63.9072 25.0367C64.3781 25.2969 64.9172 25.4071 65.4524 25.3527C65.7941 25.3993 66.1418 25.3687 66.4701 25.263C66.7983 25.1572 67.0985 24.9793 67.3487 24.742C67.5989 24.5048 67.7925 24.2144 67.9155 23.8922C68.0385 23.5701 68.0875 23.2245 68.0591 22.8809V21.8179C67.6531 22.3143 67.1364 22.7087 66.5506 22.9695C65.9647 23.2302 65.3258 23.3501 64.6852 23.3195C63.1603 23.2721 61.7136 22.633 60.6516 21.5375C59.5897 20.442 58.9958 18.9763 58.9958 17.4506C58.9958 15.9248 59.5897 14.459 60.6516 13.3635C61.7136 12.2681 63.1603 11.6289 64.6852 11.5816C65.3258 11.5509 65.9647 11.6708 66.5506 11.9316C67.1364 12.1924 67.6531 12.5868 68.0591 13.0833V11.9046H71.4364ZM68.0636 17.45C68.0865 16.892 67.9419 16.3399 67.6485 15.8647C67.3551 15.3895 66.9262 15.0129 66.417 14.7834C65.9079 14.5539 65.3417 14.4819 64.7914 14.5768C64.241 14.6716 63.7316 14.9289 63.3286 15.3156C62.9255 15.7023 62.6474 16.2006 62.53 16.7465C62.4125 17.2926 62.461 17.8612 62.6693 18.3795C62.8775 18.8976 63.2361 19.3417 63.6987 19.6545C64.1613 19.9673 64.707 20.1345 65.2654 20.1349C65.6296 20.1604 65.9951 20.1095 66.3384 19.9854C66.6816 19.8613 66.9951 19.6667 67.2587 19.4141C67.5222 19.1616 67.7301 18.8566 67.8687 18.519C68.0073 18.1812 68.0737 17.8182 68.0636 17.4534V17.45ZM73.3994 17.6767C73.3956 16.4654 73.7513 15.2802 74.4214 14.2713C75.0915 13.2623 76.046 12.4749 77.164 12.0088C78.282 11.5426 79.513 11.4186 80.7015 11.6526C81.89 11.8866 82.9822 12.4679 83.8401 13.3231C84.6979 14.1782 85.2827 15.2686 85.5204 16.4563C85.758 17.644 85.638 18.8755 85.1754 19.9949C84.7128 21.1143 83.9284 22.0713 82.9215 22.7446C81.9147 23.4179 80.7307 23.7774 79.5194 23.7774C78.7156 23.7859 77.9182 23.6344 77.1736 23.3316C76.429 23.0288 75.7521 22.5807 75.1824 22.0136C74.6127 21.4465 74.1618 20.7717 73.8556 20.0283C73.5494 19.2851 73.3944 18.4884 73.3994 17.6846V17.6767ZM82.1804 17.6767C82.1671 17.1539 81.9998 16.6466 81.6997 16.2183C81.3994 15.7901 80.9796 15.46 80.4927 15.2691C80.0057 15.0783 79.4734 15.0353 78.9621 15.1456C78.4509 15.2558 77.9835 15.5144 77.6185 15.8888C77.2535 16.2634 77.007 16.7373 76.91 17.2511C76.8129 17.765 76.8695 18.2962 77.0727 18.7779C77.276 19.2598 77.6168 19.671 78.0526 19.9602C78.4885 20.2493 78.9998 20.4035 79.5228 20.4035C79.8797 20.4129 80.2345 20.3486 80.5653 20.2145C80.8961 20.0805 81.1957 19.8794 81.4452 19.6242C81.6947 19.369 81.8888 19.0649 82.0153 18.7311C82.1419 18.3974 82.1981 18.041 82.1804 17.6846V17.6767Z" fill="#001A49"/>
</svg>
