<svg width="187" height="41" viewBox="0 0 187 41" fill="none" xmlns="http://www.w3.org/2000/svg">
<path d="M29.9417 18.328C29.4355 18.8364 29.0479 19.45 28.8065 20.1249C28.565 20.8 28.4756 21.5199 28.5447 22.2333L28.5207 22.2093C28.5917 23.0492 28.4782 23.8943 28.1882 24.6859C27.8983 25.4773 27.4389 26.1961 26.842 26.7921C26.245 27.388 25.525 27.8468 24.7321 28.1361C23.9393 28.4256 23.0927 28.5389 22.2516 28.468L22.2756 28.492C21.2694 28.3985 20.2588 28.6171 19.3815 29.118C18.5043 29.6189 17.8031 30.3777 17.3738 31.2911C16.9444 32.2044 16.8075 33.2276 16.9819 34.2215C17.1565 35.2152 17.6337 36.1311 18.3486 36.8441C19.0635 37.5572 19.9813 38.0328 20.9768 38.206C21.9725 38.3793 22.9972 38.2417 23.9117 37.8123C24.8261 37.3827 25.5855 36.6821 26.0865 35.8059C26.5874 34.9296 26.8055 33.9205 26.711 32.916L26.7364 32.94C26.6653 32.1003 26.7787 31.2551 27.0686 30.4635C27.3586 29.672 27.8182 28.9532 28.415 28.3572C29.012 27.7613 29.732 27.3025 30.5248 27.0132C31.3177 26.7237 32.1642 26.6104 33.0054 26.6813L32.98 26.6573C33.8019 26.7311 34.6293 26.5965 35.3854 26.2661C36.1413 25.9357 36.8016 25.4201 37.3048 24.7672C37.8081 24.1143 38.1382 23.3449 38.2643 22.5308C38.3905 21.7165 38.3088 20.8837 38.0267 20.1093C37.7446 19.3351 37.2713 18.6444 36.6507 18.1013C36.03 17.5583 35.2821 17.1804 34.4763 17.0028C33.6704 16.8252 32.8326 16.8535 32.0406 17.0851C31.2486 17.3168 30.5281 17.7443 29.9457 18.328H29.9417Z" fill="#394149"/>
<path d="M20.0894 25.3478L20.064 25.3238C20.779 25.3957 21.501 25.3081 22.1779 25.0673C22.8548 24.8265 23.4697 24.4386 23.978 23.9316C24.4862 23.4245 24.8753 22.8109 25.1169 22.1353C25.3587 21.4597 25.447 20.739 25.3755 20.0252L25.4009 20.0492C25.3298 19.2093 25.4434 18.3642 25.7332 17.5726C26.0231 16.7812 26.4827 16.0624 27.0795 15.4664C27.6765 14.8705 28.3965 14.4117 29.1893 14.1224C29.9822 13.8328 30.8287 13.7196 31.6699 13.7905L31.6446 13.7665C32.6509 13.8609 33.6618 13.643 34.5395 13.1426C35.4174 12.6423 36.1191 11.8838 36.5491 10.9706C36.9792 10.0575 37.1166 9.03411 36.9427 8.0401C36.7688 7.04609 36.292 6.12985 35.5772 5.41633C34.8626 4.70282 33.9448 4.22677 32.9491 4.05314C31.9535 3.8795 30.9285 4.01671 30.0137 4.44607C29.099 4.87542 28.3394 5.57602 27.8381 6.4523C27.3369 7.32857 27.1187 8.33786 27.2132 9.3425L27.1892 9.31717C27.2604 10.157 27.1471 11.0023 26.8573 11.7939C26.5675 12.5855 26.1079 13.3044 25.5111 13.9005C24.9141 14.4964 24.194 14.9552 23.401 15.2445C22.608 15.5338 21.7614 15.6469 20.9201 15.5758L20.9442 15.6012C20.2292 15.5293 19.5071 15.6169 18.8303 15.8577C18.1534 16.0984 17.5385 16.4864 17.0302 16.9934C16.5219 17.5005 16.1328 18.1141 15.8911 18.7897C15.6495 19.4653 15.5612 20.186 15.6327 20.8998L15.6086 20.8758C15.6794 21.7156 15.5658 22.5606 15.2758 23.3521C14.9857 24.1434 14.5263 24.8622 13.9295 25.4581C13.3326 26.054 12.6126 26.5126 11.8199 26.8022C11.0272 27.0917 10.1807 27.2052 9.33958 27.1345L9.36362 27.1585C8.35732 27.0641 7.34634 27.282 6.46861 27.7824C5.59089 28.2828 4.88912 29.0412 4.45906 29.9544C4.02899 30.8676 3.89154 31.8909 4.06546 32.8849C4.23939 33.8789 4.71624 34.7952 5.43093 35.5086C6.14563 36.2222 7.0634 36.6982 8.05906 36.8718C9.05473 37.0454 10.0798 36.9082 10.9945 36.4789C11.9091 36.0496 12.6689 35.349 13.1701 34.4728C13.6713 33.5964 13.8895 32.5872 13.795 31.5825L13.8203 31.6065C13.7493 30.7666 13.8628 29.9216 14.1528 29.13C14.4426 28.3385 14.9021 27.6197 15.499 27.0237C16.096 26.4278 16.816 25.969 17.6088 25.6797C18.4017 25.3902 19.2481 25.2769 20.0894 25.3478Z" fill="#394149"/>
<path d="M11.1384 22.6721C11.6446 22.1638 12.0321 21.5502 12.2734 20.8751C12.5147 20.2001 12.6037 19.4801 12.534 18.7667L12.5594 18.7907C12.4884 17.9507 12.6018 17.1053 12.8919 16.3135C13.182 15.5218 13.6418 14.8029 14.239 14.2069C14.8363 13.6109 15.5565 13.1523 16.3497 12.863C17.1429 12.5737 17.9898 12.4608 18.8312 12.5321L18.8058 12.5081C19.8117 12.6022 20.8223 12.3842 21.6996 11.8839C22.577 11.3836 23.2783 10.6253 23.7082 9.71239C24.138 8.79951 24.2753 7.77651 24.1014 6.78287C23.9275 5.78923 23.4507 4.87333 22.7363 4.16008C22.0219 3.44683 21.1044 2.97094 20.1091 2.79731C19.1139 2.62367 18.0891 2.76076 17.1748 3.18986C16.2604 3.61895 15.5008 4.31918 14.9997 5.19504C14.4985 6.07091 14.2801 7.07979 14.3744 8.08408L14.3504 8.06008C14.4214 8.89988 14.3079 9.74504 14.018 10.5366C13.728 11.3281 13.2686 12.0469 12.6717 12.6428C12.0748 13.2388 11.3547 13.6975 10.5619 13.9869C9.76908 14.2763 8.92253 14.3897 8.08133 14.3187L8.10537 14.3427C7.28343 14.2691 6.45618 14.4039 5.70029 14.7345C4.94439 15.065 4.2843 15.5807 3.78119 16.2338C3.27807 16.8867 2.94822 17.6561 2.82217 18.4702C2.69613 19.2845 2.77799 20.1173 3.06015 20.8914C3.34231 21.6657 3.81567 22.3562 4.43634 22.8991C5.05701 23.4422 5.80492 23.8199 6.61076 23.9975C7.41659 24.175 8.25428 24.1466 9.04622 23.915C9.83815 23.6833 10.5587 23.2558 11.1411 22.6721H11.1384Z" fill="#394149"/>
<path d="M52.5098 9.37354H56.4763V28.6442H52.5098V9.37354Z" fill="#394149"/>
<path d="M58.7228 22.0455C58.7174 20.6607 59.1236 19.3052 59.8902 18.1511C60.6569 16.9969 61.7493 16.0959 63.0293 15.5621C64.3093 15.0283 65.7191 14.8857 67.0803 15.1525C68.4415 15.4193 69.6928 16.0833 70.6756 17.0607C71.6584 18.0379 72.3286 19.2844 72.6013 20.6423C72.874 22.0001 72.7369 23.4083 72.2073 24.6883C71.6778 25.9681 70.7796 27.0625 69.6267 27.8324C68.4735 28.6024 67.1177 29.0135 65.7305 29.0135C64.8097 29.024 63.8961 28.8511 63.0429 28.5049C62.1898 28.1588 61.4144 27.6464 60.762 26.9977C60.1094 26.3489 59.5931 25.5768 59.243 24.7265C58.8929 23.8763 58.716 22.9648 58.7228 22.0455ZM68.7715 22.0455C68.7549 21.4485 68.5625 20.8697 68.2183 20.3813C67.874 19.8931 67.3932 19.5168 66.836 19.2999C66.2787 19.0828 65.6698 19.0345 65.0853 19.1612C64.5007 19.2879 63.9665 19.5836 63.5494 20.0117C63.1324 20.4397 62.8509 20.9811 62.7404 21.568C62.6299 22.1548 62.6949 22.7612 62.9277 23.3113C63.1605 23.8615 63.5505 24.3308 64.0489 24.6608C64.5474 24.9908 65.1324 25.1668 65.7305 25.1668C66.1401 25.1777 66.5476 25.1037 66.9272 24.9496C67.3068 24.7955 67.6503 24.5645 67.936 24.2713C68.2217 23.978 68.4435 23.6288 68.5872 23.2457C68.731 22.8627 68.7938 22.454 68.7715 22.0455Z" fill="#394149"/>
<path d="M88.5469 15.4452V27.9786C88.5469 32.4132 85.0824 34.2879 81.5659 34.2879C80.3279 34.3804 79.0881 34.1307 77.9827 33.5663C76.8774 33.0018 75.949 32.1443 75.2995 31.0879L78.6838 29.1346C78.9568 29.6852 79.3918 30.1395 79.9304 30.4367C80.4692 30.7338 81.0859 30.8596 81.6982 30.7972C82.0895 30.8514 82.488 30.817 82.8642 30.6966C83.2403 30.5762 83.5846 30.3728 83.8715 30.1018C84.1584 29.8306 84.3805 29.4986 84.5215 29.13C84.6624 28.7616 84.7185 28.3663 84.6858 27.9732V26.7666C84.2213 27.3339 83.6302 27.7847 82.9596 28.0827C82.289 28.3807 81.5579 28.5176 80.8247 28.4826C79.0802 28.4276 77.4256 27.6972 76.2111 26.4458C74.9965 25.1944 74.3174 23.5203 74.3174 21.7779C74.3174 20.0355 74.9965 18.3614 76.2111 17.11C77.4256 15.8586 79.0802 15.1282 80.8247 15.0732C81.5579 15.0382 82.289 15.1751 82.9596 15.4731C83.6302 15.7711 84.2213 16.2219 84.6858 16.7892V15.4426L88.5469 15.4452ZM84.6871 21.7799C84.7138 21.1418 84.5485 20.5102 84.2126 19.9666C83.8767 19.4228 83.3855 18.992 82.8023 18.7295C82.219 18.4668 81.5705 18.3846 80.94 18.4931C80.3095 18.6016 79.726 18.896 79.2644 19.3386C78.803 19.781 78.4847 20.3511 78.3505 20.9756C78.2164 21.6002 78.2725 22.2506 78.5118 22.843C78.751 23.4354 79.1624 23.9428 79.6928 24.2999C80.2233 24.657 80.8487 24.8474 81.4885 24.8466C81.9053 24.8756 82.3235 24.8172 82.7162 24.6751C83.109 24.533 83.4676 24.3102 83.7689 24.0214C84.0702 23.7324 84.3077 23.3838 84.4658 22.9976C84.6239 22.6116 84.6994 22.1968 84.6871 21.7799Z" fill="#394149"/>
<path d="M90.7932 22.0455C90.7877 20.6607 91.1938 19.3052 91.9606 18.1511C92.7272 16.9969 93.8196 16.0959 95.0996 15.5621C96.3796 15.0283 97.7894 14.8857 99.1506 15.1525C100.512 15.4193 101.763 16.0833 102.746 17.0607C103.729 18.0379 104.399 19.2844 104.672 20.6423C104.944 22.0001 104.807 23.4083 104.278 24.6883C103.748 25.9681 102.85 27.0625 101.697 27.8324C100.544 28.6024 99.188 29.0135 97.8008 29.0135C96.88 29.024 95.9663 28.8511 95.1132 28.5049C94.2601 28.1588 93.4847 27.6464 92.8323 26.9977C92.1797 26.3489 91.6634 25.5768 91.3133 24.7265C90.9632 23.8763 90.7863 22.9648 90.7932 22.0455ZM100.842 22.0455C100.825 21.4485 100.633 20.8697 100.289 20.3813C99.9443 19.8931 99.4635 19.5168 98.9063 19.2999C98.349 19.0828 97.74 19.0345 97.1556 19.1612C96.571 19.2879 96.0368 19.5836 95.6197 20.0117C95.2027 20.4397 94.9212 20.9811 94.8106 21.568C94.7 22.1548 94.7652 22.7612 94.998 23.3113C95.2308 23.8615 95.6208 24.3308 96.1192 24.6608C96.6178 24.9908 97.2026 25.1668 97.8008 25.1668C98.2104 25.1777 98.6179 25.1037 98.9974 24.9496C99.3771 24.7955 99.7206 24.5645 100.006 24.2713C100.292 23.978 100.514 23.6288 100.658 23.2457C100.801 22.8627 100.864 22.454 100.842 22.0455Z" fill="#394149"/>
<path d="M106.658 11.9082C106.658 11.4383 106.798 10.9789 107.059 10.5882C107.321 10.1975 107.693 9.89292 108.127 9.7131C108.562 9.53326 109.041 9.4862 109.503 9.57788C109.964 9.66956 110.388 9.89586 110.721 10.2281C111.054 10.5604 111.281 10.9838 111.372 11.4447C111.464 11.9056 111.417 12.3833 111.237 12.8175C111.057 13.2516 110.752 13.6227 110.36 13.8838C109.969 14.1449 109.509 14.2842 109.038 14.2842C108.409 14.278 107.807 14.0257 107.362 13.5814C106.917 13.1372 106.664 12.5364 106.658 11.9082ZM107.059 15.4456H111.027V28.6456H107.054L107.059 15.4456Z" fill="#394149"/>
<path d="M128.154 22.0455C128.199 22.9179 128.072 23.7907 127.779 24.6138C127.486 25.4369 127.032 26.1939 126.445 26.8415C125.858 27.489 125.148 28.0143 124.357 28.3871C123.565 28.7598 122.708 28.9727 121.834 29.0135C121.099 29.0535 120.364 28.9298 119.683 28.6513C119.002 28.3726 118.391 27.9462 117.895 27.4029V33.9242H113.929V15.4455H117.895V16.6855C118.391 16.1426 119.002 15.7165 119.683 15.4382C120.364 15.1598 121.099 15.0362 121.834 15.0762C122.708 15.1169 123.566 15.3297 124.357 15.7025C125.149 16.0753 125.859 16.6006 126.446 17.2483C127.033 17.8961 127.487 18.6534 127.78 19.4767C128.073 20.2999 128.2 21.173 128.154 22.0455ZM124.187 22.0455C124.172 21.4278 123.974 20.8283 123.619 20.3221C123.264 19.8159 122.767 19.4255 122.191 19.1999C121.615 18.9742 120.984 18.9231 120.379 19.0533C119.774 19.1833 119.221 19.4886 118.789 19.931C118.357 20.3735 118.065 20.9333 117.95 21.5406C117.835 22.1478 117.902 22.7753 118.142 23.3447C118.383 23.9142 118.786 24.4001 119.302 24.7418C119.818 25.0834 120.423 25.2657 121.042 25.2655C121.467 25.2845 121.891 25.2134 122.287 25.0571C122.682 24.901 123.04 24.663 123.337 24.359C123.634 24.0549 123.863 23.6917 124.01 23.293C124.156 22.8943 124.217 22.4691 124.187 22.0455Z" fill="#394149"/>
<path d="M140.394 24.6841C140.394 27.7201 137.751 29.0135 134.896 29.0135C133.742 29.1177 132.584 28.8743 131.57 28.3141C130.557 27.7541 129.735 26.9035 129.21 25.8721L132.647 23.9188C132.786 24.3955 133.084 24.8103 133.493 25.0936C133.901 25.3771 134.395 25.5121 134.891 25.4761C135.841 25.4761 136.318 25.1855 136.318 24.6588C136.318 23.2055 129.813 23.9721 129.813 19.4055C129.813 16.5268 132.246 15.0761 134.996 15.0761C136.03 15.0435 137.053 15.2883 137.96 15.7849C138.866 16.2817 139.624 17.0121 140.151 17.9001L136.767 19.7215C136.619 19.3757 136.372 19.0812 136.056 18.8747C135.741 18.6681 135.373 18.5588 134.996 18.5601C134.308 18.5601 133.885 18.8268 133.885 19.2988C133.89 20.8041 140.394 19.8001 140.394 24.6841Z" fill="#394149"/>
<path d="M154.883 15.4453V28.6453H150.916V27.404C150.458 27.9517 149.877 28.3833 149.22 28.6633C148.563 28.9433 147.85 29.0637 147.137 29.0146C144.466 29.0146 142.195 27.1146 142.195 23.548V15.4453H146.162V22.968C146.129 23.2824 146.165 23.6002 146.267 23.8993C146.369 24.1985 146.536 24.4718 146.755 24.7002C146.974 24.9286 147.24 25.1066 147.535 25.222C147.829 25.3373 148.145 25.3872 148.462 25.368C149.916 25.368 150.92 24.524 150.92 22.6493V15.4493L154.883 15.4453Z" fill="#394149"/>
<path d="M177.627 20.54V28.644H173.661V20.8826C173.661 19.5626 173.026 18.7186 171.758 18.7186C170.436 18.7186 169.694 19.6426 169.694 21.2V28.644H165.729V20.8826C165.729 19.5626 165.095 18.7186 163.825 18.7186C162.502 18.7186 161.762 19.6426 161.762 21.2V28.644H157.796V15.444H161.762V16.6573C162.174 16.119 162.713 15.6921 163.332 15.4157C163.951 15.1392 164.63 15.022 165.306 15.0746C165.984 15.0414 166.66 15.1845 167.268 15.4897C167.874 15.7948 168.391 16.2518 168.769 16.816C169.208 16.2257 169.79 15.7564 170.461 15.4518C171.131 15.1473 171.869 15.0176 172.603 15.0746C175.639 15.076 177.627 17.24 177.627 20.54Z" fill="#394149"/>
<path d="M180.983 15.3641C182.608 15.3641 183.926 14.0484 183.926 12.4255C183.926 10.8025 182.608 9.48682 180.983 9.48682C179.357 9.48682 178.039 10.8025 178.039 12.4255C178.039 14.0484 179.357 15.3641 180.983 15.3641Z" fill="#394149"/>
</svg>
