<svg width="154" height="39" viewBox="0 0 154 39" fill="none" xmlns="http://www.w3.org/2000/svg">
<g clip-path="url(#clip0_1153_17244)">
<path d="M1.7832 28.6819L1.78321 9.89404L11.1771 15.1129V23.5152L18.6923 27.7425L26.2074 23.5152V15.1129L35.6014 9.89404V28.6819L18.6923 38.0758L1.7832 28.6819Z" fill="#192657"/>
<path fill-rule="evenodd" clip-rule="evenodd" d="M6.48018 12.5034L1.7832 9.89394L18.6923 0.5L35.6014 9.89394L30.9044 12.5034V26.3333L18.6923 33.3788L6.48017 26.3333L6.48018 12.5034ZM30.3956 12.7861L26.2074 15.1128V15.0606L18.6923 10.8333L11.1771 15.0606V15.1128L6.98901 12.7861V26.0443L18.6923 32.7962L30.3956 26.0443V12.7861Z" fill="url(#paint0_linear_1153_17244)"/>
<path d="M44.6045 27.1968V11.415H47.5805V24.4913H54.7951V27.1968H44.6045Z" fill="#192657"/>
<path d="M61.2202 27.5125C60.108 27.5125 59.1085 27.2871 58.2217 26.8361C57.3349 26.3852 56.636 25.7314 56.125 24.8747C55.6139 24.018 55.3584 22.9884 55.3584 21.786V21.4252C55.3584 20.2228 55.6139 19.1932 56.125 18.3365C56.636 17.4798 57.3349 16.826 58.2217 16.3751C59.1085 15.9241 60.108 15.6987 61.2202 15.6987C62.3325 15.6987 63.332 15.9241 64.2188 16.3751C65.1056 16.826 65.8045 17.4798 66.3155 18.3365C66.8265 19.1932 67.0821 20.2228 67.0821 21.4252V21.786C67.0821 22.9884 66.8265 24.018 66.3155 24.8747C65.8045 25.7314 65.1056 26.3852 64.2188 26.8361C63.332 27.2871 62.3325 27.5125 61.2202 27.5125ZM61.2202 24.9874C62.092 24.9874 62.8135 24.7094 63.3846 24.1532C63.9558 23.5821 64.2413 22.7704 64.2413 21.7183V21.4929C64.2413 20.4408 63.9558 19.6366 63.3846 19.0805C62.8285 18.5094 62.107 18.2238 61.2202 18.2238C60.3485 18.2238 59.627 18.5094 59.0559 19.0805C58.4847 19.6366 58.1992 20.4408 58.1992 21.4929V21.7183C58.1992 22.7704 58.4847 23.5821 59.0559 24.1532C59.627 24.7094 60.3485 24.9874 61.2202 24.9874Z" fill="#192657"/>
<path d="M68.1484 21.6507V21.29C68.1484 20.1176 68.3813 19.1181 68.8473 18.2914C69.3132 17.4497 69.9295 16.8109 70.696 16.3751C71.4776 15.9241 72.3268 15.6987 73.2436 15.6987C74.2657 15.6987 75.0398 15.8791 75.5658 16.2398C76.0919 16.6005 76.4752 16.9763 76.7156 17.3671H77.1215V16.0143H79.9171V29.1809C79.9171 29.9474 79.6916 30.5561 79.2407 31.0071C78.7898 31.473 78.1886 31.706 77.4371 31.706H69.952V29.226H76.4451C76.8659 29.226 77.0764 29.0005 77.0764 28.5496V25.6412H76.6705C76.5202 25.8817 76.3098 26.1297 76.0393 26.3852C75.7687 26.6257 75.408 26.8286 74.9571 26.994C74.5062 27.1593 73.935 27.242 73.2436 27.242C72.3268 27.242 71.4776 27.024 70.696 26.5881C69.9295 26.1372 69.3132 25.4984 68.8473 24.6718C68.3813 23.8301 68.1484 22.8231 68.1484 21.6507ZM74.0553 24.762C74.927 24.762 75.656 24.4839 76.2422 23.9278C76.8284 23.3717 77.1215 22.5901 77.1215 21.5831V21.3576C77.1215 20.3355 76.8284 19.554 76.2422 19.0129C75.671 18.4568 74.9421 18.1787 74.0553 18.1787C73.1835 18.1787 72.4545 18.4568 71.8684 19.0129C71.2822 19.554 70.9891 20.3355 70.9891 21.3576V21.5831C70.9891 22.5901 71.2822 23.3717 71.8684 23.9278C72.4545 24.4839 73.1835 24.762 74.0553 24.762Z" fill="#192657"/>
<path d="M87.3725 27.5125C86.2602 27.5125 85.2607 27.2871 84.3739 26.8361C83.4871 26.3852 82.7882 25.7314 82.2772 24.8747C81.7662 24.018 81.5107 22.9884 81.5107 21.786V21.4252C81.5107 20.2228 81.7662 19.1932 82.2772 18.3365C82.7882 17.4798 83.4871 16.826 84.3739 16.3751C85.2607 15.9241 86.2602 15.6987 87.3725 15.6987C88.4847 15.6987 89.4842 15.9241 90.371 16.3751C91.2578 16.826 91.9567 17.4798 92.4677 18.3365C92.9788 19.1932 93.2343 20.2228 93.2343 21.4252V21.786C93.2343 22.9884 92.9788 24.018 92.4677 24.8747C91.9567 25.7314 91.2578 26.3852 90.371 26.8361C89.4842 27.2871 88.4847 27.5125 87.3725 27.5125ZM87.3725 24.9874C88.2442 24.9874 88.9657 24.7094 89.5368 24.1532C90.108 23.5821 90.3936 22.7704 90.3936 21.7183V21.4929C90.3936 20.4408 90.108 19.6366 89.5368 19.0805C88.9807 18.5094 88.2593 18.2238 87.3725 18.2238C86.5007 18.2238 85.7793 18.5094 85.2081 19.0805C84.637 19.6366 84.3514 20.4408 84.3514 21.4929V21.7183C84.3514 22.7704 84.637 23.5821 85.2081 24.1532C85.7793 24.7094 86.5007 24.9874 87.3725 24.9874Z" fill="#192657"/>
<path d="M94.8423 27.1971V16.0145H97.683V27.1971H94.8423ZM96.2626 14.7069C95.7516 14.7069 95.3157 14.5416 94.955 14.2109C94.6093 13.8802 94.4365 13.4443 94.4365 12.9033C94.4365 12.3622 94.6093 11.9263 94.955 11.5956C95.3157 11.265 95.7516 11.0996 96.2626 11.0996C96.7887 11.0996 97.2246 11.265 97.5703 11.5956C97.916 11.9263 98.0888 12.3622 98.0888 12.9033C98.0888 13.4443 97.916 13.8802 97.5703 14.2109C97.2246 14.5416 96.7887 14.7069 96.2626 14.7069Z" fill="#192657"/>
<path d="M99.8164 31.706V16.0143H102.612V17.3671H103.018C103.273 16.9312 103.671 16.5479 104.213 16.2172C104.754 15.8715 105.528 15.6987 106.535 15.6987C107.437 15.6987 108.271 15.9241 109.037 16.3751C109.804 16.8109 110.42 17.4572 110.886 18.314C111.352 19.1707 111.585 20.2078 111.585 21.4252V21.786C111.585 23.0034 111.352 24.0405 110.886 24.8972C110.42 25.754 109.804 26.4078 109.037 26.8587C108.271 27.2946 107.437 27.5125 106.535 27.5125C105.858 27.5125 105.287 27.4298 104.821 27.2645C104.37 27.1142 104.002 26.9188 103.717 26.6783C103.446 26.4228 103.228 26.1673 103.063 25.9118H102.657V31.706H99.8164ZM105.678 25.0325C106.565 25.0325 107.294 24.7544 107.865 24.1983C108.451 23.6272 108.744 22.8005 108.744 21.7183V21.4929C108.744 20.4107 108.451 19.5915 107.865 19.0354C107.279 18.4643 106.55 18.1787 105.678 18.1787C104.806 18.1787 104.077 18.4643 103.491 19.0354C102.905 19.5915 102.612 20.4107 102.612 21.4929V21.7183C102.612 22.8005 102.905 23.6272 103.491 24.1983C104.077 24.7544 104.806 25.0325 105.678 25.0325Z" fill="#192657"/>
<path d="M117.823 27.5125C116.365 27.5125 115.17 27.1969 114.238 26.5656C113.307 25.9343 112.743 25.0325 112.547 23.8601L115.163 23.1838C115.268 23.7098 115.441 24.1232 115.681 24.4238C115.937 24.7244 116.245 24.9423 116.606 25.0776C116.981 25.1978 117.387 25.258 117.823 25.258C118.484 25.258 118.973 25.1452 119.289 24.9198C119.604 24.6793 119.762 24.3862 119.762 24.0405C119.762 23.6948 119.612 23.4318 119.311 23.2514C119.011 23.056 118.53 22.8982 117.868 22.778L117.237 22.6652C116.455 22.5149 115.741 22.312 115.095 22.0565C114.449 21.786 113.93 21.4177 113.539 20.9518C113.149 20.4858 112.953 19.8846 112.953 19.1481C112.953 18.0359 113.359 17.1867 114.171 16.6005C114.982 15.9993 116.05 15.6987 117.372 15.6987C118.62 15.6987 119.657 15.9768 120.483 16.5329C121.31 17.089 121.851 17.818 122.107 18.7198L119.469 19.5314C119.349 18.9603 119.101 18.5544 118.725 18.314C118.364 18.0735 117.913 17.9532 117.372 17.9532C116.831 17.9532 116.418 18.0509 116.132 18.2463C115.847 18.4267 115.704 18.6822 115.704 19.0129C115.704 19.3736 115.854 19.6441 116.155 19.8245C116.455 19.9898 116.861 20.1176 117.372 20.2078L118.003 20.3205C118.845 20.4708 119.604 20.6737 120.281 20.9292C120.972 21.1697 121.513 21.5229 121.904 21.9889C122.31 22.4398 122.513 23.056 122.513 23.8376C122.513 25.01 122.084 25.9193 121.227 26.5656C120.386 27.1969 119.251 27.5125 117.823 27.5125Z" fill="#192657"/>
<path d="M128.248 27.3771C127.377 27.3771 126.61 27.1817 125.949 26.791C125.303 26.3851 124.799 25.829 124.438 25.1226C124.078 24.4162 123.897 23.6045 123.897 22.6877V16.0142H126.738V22.4622C126.738 23.3039 126.941 23.9352 127.347 24.356C127.767 24.7769 128.361 24.9873 129.128 24.9873C129.999 24.9873 130.676 24.7017 131.157 24.1306C131.638 23.5444 131.878 22.7328 131.878 21.6957V16.0142H134.719V27.1968H131.923V25.7313H131.518C131.337 26.1071 130.999 26.4753 130.503 26.836C130.007 27.1968 129.255 27.3771 128.248 27.3771Z" fill="#192657"/>
<path d="M136.866 27.1969V16.0143H139.661V17.2318H140.067C140.262 16.856 140.586 16.5329 141.036 16.2623C141.487 15.9768 142.081 15.834 142.818 15.834C143.614 15.834 144.253 15.9918 144.734 16.3074C145.215 16.608 145.583 17.0063 145.839 17.5023H146.244C146.5 17.0214 146.861 16.6231 147.327 16.3074C147.793 15.9918 148.454 15.834 149.311 15.834C150.002 15.834 150.626 15.9843 151.182 16.2849C151.753 16.5704 152.204 17.0138 152.535 17.6151C152.88 18.2012 153.053 18.9452 153.053 19.8471V27.1969H150.212V20.05C150.212 19.4337 150.055 18.9753 149.739 18.6747C149.423 18.3591 148.98 18.2012 148.409 18.2012C147.763 18.2012 147.259 18.4117 146.898 18.8325C146.553 19.2383 146.38 19.8245 146.38 20.5911V27.1969H143.539V20.05C143.539 19.4337 143.381 18.9753 143.066 18.6747C142.75 18.3591 142.307 18.2012 141.735 18.2012C141.089 18.2012 140.586 18.4117 140.225 18.8325C139.879 19.2383 139.706 19.8245 139.706 20.5911V27.1969H136.866Z" fill="#192657"/>
</g>
<defs>
<linearGradient id="paint0_linear_1153_17244" x1="6.48017" y1="7.80638" x2="31.8438" y2="7.80639" gradientUnits="userSpaceOnUse">
<stop stop-color="#64C2DB"/>
<stop offset="0.307292" stop-color="#7476ED"/>
<stop offset="0.604167" stop-color="#C994DF"/>
<stop offset="1" stop-color="#E56F8C"/>
</linearGradient>
<clipPath id="clip0_1153_17244">
<rect width="153" height="38" fill="white" transform="translate(0.904297 0.5)"/>
</clipPath>
</defs>
</svg>
