<svg width="144" height="37" viewBox="0 0 144 37" fill="none" xmlns="http://www.w3.org/2000/svg">
<g clip-path="url(#clip0_1153_17355)">
<path d="M48.3388 9.5127H45.0254V24.4637H54.1981V21.5342H48.3388V9.5127Z" fill="#243A5A"/>
<path d="M54.5137 19.3925C54.5137 22.5848 56.6553 24.7062 59.8879 24.7062C63.1004 24.7062 65.242 22.5848 65.242 19.3925C65.242 16.2002 63.1004 14.0586 59.8879 14.0586C56.6553 14.0586 54.5137 16.2002 54.5137 19.3925ZM57.6453 19.3723C57.6453 17.857 58.5343 16.8468 59.8879 16.8468C61.2214 16.8468 62.1104 17.857 62.1104 19.3723C62.1104 20.9078 61.2214 21.918 59.8879 21.918C58.5343 21.918 57.6453 20.9078 57.6453 19.3723Z" fill="#243A5A"/>
<path d="M65.7426 19.2307C65.7426 22.2815 67.7226 24.3423 70.5309 24.3423C71.8847 24.3423 73.0565 23.8574 73.6423 23.0695V24.4635C73.6423 25.8576 72.7736 26.787 71.2381 26.787C69.8642 26.787 68.9146 26.1405 68.854 24.9888H65.7021C65.985 27.7568 68.1267 29.6155 71.0562 29.6155C74.5111 29.6155 76.6932 27.3729 76.6932 23.817V14.3615H73.8848L73.7232 15.3919C73.1575 14.5635 71.9654 14.0181 70.5916 14.0181C67.763 14.0181 65.7426 16.1395 65.7426 19.2307ZM68.8944 19.1499C68.8944 17.6951 69.8642 16.7254 71.0966 16.7254C72.5311 16.7254 73.5818 17.675 73.5818 19.1499C73.5818 20.6248 72.5513 21.635 71.1168 21.635C69.8844 21.635 68.8944 20.6248 68.8944 19.1499Z" fill="#243A5A"/>
<path d="M77.6006 19.3925C77.6006 22.5848 79.7422 24.7062 82.9749 24.7062C86.1874 24.7062 88.3289 22.5848 88.3289 19.3925C88.3289 16.2002 86.1874 14.0586 82.9749 14.0586C79.7422 14.0586 77.6006 16.2002 77.6006 19.3925ZM80.7323 19.3723C80.7323 17.857 81.6212 16.8468 82.9749 16.8468C84.3083 16.8468 85.1973 17.857 85.1973 19.3723C85.1973 20.9078 84.3083 21.918 82.9749 21.918C81.6212 21.918 80.7323 20.9078 80.7323 19.3723Z" fill="#243A5A"/>
<path d="M91.0113 12.7857C91.9811 12.7857 92.7691 11.9977 92.7691 11.0078C92.7691 10.0178 91.9811 9.25 91.0113 9.25C90.0213 9.25 89.2334 10.0178 89.2334 11.0078C89.2334 11.9977 90.0213 12.7857 91.0113 12.7857ZM89.4354 24.4637H92.5671V14.3616H89.4354V24.4637Z" fill="#243A5A"/>
<path d="M94.3906 29.3128H97.4616V23.4537C98.0472 24.2214 99.381 24.7467 100.775 24.7467C103.785 24.7467 105.603 22.4435 105.523 19.2512C105.442 15.9984 103.563 14.0386 100.755 14.0386C99.32 14.0386 97.9667 14.6649 97.4006 15.5943L97.2387 14.3619H94.3906V29.3128ZM97.5218 19.4128C97.5218 17.8976 98.5319 16.8874 99.9869 16.8874C101.461 16.8874 102.391 17.9177 102.391 19.4128C102.391 20.908 101.461 21.9384 99.9869 21.9384C98.5319 21.9384 97.5218 20.9282 97.5218 19.4128Z" fill="#243A5A"/>
<path d="M105.854 21.2716C105.934 23.3123 107.551 24.7265 110.096 24.7265C112.541 24.7265 114.239 23.4334 114.239 21.3525C114.239 19.8574 113.35 18.8674 111.692 18.4632L109.895 18.0188C109.248 17.8572 108.844 17.6955 108.844 17.1702C108.844 16.6449 109.268 16.3014 109.895 16.3014C110.602 16.3014 111.066 16.7661 111.046 17.453H113.855C113.773 15.3518 112.178 14.0386 109.955 14.0386C107.713 14.0386 106.036 15.3721 106.036 17.3924C106.036 18.7461 106.783 19.8574 108.783 20.3827L110.561 20.8473C111.086 20.9887 111.308 21.2312 111.308 21.5746C111.308 22.0798 110.844 22.4031 110.056 22.4031C109.147 22.4031 108.662 21.9788 108.662 21.2716H105.854Z" fill="#243A5A"/>
<path d="M119.001 24.7264C120.234 24.7264 121.466 24.1607 122.092 23.3324L122.295 24.4638H125.224V14.3618H122.112V19.6149C122.112 21.1301 121.668 21.9585 120.234 21.9585C119.122 21.9585 118.395 21.4534 118.395 19.5745V14.3618H115.283V20.7058C115.283 23.1102 116.617 24.7264 119.001 24.7264Z" fill="#243A5A"/>
<path d="M130.158 24.4635V18.9479C130.158 17.2507 131.068 16.7658 131.957 16.7658C132.946 16.7658 133.593 17.3719 133.593 18.6246V24.4635H136.664V18.9479C136.664 17.2305 137.553 16.7456 138.442 16.7456C139.432 16.7456 140.098 17.3517 140.098 18.6246V24.4635H143.13V17.8568C143.13 15.5536 141.917 14.0181 139.31 14.0181C137.856 14.0181 136.664 14.7251 136.139 15.8162C135.533 14.7251 134.482 14.0181 132.805 14.0181C131.694 14.0181 130.663 14.5231 130.058 15.3313L129.936 14.3615H127.026V24.4635H130.158Z" fill="#243A5A"/>
<path d="M0.625 18.5C0.625 9.77901 0.625 5.41852 3.33426 2.70926C6.04352 0 10.404 0 19.125 0C27.846 0 32.2064 0 34.9158 2.70926C37.625 5.41852 37.625 9.77901 37.625 18.5C37.625 27.221 37.625 31.5814 34.9158 34.2908C32.2064 37 27.846 37 19.125 37C10.404 37 6.04352 37 3.33426 34.2908C0.625 31.5814 0.625 27.221 0.625 18.5Z" fill="#243A5A"/>
<path d="M22.8251 24.0498C23.336 24.0498 23.7594 24.468 23.658 24.9687C23.4786 25.853 23.0429 26.6726 22.3954 27.3201C21.5281 28.1875 20.3517 28.6748 19.1251 28.6748C17.8984 28.6748 16.7221 28.1875 15.8547 27.3201C15.2072 26.6726 14.7716 25.853 14.5923 24.9687C14.4907 24.468 14.9142 24.0498 15.4251 24.0498H22.8251Z" fill="#2DF8BB"/>
<path d="M24.77 16.4432C24.2765 16.5753 23.9743 17.0916 24.2245 17.537C24.4879 18.0058 24.8521 18.4149 25.2953 18.7324C25.9911 19.231 26.8382 19.473 27.6924 19.4169C28.5466 19.361 29.3549 19.0106 29.9797 18.4254C30.6045 17.8403 31.007 17.0565 31.1187 16.2078C31.2305 15.3592 31.0445 14.498 30.5925 13.771C30.1404 13.0442 29.4503 12.4965 28.6397 12.2213C27.8291 11.9461 26.9483 11.9605 26.1471 12.2621C25.6369 12.4541 25.1792 12.755 24.8035 13.1396C24.4465 13.5051 24.6048 14.082 25.0472 14.3374L25.5165 14.6083C26.2301 15.0204 26.0894 16.0896 25.2933 16.3029L24.77 16.4432Z" fill="#2DF8BB"/>
<path d="M13.48 16.4432C13.9735 16.5753 14.2757 17.0916 14.0255 17.537C13.7621 18.0058 13.3979 18.4149 12.9548 18.7324C12.259 19.231 11.4118 19.473 10.5577 19.4169C9.70345 19.361 8.8951 19.0106 8.27032 18.4254C7.64555 17.8403 7.243 17.0565 7.13127 16.2078C7.01954 15.3592 7.20553 14.498 7.65757 13.771C8.1096 13.0442 8.7997 12.4965 9.61029 12.2213C10.4209 11.9461 11.3018 11.9605 12.103 12.2621C12.6131 12.4541 13.0709 12.755 13.4466 13.1396C13.8036 13.5051 13.6452 14.082 13.2028 14.3374L12.7335 14.6083C12.0199 15.0204 12.1607 16.0896 12.9567 16.3029L13.48 16.4432Z" fill="#2DF8BB"/>
</g>
<defs>
<clipPath id="clip0_1153_17355">
<rect width="143.375" height="37" fill="white" transform="translate(0.625)"/>
</clipPath>
</defs>
</svg>
