<svg width="154" height="47" viewBox="0 0 154 47" fill="none" xmlns="http://www.w3.org/2000/svg">
<path d="M24.4491 2.41016C21.6796 2.41016 18.9371 2.95572 16.3784 4.01551C13.8196 5.07542 11.4948 6.62883 9.53638 8.58716C7.57805 10.5456 6.02464 12.8704 4.96473 15.4292C3.90494 17.9879 3.35938 20.7304 3.35938 23.4999C3.35938 26.2694 3.90494 29.0119 4.96473 31.5706C6.02464 34.1294 7.57805 36.4542 9.53638 38.4126C11.4948 40.371 13.8196 41.9244 16.3784 42.9843C18.9371 44.0441 21.6796 44.5896 24.4491 44.5896V34.0448C23.0643 34.0448 21.6931 33.772 20.4137 33.242C19.1344 32.7121 17.9719 31.9354 16.9927 30.9563C16.0136 29.9771 15.2369 28.8146 14.707 27.5353C14.177 26.2559 13.9042 24.8847 13.9042 23.4999C13.9042 22.1151 14.177 20.7439 14.707 19.4645C15.2369 18.1852 16.0136 17.0227 16.9927 16.0435C17.9719 15.0644 19.1344 14.2877 20.4137 13.7578C21.6931 13.2277 23.0643 12.955 24.4491 12.955V2.41016Z" fill="#0F52FF"/>
<path d="M24.4498 30.53C28.3324 30.53 31.4797 27.3827 31.4797 23.5001C31.4797 19.6175 28.3324 16.4702 24.4498 16.4702C20.5672 16.4702 17.4199 19.6175 17.4199 23.5001C17.4199 27.3827 20.5672 30.53 24.4498 30.53Z" fill="#0F52FF"/>
<path d="M3.35938 23.5C3.35938 26.2695 3.90494 29.012 4.96473 31.5707C6.02464 34.1295 7.57805 36.4543 9.53638 38.4127C11.4948 40.3711 13.8196 41.9245 16.3784 42.9844C18.9371 44.0442 21.6796 44.5897 24.4491 44.5897C27.2186 44.5897 29.9611 44.0442 32.5199 42.9844C35.0786 41.9245 37.4034 40.3711 39.3618 38.4127C41.3202 36.4543 42.8736 34.1295 43.9335 31.5707C44.9933 29.012 45.5388 26.2695 45.5388 23.5H34.994C34.994 24.8848 34.7213 26.256 34.1912 27.5354C33.6614 28.8147 32.8846 29.9772 31.9055 30.9564C30.9263 31.9355 29.7638 32.7122 28.4845 33.2421C27.2051 33.7721 25.8339 34.0449 24.4491 34.0449C23.0643 34.0449 21.6931 33.7721 20.4137 33.2421C19.1344 32.7122 17.9719 31.9355 16.9927 30.9564C16.0136 29.9772 15.2369 28.8147 14.707 27.5354C14.177 26.256 13.9042 24.8848 13.9042 23.5H3.35938Z" fill="#5BD0F4"/>
<path d="M31.4788 23.5002C31.4788 21.6358 30.7381 19.8477 29.4198 18.5293C28.1014 17.2109 26.3134 16.4702 24.4489 16.4702C22.5845 16.4702 20.7964 17.2109 19.478 18.5293C18.1596 19.8477 17.4189 21.6358 17.4189 23.5002H24.4489H31.4788Z" fill="#5BD0F4"/>
<path d="M56.5529 15.5762H53.9336V30.1281H56.5529V15.5762Z" fill="#0F52FF"/>
<path d="M58.2637 24.9725C58.2637 28.3402 60.592 30.419 63.6687 30.419C66.7454 30.419 69.0737 28.3402 69.0737 24.9725C69.0737 21.6047 66.7454 19.5259 63.6687 19.5259C60.592 19.5259 58.2637 21.6047 58.2637 24.9725ZM60.883 24.9725C60.883 22.9768 62.0472 21.8126 63.6687 21.8126C65.2902 21.8126 66.4543 22.9768 66.4543 24.9725C66.4543 26.9682 65.2902 28.1323 63.6687 28.1323C62.0472 28.1323 60.883 26.9682 60.883 24.9725Z" fill="#0F52FF"/>
<path d="M78.434 19.8169V21.2097H78.2261C77.6024 20.3158 76.6046 19.5259 74.8168 19.5259C72.3637 19.5259 70.1602 21.6047 70.1602 24.8061C70.1602 28.0076 72.3637 30.0864 74.8168 30.0864C76.6046 30.0864 77.6024 29.2756 78.1845 28.4649H78.3924V29.4628C78.3924 31.4585 77.2282 32.3731 75.5236 32.3731C73.8189 32.3731 72.9458 31.4585 72.5923 30.2735L70.2433 31.2921C70.7838 32.8512 72.3637 34.5767 75.5652 34.5767C78.8497 34.5767 81.0117 32.8512 81.0117 29.5251V19.8169H78.434ZM75.6067 27.8413C73.9852 27.8413 72.7795 26.6771 72.7795 24.8061C72.7795 22.9352 73.9852 21.771 75.6067 21.771C77.2282 21.771 78.434 22.9352 78.434 24.8061C78.434 26.6771 77.2282 27.8413 75.6067 27.8413Z" fill="#0F52FF"/>
<path d="M82.7061 24.9725C82.7061 28.3402 85.0344 30.419 88.1111 30.419C91.1877 30.419 93.5159 28.3402 93.5159 24.9725C93.5159 21.6047 91.1877 19.5259 88.1111 19.5259C85.0344 19.5259 82.7061 21.6047 82.7061 24.9725ZM85.3254 24.9725C85.3254 22.9768 86.4896 21.8126 88.1111 21.8126C89.7326 21.8126 90.8967 22.9768 90.8967 24.9725C90.8967 26.9682 89.7326 28.1323 88.1111 28.1323C86.4896 28.1323 85.3254 26.9682 85.3254 24.9725Z" fill="#0F52FF"/>
<path d="M95.5723 16.8235C95.5723 17.8837 96.3833 18.6113 97.4233 18.6113C98.4622 18.6113 99.2732 17.8837 99.2732 16.8235C99.2732 15.7633 98.4622 15.0356 97.4233 15.0356C96.3833 15.0356 95.5723 15.7633 95.5723 16.8235ZM98.7321 19.817H96.1134V30.1281H98.7321V19.817Z" fill="#5BD0F4"/>
<path d="M101.066 34.2857H103.686V28.7975H103.894C104.476 29.6291 105.474 30.419 107.262 30.419C109.714 30.419 111.919 28.3402 111.919 24.9725C111.919 21.6047 109.714 19.5259 107.262 19.5259C105.474 19.5259 104.476 20.3158 103.853 21.2098H103.644V19.8169H101.066V34.2857ZM106.471 28.1739C104.851 28.1739 103.644 27.0097 103.644 24.9725C103.644 22.9352 104.851 21.771 106.471 21.771C108.094 21.771 109.299 22.9352 109.299 24.9725C109.299 27.0097 108.094 28.1739 106.471 28.1739Z" fill="#5BD0F4"/>
<path d="M113.447 22.7066C113.447 24.7438 115.151 25.4922 117.313 25.908L117.854 26.0119C119.142 26.2613 119.725 26.5732 119.725 27.2385C119.725 27.9037 119.142 28.4233 117.937 28.4233C116.731 28.4233 115.755 27.9244 115.484 26.4277L113.072 27.0513C113.427 29.2133 115.234 30.419 117.937 30.419C120.556 30.419 122.261 29.1926 122.261 27.0306C122.261 24.8685 120.515 24.2865 118.187 23.8292L117.646 23.7252C116.565 23.5173 115.983 23.2262 115.983 22.5403C115.983 21.9166 116.524 21.5216 117.522 21.5216C118.519 21.5216 119.226 21.9373 119.475 23.0599L121.846 22.3324C121.347 20.6693 119.829 19.5259 117.522 19.5259C115.068 19.5259 113.447 20.6693 113.447 22.7066Z" fill="#5BD0F4"/>
<path d="M134.026 30.128V19.8169H131.408V25.1387C131.408 27.0513 130.472 28.1739 128.871 28.1739C127.457 28.1739 126.668 27.4047 126.668 25.8456V19.8169H124.048V25.9703C124.048 28.5273 125.649 30.2943 128.061 30.2943C129.952 30.2943 130.825 29.4627 131.241 28.5896H131.449V30.128H134.026Z" fill="#5BD0F4"/>
<path d="M136.351 19.8172V30.1283H138.971V23.9749C138.971 22.5613 139.636 21.7713 140.841 21.7713C141.881 21.7713 142.504 22.3534 142.504 23.476V30.1283H145.124V23.9749C145.124 22.5613 145.789 21.7713 146.994 21.7713C148.034 21.7713 148.657 22.3534 148.657 23.476V30.1283H151.277V23.3512C151.277 20.8566 149.738 19.6509 147.826 19.6509C146.142 19.6509 145.373 20.3993 144.874 21.2724H144.666C144.188 20.2954 143.336 19.6509 141.839 19.6509C140.342 19.6509 139.531 20.3161 139.137 21.1061H138.928V19.8172H136.351Z" fill="#5BD0F4"/>
</svg>
