<svg width="80" height="80" viewBox="0 0 80 80" fill="none" xmlns="http://www.w3.org/2000/svg">
<g id="check-verified-02">
<path id="Icon" d="M30.0003 40.0001L36.667 46.6667L51.667 31.6667M59.6709 16.6618C60.3573 18.3219 61.6749 19.6414 63.3338 20.3303L69.1511 22.74C70.8113 23.4277 72.1303 24.7467 72.8179 26.4069C73.5056 28.0672 73.5056 29.9326 72.8179 31.5928L70.4101 37.4061C69.7221 39.067 69.7211 40.9343 70.4122 42.5945L72.8159 48.4061C73.1568 49.2284 73.3324 50.1098 73.3325 50.9999C73.3326 51.8901 73.1574 52.7715 72.8168 53.5939C72.4761 54.4163 71.9768 55.1635 71.3473 55.7928C70.7178 56.4222 69.9704 56.9213 69.1479 57.2617L63.3348 59.6696C61.6748 60.3561 60.3553 61.6736 59.6664 63.3327L57.2568 69.1502C56.5692 70.8104 55.2502 72.1294 53.59 72.8171C51.9299 73.5048 50.0645 73.5048 48.4044 72.8171L42.5913 70.4091C40.9311 69.7232 39.0664 69.7245 37.4072 70.413L31.59 72.8193C29.9307 73.5054 28.067 73.5048 26.4082 72.8177C24.7494 72.1305 23.4312 70.8131 22.743 69.1546L20.3327 63.3354C19.6463 61.6753 18.3288 60.3558 16.6698 59.6668L10.8525 57.2572C9.19311 56.5698 7.87451 55.2516 7.1866 53.5923C6.49869 51.933 6.49775 50.0685 7.18401 48.4086L9.59187 42.5953C10.2778 40.935 10.2764 39.0703 9.58798 37.411L7.18357 31.5894C6.84267 30.7671 6.66713 29.8857 6.66699 28.9955C6.66685 28.1054 6.8421 27.2239 7.18273 26.4015C7.52337 25.5791 8.02271 24.8319 8.65222 24.2026C9.28173 23.5733 10.0291 23.0741 10.8515 22.7338L16.6646 20.3258C18.3232 19.64 19.6419 18.3241 20.3313 16.6669L22.7409 10.8494C23.4286 9.18923 24.7476 7.8702 26.4077 7.18251C28.0679 6.49483 29.9332 6.49483 31.5934 7.18251L37.4065 9.59047C39.0667 10.2765 40.9313 10.2751 42.5905 9.58657L48.4102 7.18625C50.0702 6.49895 51.9351 6.49909 53.5949 7.18664C55.2548 7.87418 56.5736 9.19284 57.2613 10.8526L59.6717 16.6718L59.6709 16.6618Z" stroke="#00CDAE" stroke-width="5" stroke-linecap="round" stroke-linejoin="round"/>
</g>
</svg>
