<svg width="23" height="23" viewBox="0 0 23 23" fill="none" xmlns="http://www.w3.org/2000/svg">
<g id="coins-stacked-03">
<path id="Icon" d="M12.4596 4.79167C12.4596 5.85021 10.0998 6.70833 7.1888 6.70833C4.2778 6.70833 1.91797 5.85021 1.91797 4.79167M12.4596 4.79167C12.4596 3.73312 10.0998 2.875 7.1888 2.875C4.2778 2.875 1.91797 3.73312 1.91797 4.79167M12.4596 4.79167V6.22917M1.91797 4.79167V16.2917C1.91797 17.3502 4.2778 18.2083 7.1888 18.2083M7.1888 10.5417C7.02728 10.5417 6.86745 10.539 6.70963 10.5339C4.02319 10.4458 1.91797 9.62481 1.91797 8.625M7.1888 14.375C4.2778 14.375 1.91797 13.5169 1.91797 12.4583M21.0846 11.0208C21.0846 12.0794 18.7248 12.9375 15.8138 12.9375C12.9028 12.9375 10.543 12.0794 10.543 11.0208M21.0846 11.0208C21.0846 9.96229 18.7248 9.10417 15.8138 9.10417C12.9028 9.10417 10.543 9.96229 10.543 11.0208M21.0846 11.0208V18.2083C21.0846 19.2669 18.7248 20.125 15.8138 20.125C12.9028 20.125 10.543 19.2669 10.543 18.2083V11.0208M21.0846 14.6146C21.0846 15.6731 18.7248 16.5312 15.8138 16.5312C12.9028 16.5312 10.543 15.6731 10.543 14.6146" stroke="#EE54FC" stroke-width="2" stroke-linecap="round" stroke-linejoin="round"/>
</g>
</svg>
