<svg width="36" height="36" viewBox="0 0 36 36" fill="none" xmlns="http://www.w3.org/2000/svg">
<g id="file-search-02">
<path id="Icon" d="M21 16.5H12M15 22.5H12M24 10.5H12M30 15.75V10.2C30 7.67976 30 6.41965 29.5095 5.45704C29.0781 4.61031 28.3897 3.9219 27.543 3.49047C26.5804 3 25.3202 3 22.8 3H13.2C10.6798 3 9.41965 3 8.45704 3.49047C7.61031 3.9219 6.9219 4.61031 6.49047 5.45704C6 6.41965 6 7.67976 6 10.2V25.8C6 28.3202 6 29.5804 6.49047 30.543C6.9219 31.3897 7.61031 32.0781 8.45704 32.5095C9.41965 33 10.6798 33 13.2 33H17.25M33 33L30.75 30.75M32.25 27C32.25 29.8995 29.8995 32.25 27 32.25C24.1005 32.25 21.75 29.8995 21.75 27C21.75 24.1005 24.1005 21.75 27 21.75C29.8995 21.75 32.25 24.1005 32.25 27Z" stroke="#667085" stroke-width="2" stroke-linecap="round" stroke-linejoin="round"/>
</g>
</svg>
