<svg width="96" height="39" viewBox="0 0 96 39" fill="none" xmlns="http://www.w3.org/2000/svg">
    <path d="M13.2799 5.48047C12.6412 4.32398 11.6694 3.3864 10.4907 2.78965C9.27276 2.15526 7.82526 1.838 6.14821 1.83787H0.749983V4.52869H5.88567C7.54806 4.52869 8.83505 4.96632 9.74664 5.84161C10.6582 6.7169 11.114 7.94924 11.114 9.53864C11.114 11.1139 10.6582 12.3391 9.74664 13.2143C8.83505 14.0894 7.54806 14.5269 5.88567 14.5268H0.749983V17.2833H6.14743C7.82381 17.2833 9.27132 16.9588 10.4899 16.3098C11.6691 15.6985 12.64 14.7504 13.2791 13.5861C13.9121 12.3289 14.2418 10.9409 14.2418 9.5333C14.2418 8.12571 13.9121 6.7377 13.2791 5.48047H13.2799Z" fill="white"/>
    <path d="M16.7368 0.470512C17.1315 0.165494 17.6162 0 18.1151 0C18.6139 0 19.0986 0.165494 19.4933 0.470512C19.6647 0.621897 19.8006 0.809183 19.8914 1.01907C19.9821 1.22895 20.0255 1.45627 20.0184 1.68482C20.024 1.90993 19.9798 2.13347 19.889 2.33953C19.7982 2.5456 19.6631 2.72911 19.4933 2.87697C19.0986 3.18196 18.6139 3.34741 18.1151 3.34741C17.6162 3.34741 17.1315 3.18196 16.7368 2.87697C16.567 2.72909 16.4319 2.54557 16.3411 2.33951C16.2504 2.13345 16.2062 1.90992 16.2117 1.68482C16.2047 1.45627 16.2481 1.22897 16.3388 1.01909C16.4296 0.809216 16.5654 0.621932 16.7368 0.470512ZM19.6474 5.16307V17.2833H16.5621V5.16307H19.6474Z" fill="white"/>
    <path d="M29.8195 5.73192C30.5345 6.19565 31.0796 6.87892 31.3728 7.67903V5.16306H34.4359V17.3269C34.4523 18.3749 34.2238 19.4122 33.7686 20.3563C33.3319 21.244 32.6381 21.9796 31.7775 22.4675C30.8951 22.9778 29.8269 23.2331 28.5727 23.2332C26.8222 23.2332 25.4074 22.8174 24.3284 21.9858C23.2512 21.1588 22.5437 19.9404 22.3593 18.5949H25.4004C25.5556 19.1796 25.9168 19.6886 26.4175 20.028C26.9959 20.3917 27.6711 20.5712 28.3538 20.5428C29.2581 20.5428 29.9873 20.2765 30.5414 19.7441C31.0956 19.2116 31.3728 18.4058 31.373 17.3267V14.7452C31.0783 15.5474 30.5338 16.2339 29.8197 16.7034C29.0385 17.2069 28.1233 17.4622 27.1943 17.436C26.2241 17.4498 25.2694 17.192 24.4379 16.6919C23.6031 16.1761 22.9376 15.427 22.5237 14.5371C22.0692 13.4912 21.8346 12.363 21.8346 11.2226C21.8346 10.0822 22.0692 8.95401 22.5237 7.90811C22.9377 7.01834 23.6031 6.26924 24.4379 5.75328C25.2695 5.25339 26.2241 4.99581 27.1943 5.0096C28.1218 4.98363 29.0359 5.23515 29.8195 5.73192ZM25.838 8.64249C25.2543 9.26975 24.9626 10.1302 24.9628 11.224C24.9631 12.3177 25.2548 13.1746 25.838 13.7946C26.4212 14.415 27.1941 14.7252 28.1567 14.7252C28.5869 14.7382 29.0148 14.6601 29.4127 14.496C29.8105 14.3319 30.1691 14.0856 30.465 13.7732C31.0701 13.1388 31.3727 12.2893 31.3728 11.2246C31.3728 10.1455 31.0702 9.28862 30.465 8.65397C30.169 8.34169 29.8104 8.0955 29.4126 7.93151C29.0148 7.76752 28.5868 7.68942 28.1567 7.70238C27.7256 7.68399 27.2954 7.75833 26.8954 7.92037C26.4954 8.08241 26.1348 8.32839 25.838 8.64169V8.64249Z" fill="white"/>
    <path d="M37.4114 0.470512C37.8061 0.16551 38.2908 2.41697e-05 38.7896 2.41697e-05C39.2884 2.41697e-05 39.7731 0.16551 40.1677 0.470512C40.3392 0.621861 40.4751 0.80913 40.5659 1.01902C40.6567 1.22891 40.7001 1.45625 40.693 1.68482C40.6986 1.90995 40.6544 2.13353 40.5636 2.33961C40.4728 2.54568 40.3376 2.72916 40.1677 2.87697C39.7731 3.18198 39.2884 3.34744 38.7896 3.34744C38.2908 3.34744 37.8061 3.18198 37.4114 2.87697C37.2415 2.72912 37.1064 2.54562 37.0156 2.33956C36.9248 2.13349 36.8806 1.90994 36.8861 1.68482C36.8791 1.45625 36.9225 1.22893 37.0133 1.01904C37.1041 0.80916 37.24 0.621887 37.4114 0.470512ZM40.322 5.16307V17.2833H37.236V5.16307H40.322Z" fill="white"/>
    <path d="M49.5964 14.6361V17.2833H47.9776C46.6212 17.2833 45.582 16.9552 44.8601 16.2989C44.1382 15.6426 43.7772 14.5487 43.777 13.0173V7.76656H42.0925V5.16307H43.777V2.16597H46.8617V5.16307H49.5743V7.76656H46.8617V13.061C46.8617 13.6445 46.9784 14.0529 47.2119 14.2863C47.4454 14.5196 47.8392 14.6362 48.3932 14.6361H49.5964Z" fill="white"/>
    <path d="M59.179 5.73193C59.8939 6.19566 60.439 6.87894 60.7323 7.67904V5.16307H63.7951V17.2833H60.7323V14.7454C60.4376 15.5476 59.8931 16.2341 59.179 16.7036C58.3977 17.2071 57.4825 17.4624 56.5535 17.4362C55.5833 17.4499 54.6285 17.1922 53.797 16.6921C52.9621 16.1763 52.2967 15.4271 51.8829 14.5373C51.4284 13.4914 51.1938 12.3632 51.1938 11.2228C51.1938 10.0824 51.4284 8.95421 51.8829 7.90832C52.2968 7.01856 52.9622 6.26945 53.797 5.75349C54.6286 5.25362 55.5833 4.99605 56.5535 5.00981C57.481 4.98376 58.3952 5.23521 59.179 5.73193ZM55.1972 8.6425C54.6136 9.26976 54.322 10.1303 54.3223 11.224C54.3225 12.3177 54.6142 13.1746 55.1972 13.7946C55.7804 14.415 56.5534 14.7252 57.5162 14.7252C57.9463 14.7382 58.3742 14.6601 58.772 14.496C59.1698 14.332 59.5284 14.0856 59.8242 13.7732C60.4293 13.1388 60.732 12.2893 60.7323 11.2246C60.7323 10.1455 60.4296 9.28863 59.8242 8.65398C59.5283 8.34168 59.1697 8.09546 58.7719 7.93147C58.3741 7.76748 57.9462 7.68941 57.5162 7.70239C57.0849 7.684 56.6548 7.75834 56.2548 7.92038C55.8547 8.08242 55.4941 8.32839 55.1972 8.6417V8.6425Z" fill="white"/>
    <path d="M69.68 1.094V17.2833H66.5954V1.094H69.68Z" fill="white"/>
    <path d="M17.3064 23.1669V38.4373H14.2434V27.783L10.3274 38.4373H7.65854L3.74233 27.8266V38.4373H0.657715V23.1669H4.3985L9.03682 34.6524L13.5872 23.1669H17.3064Z" fill="white"/>
    <path d="M28.8905 26.9079C29.8235 27.3964 30.5948 28.1448 31.1111 29.0627C31.6429 30.0846 31.9205 31.2197 31.9205 32.3717C31.9205 33.5238 31.6429 34.6588 31.1111 35.6808C30.5907 36.5955 29.8205 37.343 28.8905 37.8356C27.9029 38.332 26.8128 38.5905 25.7074 38.5905C24.602 38.5905 23.5119 38.332 22.5243 37.8356C21.5943 37.343 20.824 36.5955 20.3037 35.6808C19.772 34.6588 19.4943 33.5238 19.4943 32.3717C19.4943 31.2197 19.772 30.0846 20.3037 29.0627C20.82 28.1448 21.5913 27.3963 22.5243 26.9079C23.5141 26.4187 24.6033 26.1642 25.7074 26.1642C26.8115 26.1642 27.9007 26.4187 28.8905 26.9079ZM23.5198 29.7412C22.9215 30.3466 22.6224 31.2252 22.6227 32.3772C22.6229 33.5291 22.922 34.4079 23.5198 35.0135C23.8068 35.3015 24.1478 35.53 24.5232 35.6859C24.8986 35.8418 25.3012 35.922 25.7077 35.922C26.1142 35.922 26.5168 35.8418 26.8922 35.6859C27.2676 35.53 27.6086 35.3015 27.8956 35.0135C28.4935 34.4084 28.7926 33.5297 28.7927 32.3772C28.7928 31.2247 28.4938 30.346 27.8956 29.7412C27.6086 29.4533 27.2676 29.2248 26.8922 29.0689C26.5168 28.913 26.1142 28.8327 25.7077 28.8327C25.3012 28.8327 24.8986 28.913 24.5232 29.0689C24.1478 29.2248 23.8068 29.4533 23.5198 29.7412Z" fill="white"/>
    <path d="M38.9867 26.8095C39.741 26.3618 40.6043 26.1309 41.4815 26.1422V29.4458H40.5843C38.3233 29.4458 37.193 30.4959 37.1934 32.5962V38.4371H34.1082V26.317H37.1936V28.6362C37.6252 27.8839 38.2425 27.255 38.9867 26.8095Z" fill="white"/>
    <path d="M51.971 26.9079C52.9039 27.3963 53.6752 28.1448 54.1914 29.0627C54.7232 30.0846 55.0008 31.2197 55.0008 32.3717C55.0008 33.5238 54.7232 34.6588 54.1914 35.6808C53.6712 36.5955 52.9009 37.343 51.971 37.8356C50.9833 38.332 49.8932 38.5906 48.7878 38.5906C47.6824 38.5906 46.5923 38.332 45.6046 37.8356C44.6746 37.3431 43.9044 36.5956 43.3842 35.6808C42.8524 34.6588 42.5748 33.5238 42.5748 32.3717C42.5748 31.2197 42.8524 30.0846 43.3842 29.0627C43.9004 28.1448 44.6717 27.3963 45.6046 26.9079C46.5944 26.4187 47.6837 26.1642 48.7878 26.1642C49.8919 26.1642 50.9812 26.4187 51.971 26.9079ZM46.6001 29.7412C46.002 30.3466 45.7031 31.2252 45.7032 32.3772C45.7033 33.5291 46.0023 34.4079 46.6001 35.0135C46.8871 35.3014 47.2281 35.5297 47.6036 35.6856C47.979 35.8414 48.3815 35.9216 48.788 35.9216C49.1945 35.9216 49.597 35.8414 49.9724 35.6856C50.3478 35.5297 50.6889 35.3014 50.9759 35.0135C51.5738 34.4084 51.8728 33.5297 51.8728 32.3772C51.8728 31.2247 51.5738 30.346 50.9759 29.7412C50.6889 29.4533 50.3479 29.2248 49.9725 29.0689C49.5971 28.913 49.1945 28.8327 48.788 28.8327C48.3815 28.8327 47.979 28.913 47.6035 29.0689C47.2281 29.2248 46.8871 29.4533 46.6001 29.7412Z" fill="white"/>
    <path d="M66.5413 27.4331C67.5841 28.279 68.2367 29.4312 68.4991 30.8896H65.2395C65.1338 30.2911 64.8152 29.751 64.3426 29.369C63.8342 28.9835 63.2079 28.7864 62.5705 28.8112C62.1839 28.8038 61.8003 28.8813 61.4469 29.0381C61.0935 29.195 60.7788 29.4275 60.525 29.7192C59.9781 30.3246 59.7046 31.2106 59.7046 32.3772C59.7046 33.5438 59.9781 34.4298 60.525 35.0353C60.7787 35.3271 61.0934 35.5596 61.4468 35.7165C61.8003 35.8734 62.1839 35.9508 62.5705 35.9433C63.2079 35.9681 63.8343 35.7709 64.3426 35.3854C64.8153 35.0035 65.134 34.4634 65.2395 33.8649H68.4991C68.2366 35.3234 67.584 36.4756 66.5413 37.3216C65.4987 38.1676 64.1969 38.5906 62.636 38.5906C61.5389 38.6109 60.4546 38.3511 59.4859 37.8356C58.5762 37.3419 57.8309 36.5929 57.3417 35.6808C56.8381 34.6504 56.5763 33.5186 56.5763 32.3717C56.5763 31.2248 56.8381 30.0931 57.3417 29.0627C57.8269 28.1476 58.5732 27.3975 59.4859 26.9079C60.4568 26.3995 61.5402 26.1437 62.636 26.1642C64.1966 26.1642 65.4984 26.5872 66.5413 27.4331Z" fill="white"/>
    <path d="M80.0405 27.4331C81.0833 28.279 81.7359 29.4312 81.9985 30.8896H78.7389C78.633 30.2911 78.3144 29.751 77.8417 29.369C77.3334 28.9835 76.7071 28.7864 76.0696 28.8112C75.683 28.8038 75.2995 28.8813 74.9461 29.0382C74.5926 29.1951 74.2779 29.4275 74.0241 29.7192C73.4772 30.3246 73.2038 31.2106 73.2038 32.3772C73.2038 33.5438 73.4772 34.4298 74.0241 35.0353C74.2779 35.3271 74.5926 35.5596 74.946 35.7165C75.2994 35.8734 75.683 35.9508 76.0696 35.9433C76.7071 35.9681 77.3334 35.7709 77.8417 35.3854C78.3146 35.0035 78.6332 34.4635 78.7389 33.8649H81.9985C81.7357 35.3234 81.083 36.4756 80.0405 37.3216C78.998 38.1676 77.6962 38.5906 76.1354 38.5906C75.0381 38.6109 73.9538 38.3511 72.985 37.8356C72.0754 37.3419 71.3301 36.5928 70.8409 35.6808C70.3372 34.6504 70.0754 33.5186 70.0754 32.3717C70.0754 31.2248 70.3372 30.0931 70.8409 29.0627C71.3261 28.1476 72.0724 27.3976 72.985 26.9079C73.956 26.3995 75.0395 26.1437 76.1354 26.1642C77.6952 26.1642 78.9969 26.5872 80.0405 27.4331Z" fill="white"/>
    <path d="M92.9698 26.9079C93.9027 27.3964 94.674 28.1448 95.1904 29.0627C95.7221 30.0846 95.9997 31.2197 95.9997 32.3717C95.9997 33.5238 95.7221 34.6588 95.1904 35.6808C94.67 36.5955 93.8997 37.343 92.9698 37.8356C91.9821 38.332 90.8921 38.5905 89.7867 38.5905C88.6813 38.5905 87.5912 38.332 86.6035 37.8356C85.6736 37.343 84.9033 36.5955 84.383 35.6808C83.8512 34.6588 83.5736 33.5238 83.5736 32.3717C83.5736 31.2197 83.8512 30.0846 84.383 29.0627C84.8992 28.1448 85.6706 27.3963 86.6035 26.9079C87.5933 26.4187 88.6826 26.1642 89.7867 26.1642C90.8908 26.1642 91.98 26.4187 92.9698 26.9079ZM87.5991 29.7412C87.001 30.3466 86.7019 31.2252 86.7019 32.3772C86.7019 33.5291 87.001 34.4079 87.5991 35.0135C87.8861 35.3013 88.2271 35.5297 88.6025 35.6855C88.978 35.8413 89.3805 35.9215 89.787 35.9215C90.1934 35.9215 90.5959 35.8413 90.9714 35.6855C91.3468 35.5297 91.6878 35.3013 91.9749 35.0135C92.5725 34.4084 92.8715 33.5297 92.8718 32.3772C92.872 31.2247 92.5731 30.346 91.9749 29.7412C91.6879 29.4533 91.3469 29.2248 90.9715 29.0689C90.596 28.913 90.1935 28.8327 89.787 28.8327C89.3804 28.8327 88.9779 28.913 88.6025 29.0689C88.227 29.2248 87.886 29.4533 87.5991 29.7412Z" fill="white"/>
</svg>
