<svg width="161" height="160" viewBox="0 0 161 160" fill="none" xmlns="http://www.w3.org/2000/svg">
<path fill-rule="evenodd" clip-rule="evenodd" d="M61.5908 128.748H7.08331V16.2476H67.5008L79.5833 28.7476V75.99" fill="#F4F7F8"/>
<path fill-rule="evenodd" clip-rule="evenodd" d="M61.5908 128.748H7.08331L73.5408 22.4976L79.5833 28.7476V128.738L61.5908 128.748Z" fill="#DAE7FC"/>
<path d="M14.5833 36.2476H24.5833V46.2476H14.5833V36.2476ZM14.5833 58.7476H24.5833V68.7476H14.5833V58.7476ZM14.5833 81.2476H24.5833V91.2477H14.5833V81.2476Z" fill="#DAE7FC"/>
<path d="M147.083 106.593V138.893C147.085 139.531 146.96 140.163 146.716 140.753C146.473 141.343 146.115 141.879 145.664 142.33C145.212 142.782 144.676 143.139 144.086 143.383C143.496 143.627 142.864 143.751 142.226 143.75H66.9408C66.3026 143.751 65.6703 143.627 65.0804 143.383C64.4904 143.139 63.9544 142.782 63.5031 142.33C63.0518 141.879 62.694 141.343 62.4504 140.753C62.2067 140.163 62.082 139.531 62.0833 138.893V106.593M74.5833 76.2476H79.5833C80.9683 76.2476 82.0833 77.3626 82.0833 78.7476V81.2476H72.0833V78.7476C72.0833 77.3626 73.1983 76.2476 74.5833 76.2476ZM129.583 76.2476H134.583C135.968 76.2476 137.083 77.3626 137.083 78.7476V81.2476H127.083V78.7476C127.083 77.3626 128.198 76.2476 129.583 76.2476Z" fill="#B2CDF8"/>
<path d="M119.583 81.2476V76.2476C119.583 73.5226 117.308 71.2476 114.583 71.2476H94.5833C91.8583 71.2476 89.5833 73.5226 89.5833 76.2476V81.2476M94.5833 81.2476V76.2476H114.583V81.2476" fill="#B2CDF8"/>
<path d="M109.696 106.593L90.2758 143.748H142.226C142.864 143.749 143.496 143.625 144.086 143.381C144.676 143.138 145.212 142.78 145.663 142.329C146.115 141.878 146.473 141.342 146.716 140.753C146.96 140.163 147.085 139.531 147.083 138.892V106.593H109.696Z" fill="#6CA6FD"/>
<path d="M92.0833 53.73H87.0833C85.6983 53.73 84.5833 54.845 84.5833 56.23V61.23C84.5833 62.615 85.6983 63.73 87.0833 63.73H92.0833" fill="#6CA6FD"/>
<path d="M97.1658 53.73H92.1408V63.73H97.1658V53.73Z" fill="#B2CDF8"/>
<path d="M142.083 53.73H97.1658V63.73H142.083V53.73Z" fill="#DAE7FC"/>
<path d="M142.083 53.73V63.73L154.583 58.73L142.083 53.73Z" fill="#F4F7F8"/>
<path d="M97.0833 63.73V53.73M92.0833 53.73H142.083V63.73H92.0833M92.0833 53.73V63.73M92.0833 53.73H87.0833C85.6983 53.73 84.5833 54.845 84.5833 56.23V61.23C84.5833 62.615 85.6983 63.73 87.0833 63.73H92.0833" stroke="#0E7BFF" stroke-width="2" stroke-linecap="round" stroke-linejoin="round"/>
<path d="M142.083 58.73H97.0833" stroke="#0E7BFF" stroke-width="2"/>
<path d="M142.083 53.73V63.73L154.583 58.73L142.083 53.73Z" stroke="#0E7BFF" stroke-width="2" stroke-linecap="round" stroke-linejoin="round"/>
<path d="M14.5833 103.748H24.5833V113.748H14.5833V103.748Z" fill="#DAE7FC"/>
<path d="M61.5908 128.748H7.08331V16.2476H67.5008L79.5833 28.7476V75.99" stroke="#0E7BFF" stroke-width="2" stroke-linecap="round" stroke-linejoin="round"/>
<path d="M67.0833 16.2476L79.5833 28.7476H67.0833V16.2476Z" fill="#B2CDF8"/>
<path d="M67.0833 16.2476L79.5833 28.7476H67.0833V16.2476ZM14.5833 36.2476H24.5833V46.2476H14.5833V36.2476Z" stroke="#0E7BFF" stroke-width="2" stroke-linecap="round" stroke-linejoin="round"/>
<path d="M29.5833 23.7476H57.0833V28.7476H29.5833V23.7476Z" fill="#6CA6FD"/>
<path d="M29.5833 23.7476H57.0833V28.7476H29.5833V23.7476ZM14.5833 58.7476H24.5833V68.7476H14.5833V58.7476ZM14.5833 81.2476H24.5833V91.2477H14.5833V81.2476Z" stroke="#0E7BFF" stroke-width="2" stroke-linecap="round" stroke-linejoin="round"/>
<path d="M22.7233 103.748L16.4683 113.748H24.5833V103.748H22.7233Z" fill="#B2CDF8"/>
<path d="M14.5833 103.748H24.5833V113.748H14.5833V103.748Z" stroke="#0E7BFF" stroke-width="2" stroke-linecap="round" stroke-linejoin="round"/>
<path d="M32.0833 36.2476H47.0833V41.2476H32.0833V36.2476Z" fill="#B2CDF8"/>
<path d="M32.0833 36.2476H47.0833V41.2476H32.0833V36.2476Z" stroke="#0E7BFF" stroke-width="2" stroke-linecap="round" stroke-linejoin="round"/>
<path d="M32.0833 58.7476H49.5833V63.7476H32.0833V58.7476Z" fill="#B2CDF8"/>
<path d="M72.0833 44.9976H32.0833C31.393 44.9976 30.8333 45.5572 30.8333 46.2476C30.8333 46.9379 31.393 47.4976 32.0833 47.4976H72.0833C72.7737 47.4976 73.3333 46.9379 73.3333 46.2476C73.3333 45.5572 72.7737 44.9976 72.0833 44.9976Z" fill="#0E7BFF"/>
<path d="M32.0833 81.2476H47.0833V86.2476H32.0833V81.2476Z" fill="#B2CDF8"/>
<path d="M57.0833 49.9976H32.0833C31.393 49.9976 30.8333 50.5572 30.8333 51.2476C30.8333 51.9379 31.393 52.4976 32.0833 52.4976H57.0833C57.7737 52.4976 58.3333 51.9379 58.3333 51.2476C58.3333 50.5572 57.7737 49.9976 57.0833 49.9976Z" fill="#0E7BFF"/>
<path d="M32.0833 103.748H49.5833V108.748H32.0833V103.748Z" fill="#B2CDF8"/>
<path d="M32.0833 58.7476H49.5833V63.7476H32.0833V58.7476Z" stroke="#0E7BFF" stroke-width="2" stroke-linecap="round" stroke-linejoin="round"/>
<path d="M72.0833 67.4976H32.0833C31.393 67.4976 30.8333 68.0572 30.8333 68.7476C30.8333 69.4379 31.393 69.9976 32.0833 69.9976H72.0833C72.7737 69.9976 73.3333 69.4379 73.3333 68.7476C73.3333 68.0572 72.7737 67.4976 72.0833 67.4976Z" fill="#0E7BFF"/>
<path d="M54.5833 72.4976H32.0833C31.393 72.4976 30.8333 73.0572 30.8333 73.7476C30.8333 74.4379 31.393 74.9976 32.0833 74.9976H54.5833C55.2737 74.9976 55.8333 74.4379 55.8333 73.7476C55.8333 73.0572 55.2737 72.4976 54.5833 72.4976Z" fill="#0E7BFF"/>
<path d="M32.0833 81.2476V86.2476H33.6658L36.7958 81.2476H32.0833Z" fill="#DAE7FC"/>
<path d="M32.0833 81.2476H47.0833V86.2476H32.0833V81.2476Z" stroke="#0E7BFF" stroke-width="2" stroke-linecap="round" stroke-linejoin="round"/>
<path d="M59.5833 89.9977H32.0833C31.393 89.9977 30.8333 90.5573 30.8333 91.2477C30.8333 91.938 31.393 92.4977 32.0833 92.4977H59.5833C60.2737 92.4977 60.8333 91.938 60.8333 91.2477C60.8333 90.5573 60.2737 89.9977 59.5833 89.9977Z" fill="#0E7BFF"/>
<path d="M49.5833 94.9977H32.0833C31.393 94.9977 30.8333 95.5573 30.8333 96.2477C30.8333 96.938 31.393 97.4977 32.0833 97.4977H49.5833C50.2737 97.4977 50.8333 96.938 50.8333 96.2477C50.8333 95.5573 50.2737 94.9977 49.5833 94.9977Z" fill="#0E7BFF"/>
<path d="M32.0833 103.748H49.5833V108.748H32.0833V103.748Z" stroke="#0E7BFF" stroke-width="2" stroke-linecap="round" stroke-linejoin="round"/>
<path d="M62.0833 112.498H32.0833C31.393 112.498 30.8333 112.86 30.8333 113.308V114.395C30.8333 114.842 31.393 115.205 32.0833 115.205H62.0833C62.7737 115.205 63.3333 114.842 63.3333 114.395V113.308C63.3333 112.86 62.7737 112.498 62.0833 112.498Z" fill="#0E7BFF"/>
<path d="M57.0833 117.498H32.0833C31.393 117.498 30.8333 118.057 30.8333 118.748C30.8333 119.438 31.393 119.998 32.0833 119.998H57.0833C57.7737 119.998 58.3333 119.438 58.3333 118.748C58.3333 118.057 57.7737 117.498 57.0833 117.498Z" fill="#0E7BFF"/>
<path d="M119.583 81.2476V76.2476C119.583 73.5226 117.308 71.2476 114.583 71.2476H94.5833C91.8583 71.2476 89.5833 73.5226 89.5833 76.2476V81.2476M94.5833 81.2476V76.2476H114.583V81.2476" stroke="#0E7BFF" stroke-width="2" stroke-linecap="round" stroke-linejoin="round"/>
<path d="M74.5833 76.2476H79.5833C80.9683 76.2476 82.0833 77.3626 82.0833 78.7476V81.2476H72.0833V78.7476C72.0833 77.3626 73.1983 76.2476 74.5833 76.2476Z" stroke="#0E7BFF" stroke-width="2" stroke-linecap="round" stroke-linejoin="round"/>
<path d="M129.583 110.975L134.583 109.87V143.75H129.583V110.975Z" fill="#F4F7F8"/>
<path d="M147.083 106.593V138.893C147.085 139.531 146.96 140.163 146.716 140.753C146.473 141.343 146.115 141.879 145.664 142.33C145.212 142.781 144.676 143.139 144.086 143.383C143.496 143.627 142.864 143.751 142.226 143.75H66.9408C66.3026 143.751 65.6703 143.627 65.0804 143.383C64.4904 143.139 63.9544 142.781 63.5031 142.33C63.0518 141.879 62.694 141.343 62.4504 140.753C62.2067 140.163 62.082 139.531 62.0833 138.893V106.593" stroke="#0E7BFF" stroke-width="2" stroke-linecap="round" stroke-linejoin="round"/>
<path d="M74.5833 109.868L79.5833 110.975V143.75H74.5833V109.868Z" fill="#F4F7F8"/>
<path d="M129.583 110.975L134.583 109.87V143.75H129.583V110.975Z" fill="#DAE7FC" stroke="#0E7BFF" stroke-width="2" stroke-linecap="round" stroke-linejoin="round"/>
<path d="M74.5833 109.868L79.5833 110.975V143.75H74.5833V109.868Z" stroke="#0E7BFF" stroke-width="2" stroke-linecap="round" stroke-linejoin="round"/>
<path d="M62.0158 81.25H147.151C148.498 81.25 149.583 82.365 149.583 83.75V103.75C149.583 105.135 148.498 106.25 147.151 106.25L104.583 116.25L62.0158 106.25C60.7033 105.943 59.5833 105.135 59.5833 103.75V83.75C59.5833 82.365 60.6683 81.25 62.0158 81.25Z" fill="#DAE7FC"/>
<path d="M122.943 81.2476L104.661 116.228L147.151 106.248C147.475 106.244 147.795 106.176 148.093 106.049C148.391 105.921 148.661 105.736 148.887 105.503C149.113 105.271 149.291 104.996 149.41 104.695C149.53 104.394 149.589 104.072 149.583 103.748V83.7476C149.583 82.3626 148.498 81.2476 147.151 81.2476H122.943Z" fill="#B2CDF8"/>
<path d="M114.583 91.2501H94.5833V101.25H114.583V91.2501Z" fill="#F4F7F8"/>
<path d="M114.583 91.2501H94.5833V101.25H114.583V91.2501Z" stroke="#0E7BFF" stroke-width="2" stroke-linecap="round" stroke-linejoin="round"/>
<path d="M62.0158 81.25H147.151C148.498 81.25 149.583 82.365 149.583 83.75V103.75C149.583 105.135 148.498 106.25 147.151 106.25L104.583 116.25L62.0158 106.25C60.7033 105.943 59.5833 105.135 59.5833 103.75V83.75C59.5833 82.365 60.6683 81.25 62.0158 81.25Z" stroke="#0E7BFF" stroke-width="2" stroke-linecap="round" stroke-linejoin="round"/>
<path d="M129.583 76.2476H134.583C135.968 76.2476 137.083 77.3626 137.083 78.7476V81.2476H127.083V78.7476C127.083 77.3626 128.198 76.2476 129.583 76.2476Z" stroke="#0E7BFF" stroke-width="2" stroke-linecap="round" stroke-linejoin="round"/>
</svg>
