<svg width="512" height="140" viewBox="0 0 512 140" fill="none" xmlns="http://www.w3.org/2000/svg">
<path d="M98.9437 30.036L98.6196 30.3602L68.4097 60.57L38.1999 30.3573L37.8758 30.0332L46.8104 21.0986L47.1345 21.4227L62.0909 36.3791V6.46633L68.4097 0.147457L74.7285 6.46633V36.3791L89.685 21.4227L90.0091 21.0986L98.9437 30.036Z" fill="white"/>
<path d="M98.9437 107.083L90.0091 116.017L89.685 115.693L74.7285 100.742V130.65L68.4097 136.968L62.0909 130.65V100.742L47.1345 115.693L46.8104 116.017L37.8758 107.083L68.4104 76.5488L98.9437 107.083Z" fill="white"/>
<path d="M130.501 74.8781H100.593L115.544 89.8346L115.868 90.1587L106.934 99.0933L106.61 98.7692L76.3998 68.5594L106.934 38.0254L115.868 46.96L115.544 47.2841L100.593 62.2406H130.501L136.819 68.5594L130.501 74.8781Z" fill="white"/>
<path d="M60.4204 68.5594L30.2106 98.7692L29.8864 99.0933L20.9519 90.1587L21.276 89.8346L36.2274 74.8781H6.31883L0 68.5594L6.31883 62.2406H36.2238L21.2724 47.2841L20.9483 46.96L29.8829 38.0254L60.4204 68.5594Z" fill="white"/>
<path d="M213.743 19.908C211.44 15.7382 207.936 12.3576 203.686 10.2059C199.294 7.91854 194.075 6.77461 188.028 6.77413H168.564V16.4762H187.082C193.076 16.4762 197.716 18.0542 201.003 21.2102C204.29 24.3661 205.933 28.8095 205.933 34.5403C205.933 40.2202 204.29 44.6378 201.003 47.7933C197.716 50.9488 193.076 52.5263 187.082 52.5258H168.564V62.4649H188.025C194.07 62.4649 199.289 61.2948 203.683 58.9546C207.935 56.7504 211.435 53.3321 213.74 49.1341C216.022 44.6009 217.211 39.5963 217.211 34.521C217.211 29.4458 216.022 24.4411 213.74 19.908H213.743Z" fill="white"/>
<path d="M226.207 1.84395C227.63 0.744166 229.378 0.147457 231.176 0.147457C232.975 0.147457 234.723 0.744166 236.146 1.84395C236.764 2.38979 237.254 3.06508 237.581 3.82185C237.908 4.57862 238.065 5.39822 238.039 6.22232C238.059 7.03395 237.9 7.83996 237.573 8.58296C237.245 9.32596 236.758 9.98764 236.146 10.5208C234.723 11.6204 232.975 12.217 231.176 12.217C229.378 12.217 227.63 11.6204 226.207 10.5208C225.595 9.98754 225.108 9.32585 224.78 8.58288C224.453 7.8399 224.294 7.03393 224.313 6.22232C224.288 5.39825 224.445 4.57867 224.772 3.82193C225.099 3.06519 225.589 2.38992 226.207 1.84395ZM236.701 18.7636V62.4649H225.577V18.7636H236.701Z" fill="white"/>
<path d="M273.378 20.8147C275.956 22.4867 277.922 24.9503 278.979 27.8352V18.7636H290.023V62.6219C290.082 66.4005 289.259 70.1407 287.617 73.5448C286.043 76.7454 283.541 79.3979 280.438 81.1572C277.257 82.9971 273.405 83.9174 268.883 83.9179C262.571 83.9179 257.47 82.4186 253.58 79.4202C249.696 76.4384 247.144 72.0451 246.48 67.1938H257.445C258.004 69.3021 259.307 71.1372 261.112 72.3611C263.197 73.6726 265.632 74.3198 268.093 74.2173C271.354 74.2173 273.983 73.2573 275.981 71.3373C277.979 69.4174 278.979 66.512 278.98 62.6212V53.3133C277.917 56.2058 275.954 58.6808 273.379 60.3738C270.562 62.1891 267.262 63.1099 263.913 63.0153C260.415 63.0649 256.972 62.1356 253.974 60.3324C250.964 58.4724 248.565 55.7714 247.072 52.5629C245.433 48.7918 244.588 44.7239 244.588 40.6121C244.588 36.5002 245.433 32.4323 247.072 28.6612C248.565 25.453 250.964 22.752 253.974 20.8917C256.973 19.0892 260.415 18.1605 263.913 18.2103C267.257 18.1166 270.553 19.0235 273.378 20.8147ZM259.022 31.3091C256.918 33.5708 255.866 36.6734 255.867 40.617C255.868 44.5607 256.92 47.6503 259.022 49.8858C261.125 52.1227 263.912 53.2411 267.383 53.2411C268.934 53.2879 270.477 53.0062 271.911 52.4147C273.346 51.8231 274.639 50.935 275.706 49.8086C277.887 47.5213 278.979 44.4581 278.979 40.6192C278.979 36.7284 277.888 33.6388 275.706 31.3505C274.638 30.2245 273.345 29.3369 271.911 28.7456C270.477 28.1543 268.934 27.8727 267.383 27.9194C265.828 27.8531 264.277 28.1211 262.835 28.7054C261.393 29.2897 260.093 30.1766 259.022 31.3062V31.3091Z" fill="white"/>
<path d="M300.752 1.84395C302.175 0.744224 303.923 0.147544 305.721 0.147544C307.519 0.147544 309.267 0.744224 310.69 1.84395C311.308 2.38966 311.799 3.06488 312.126 3.82167C312.453 4.57846 312.61 5.39815 312.584 6.22232C312.604 7.03403 312.445 7.8402 312.117 8.58322C311.79 9.32625 311.303 9.9878 310.69 10.5208C309.267 11.6205 307.519 12.2171 305.721 12.2171C303.923 12.2171 302.175 11.6205 300.752 10.5208C300.139 9.98768 299.652 9.32604 299.325 8.58305C298.997 7.84006 298.838 7.034 298.858 6.22232C298.832 5.39817 298.989 4.57853 299.316 3.82176C299.644 3.06499 300.134 2.38975 300.752 1.84395ZM311.246 18.7636V62.4649H300.119V18.7636H311.246Z" fill="white"/>
<path d="M344.687 52.9199V62.4649H338.85C333.959 62.4649 330.212 61.2817 327.609 58.9153C325.006 56.5489 323.705 52.6048 323.704 47.083V28.1508H317.63V18.7636H323.704V7.95716H334.826V18.7636H344.607V28.1508H334.826V47.2408C334.826 49.3444 335.247 50.817 336.089 51.6585C336.931 52.4999 338.351 52.9204 340.348 52.9199H344.687Z" fill="white"/>
<path d="M379.238 20.8147C381.816 22.4867 383.781 24.9504 384.838 27.8353V18.7636H395.882V62.4649H384.838V53.314C383.776 56.2065 381.812 58.6815 379.238 60.3746C376.421 62.1898 373.121 63.1106 369.771 63.016C366.273 63.0655 362.83 62.1363 359.832 60.3332C356.822 58.4731 354.423 55.7721 352.931 52.5637C351.292 48.7925 350.446 44.7246 350.446 40.6128C350.446 36.501 351.292 32.4331 352.931 28.662C354.423 25.4538 356.822 22.7528 359.832 20.8924C362.831 19.0901 366.273 18.1614 369.771 18.211C373.116 18.1171 376.412 19.0237 379.238 20.8147ZM364.881 31.3091C362.777 33.5708 361.725 36.6734 361.726 40.6171C361.727 44.5607 362.779 47.6503 364.881 49.8858C366.984 52.1227 369.771 53.2411 373.242 53.2411C374.793 53.288 376.336 53.0064 377.77 52.4148C379.205 51.8232 380.498 50.9351 381.564 49.8087C383.746 47.5213 384.837 44.4582 384.838 40.6193C384.838 36.7284 383.747 33.6389 381.564 31.3505C380.497 30.2245 379.204 29.3367 377.77 28.7454C376.336 28.1541 374.793 27.8727 373.242 27.9195C371.687 27.8531 370.137 28.1212 368.694 28.7054C367.252 29.2897 365.951 30.1766 364.881 31.3063V31.3091Z" fill="white"/>
<path d="M417.101 4.092V62.4649H405.979V4.092H417.101Z" fill="white"/>
<path d="M228.261 83.6787V138.738H217.216V100.323L203.097 138.738H193.474L179.354 100.48V138.738H168.232V83.6787H181.719L198.444 125.091L214.851 83.6787H228.261Z" fill="white"/>
<path d="M270.029 97.1674C273.393 98.9287 276.174 101.627 278.035 104.937C279.953 108.622 280.954 112.714 280.954 116.868C280.954 121.022 279.953 125.114 278.035 128.799C276.159 132.097 273.382 134.793 270.029 136.569C266.468 138.359 262.537 139.291 258.552 139.291C254.566 139.291 250.636 138.359 247.074 136.569C243.721 134.793 240.944 132.098 239.068 128.799C237.15 125.114 236.149 121.022 236.149 116.868C236.149 112.714 237.15 108.622 239.068 104.937C240.929 101.627 243.71 98.9284 247.074 97.1674C250.643 95.4035 254.571 94.4859 258.552 94.4859C262.533 94.4859 266.46 95.4035 270.029 97.1674ZM250.664 107.383C248.506 109.566 247.428 112.734 247.429 116.888C247.43 121.041 248.508 124.21 250.664 126.393C251.699 127.432 252.928 128.255 254.282 128.818C255.635 129.38 257.087 129.669 258.553 129.669C260.018 129.669 261.47 129.38 262.823 128.818C264.177 128.255 265.407 127.432 266.441 126.393C268.597 124.212 269.676 121.043 269.676 116.888C269.677 112.732 268.598 109.564 266.441 107.383C265.407 106.345 264.177 105.521 262.823 104.959C261.47 104.397 260.018 104.108 258.553 104.108C257.087 104.108 255.635 104.397 254.282 104.959C252.928 105.521 251.699 106.345 250.664 107.383Z" fill="white"/>
<path d="M306.432 96.8126C309.152 95.1984 312.264 94.3658 315.427 94.4067V106.318H312.192C304.04 106.318 299.964 110.105 299.966 117.677V138.738H288.842V95.0371H299.967V103.399C301.523 100.687 303.749 98.4189 306.432 96.8126Z" fill="white"/>
<path d="M353.249 97.1674C356.612 98.9285 359.393 101.627 361.254 104.937C363.172 108.622 364.173 112.714 364.173 116.868C364.173 121.022 363.172 125.114 361.254 128.799C359.379 132.098 356.601 134.793 353.249 136.569C349.687 138.359 345.757 139.291 341.771 139.291C337.785 139.291 333.855 138.359 330.293 136.569C326.94 134.793 324.163 132.098 322.288 128.799C320.37 125.114 319.369 121.022 319.369 116.868C319.369 112.714 320.37 108.622 322.288 104.937C324.149 101.627 326.93 98.9285 330.293 97.1674C333.862 95.4035 337.79 94.4859 341.771 94.4859C345.752 94.4859 349.68 95.4035 353.249 97.1674ZM333.883 107.383C331.727 109.566 330.649 112.734 330.649 116.888C330.649 121.041 331.728 124.21 333.883 126.393C334.918 127.431 336.147 128.255 337.501 128.817C338.855 129.378 340.306 129.668 341.772 129.668C343.237 129.668 344.689 129.378 346.042 128.817C347.396 128.255 348.626 127.431 349.66 126.393C351.816 124.212 352.894 121.043 352.894 116.888C352.894 112.732 351.816 109.564 349.66 107.383C348.626 106.345 347.396 105.521 346.043 104.959C344.689 104.397 343.237 104.108 341.772 104.108C340.306 104.108 338.855 104.397 337.501 104.959C336.147 105.521 334.918 106.345 333.883 107.383Z" fill="white"/>
<path d="M405.784 99.0613C409.544 102.111 411.897 106.265 412.843 111.524H401.09C400.709 109.366 399.56 107.419 397.856 106.041C396.023 104.651 393.765 103.941 391.466 104.03C390.072 104.003 388.689 104.283 387.415 104.848C386.141 105.414 385.006 106.252 384.091 107.304C382.119 109.487 381.133 112.681 381.133 116.888C381.133 121.094 382.119 124.289 384.091 126.472C385.006 127.524 386.141 128.362 387.415 128.928C388.689 129.494 390.072 129.773 391.466 129.746C393.765 129.835 396.023 129.124 397.856 127.734C399.56 126.357 400.709 124.41 401.09 122.252H412.843C411.896 127.511 409.543 131.665 405.784 134.715C402.024 137.766 397.331 139.291 391.703 139.291C387.747 139.364 383.837 138.427 380.344 136.569C377.064 134.789 374.377 132.088 372.613 128.799C370.797 125.084 369.853 121.003 369.853 116.868C369.853 112.733 370.797 108.652 372.613 104.937C374.363 101.637 377.054 98.9329 380.344 97.1674C383.845 95.3343 387.751 94.4122 391.703 94.4859C397.33 94.4859 402.023 96.011 405.784 99.0613Z" fill="white"/>
<path d="M454.457 99.0613C458.217 102.111 460.57 106.265 461.517 111.524H449.764C449.382 109.366 448.233 107.419 446.529 106.041C444.696 104.651 442.438 103.941 440.139 104.03C438.745 104.004 437.362 104.283 436.088 104.849C434.814 105.414 433.679 106.252 432.764 107.304C430.792 109.487 429.806 112.681 429.806 116.888C429.806 121.094 430.792 124.289 432.764 126.472C433.679 127.524 434.814 128.362 436.088 128.928C437.362 129.494 438.745 129.773 440.139 129.746C442.438 129.835 444.696 129.124 446.529 127.734C448.234 126.357 449.383 124.41 449.764 122.252H461.517C460.569 127.511 458.216 131.665 454.457 134.715C450.698 137.766 446.004 139.291 440.376 139.291C436.42 139.364 432.51 138.427 429.017 136.569C425.738 134.789 423.05 132.088 421.286 128.799C419.47 125.084 418.526 121.003 418.526 116.868C418.526 112.733 419.47 108.652 421.286 104.937C423.036 101.638 425.727 98.9331 429.017 97.1674C432.518 95.3342 436.425 94.4121 440.376 94.4859C446 94.4859 450.694 96.011 454.457 99.0613Z" fill="white"/>
<path d="M501.075 97.1674C504.439 98.9287 507.22 101.627 509.082 104.937C510.999 108.622 512 112.714 512 116.868C512 121.022 510.999 125.114 509.082 128.799C507.205 132.097 504.428 134.793 501.075 136.569C497.514 138.359 493.584 139.291 489.598 139.291C485.612 139.291 481.682 138.359 478.121 136.569C474.768 134.793 471.99 132.098 470.114 128.799C468.197 125.114 467.196 121.022 467.196 116.868C467.196 112.714 468.197 108.622 470.114 104.937C471.976 101.627 474.757 98.9284 478.121 97.1674C481.69 95.4035 485.617 94.4859 489.598 94.4859C493.579 94.4859 497.506 95.4035 501.075 97.1674ZM481.71 107.383C479.554 109.566 478.475 112.734 478.475 116.888C478.475 121.041 479.554 124.21 481.71 126.393C482.745 127.431 483.975 128.254 485.328 128.816C486.682 129.378 488.133 129.667 489.599 129.667C491.065 129.667 492.516 129.378 493.87 128.816C495.223 128.254 496.453 127.431 497.488 126.393C499.643 124.212 500.721 121.043 500.722 116.888C500.723 112.732 499.645 109.564 497.488 107.383C496.453 106.345 495.224 105.521 493.87 104.959C492.516 104.397 491.065 104.108 489.599 104.108C488.133 104.108 486.682 104.397 485.328 104.959C483.974 105.521 482.745 106.345 481.71 107.383Z" fill="white"/>
</svg>
