<svg width="38" height="23" viewBox="0 0 38 23" fill="none" xmlns="http://www.w3.org/2000/svg">
<path fill-rule="evenodd" clip-rule="evenodd" d="M18.9988 20.0533C16.9865 21.7495 14.3762 22.7734 11.5239 22.7734C5.15941 22.7734 0 17.6754 0 11.3867C0 5.09801 5.15941 0 11.5239 0C14.3762 0 16.9865 1.02395 18.9988 2.72014C21.0111 1.02395 23.6214 0 26.4737 0C32.8382 0 37.9976 5.09801 37.9976 11.3867C37.9976 17.6754 32.8382 22.7734 26.4737 22.7734C23.6214 22.7734 21.0111 21.7495 18.9988 20.0533Z" fill="#ED0006"/>
<path fill-rule="evenodd" clip-rule="evenodd" d="M19 20.0533C21.4778 17.9648 23.0489 14.857 23.0489 11.3867C23.0489 7.9164 21.4778 4.80867 19 2.72013C21.0123 1.02395 23.6226 0 26.4749 0C32.8394 0 37.9988 5.09801 37.9988 11.3867C37.9988 17.6754 32.8394 22.7734 26.4749 22.7734C23.6226 22.7734 21.0123 21.7495 19 20.0533Z" fill="#F9A000"/>
<path fill-rule="evenodd" clip-rule="evenodd" d="M18.9979 20.0531C21.4757 17.9646 23.0468 14.8569 23.0468 11.3866C23.0468 7.91629 21.4757 4.80858 18.9979 2.72005C16.5202 4.80858 14.9491 7.91629 14.9491 11.3866C14.9491 14.8569 16.5202 17.9646 18.9979 20.0531Z" fill="#FF5E00"/>
</svg>
