<svg width="38" height="38" viewBox="0 0 38 38" fill="none" xmlns="http://www.w3.org/2000/svg">
<path d="M27.4417 8.2894L27.3518 8.37931L18.9733 16.7578L10.5948 8.37851L10.5049 8.28863L12.9828 5.81067L13.0727 5.90056L17.2208 10.0486V1.7525L18.9733 0L20.7258 1.7525V10.0486L24.8738 5.90056L24.9637 5.81067L27.4417 8.2894Z" fill="#00CDAE"/>
<path d="M27.4417 29.6578L24.9637 32.1358L24.8738 32.0459L20.7258 27.8992V36.194L18.9733 37.9465L17.2208 36.194V27.8992L13.0727 32.0459L12.9828 32.1358L10.5049 29.6578L18.9735 21.1895L27.4417 29.6578Z" fill="#2575F0"/>
<path d="M36.1935 20.726H27.8987L32.0454 24.8741L32.1353 24.964L29.6574 27.4419L29.5675 27.352L21.189 18.9735L29.6574 10.5051L32.1353 12.9831L32.0454 13.073L27.8987 17.2211H36.1935L37.946 18.9735L36.1935 20.726Z" fill="#2575F0"/>
<path d="M16.7572 18.9735L8.37871 27.352L8.28881 27.4419L5.81087 24.964L5.90075 24.8741L10.0474 20.726H1.75249L0 18.9735L1.75249 17.2211H10.0464L5.89976 13.073L5.80988 12.9831L8.28783 10.5051L16.7572 18.9735Z" fill="#2575F0"/>
</svg>
