<svg width="143" height="39" viewBox="0 0 143 39" fill="none" xmlns="http://www.w3.org/2000/svg">
    <path d="M27.4727 8.2894L27.3828 8.37931L19.0043 16.7578L10.6258 8.37851L10.5359 8.28863L13.0138 5.81067L13.1037 5.90056L17.2518 10.0486V1.7525L19.0043 0L20.7568 1.7525V10.0486L24.9048 5.90056L24.9947 5.81067L27.4727 8.2894Z" fill="#00CDAE"/>
    <path d="M27.4727 29.6578L24.9947 32.1358L24.9048 32.0459L20.7568 27.8992V36.194L19.0043 37.9465L17.2518 36.194V27.8992L13.1037 32.0459L13.0138 32.1358L10.5359 29.6578L19.0045 21.1895L27.4727 29.6578Z" fill="#2575F0"/>
    <path d="M36.2247 20.7261H27.93L32.0767 24.8742L32.1666 24.9641L29.6886 27.4421L29.5987 27.3522L21.2202 18.9737L29.6886 10.5052L32.1666 12.9832L32.0767 13.0731L27.93 17.2212H36.2247L37.9772 18.9737L36.2247 20.7261Z" fill="#2575F0"/>
    <path d="M16.7885 18.9737L8.40996 27.3522L8.32006 27.4421L5.84212 24.9641L5.932 24.8742L10.0787 20.7261H1.78374L0.03125 18.9737L1.78374 17.2212H10.0777L5.93101 13.0731L5.84113 12.9832L8.31908 10.5052L16.7885 18.9737Z" fill="#2575F0"/>
    <path d="M59.3114 5.48047C58.6727 4.32398 57.7009 3.38639 56.5222 2.78965C55.3043 2.15526 53.8568 1.838 52.1797 1.83787H46.7815V4.52869H51.9172C53.5796 4.52869 54.8665 4.96632 55.7781 5.84161C56.6897 6.7169 57.1455 7.94924 57.1455 9.53864C57.1455 11.1139 56.6897 12.3391 55.7781 13.2143C54.8665 14.0894 53.5796 14.5269 51.9172 14.5268H46.7815V17.2833H52.1789C53.8553 17.2833 55.3028 16.9588 56.5214 16.3098C57.7006 15.6985 58.6714 14.7504 59.3106 13.5861C59.9436 12.3289 60.2733 10.9409 60.2733 9.5333C60.2733 8.12571 59.9436 6.7377 59.3106 5.48047H59.3114Z" fill="white"/>
    <path d="M62.7683 0.470512C63.163 0.165494 63.6477 0 64.1465 0C64.6454 0 65.1301 0.165494 65.5248 0.470512C65.6962 0.621897 65.8321 0.809183 65.9229 1.01907C66.0136 1.22895 66.057 1.45627 66.0499 1.68482C66.0554 1.90993 66.0113 2.13347 65.9205 2.33953C65.8297 2.5456 65.6946 2.72911 65.5248 2.87697C65.1301 3.18196 64.6454 3.34741 64.1465 3.34741C63.6477 3.34741 63.163 3.18196 62.7683 2.87697C62.5985 2.72909 62.4634 2.54557 62.3726 2.33951C62.2819 2.13345 62.2377 1.90992 62.2432 1.68482C62.2362 1.45627 62.2796 1.22897 62.3703 1.01909C62.4611 0.809216 62.5969 0.621932 62.7683 0.470512ZM65.6789 5.16307V17.2833H62.5936V5.16307H65.6789Z" fill="white"/>
    <path d="M75.851 5.73192C76.566 6.19565 77.1111 6.87892 77.4043 7.67903V5.16306H80.4674V17.3269C80.4838 18.3749 80.2553 19.4122 79.8001 20.3563C79.3634 21.244 78.6696 21.9796 77.809 22.4675C76.9266 22.9778 75.8584 23.2331 74.6042 23.2332C72.8537 23.2332 71.4389 22.8174 70.3599 21.9858C69.2827 21.1588 68.5752 19.9404 68.3908 18.5949H71.4319C71.5871 19.1796 71.9483 19.6886 72.449 20.028C73.0274 20.3917 73.7026 20.5712 74.3852 20.5428C75.2896 20.5428 76.0188 20.2765 76.5729 19.7441C77.1271 19.2116 77.4043 18.4058 77.4045 17.3267V14.7452C77.1098 15.5474 76.5653 16.2339 75.8512 16.7034C75.07 17.2069 74.1548 17.4622 73.2258 17.436C72.2556 17.4498 71.3009 17.192 70.4694 16.6919C69.6346 16.1761 68.9691 15.427 68.5552 14.5371C68.1007 13.4912 67.8661 12.363 67.8661 11.2226C67.8661 10.0822 68.1007 8.95401 68.5552 7.90811C68.9692 7.01834 69.6346 6.26924 70.4694 5.75328C71.301 5.25339 72.2556 4.99581 73.2258 5.0096C74.1532 4.98363 75.0674 5.23515 75.851 5.73192ZM71.8695 8.64249C71.2858 9.26975 70.9941 10.1302 70.9943 11.224C70.9946 12.3177 71.2863 13.1746 71.8695 13.7946C72.4527 14.415 73.2256 14.7252 74.1882 14.7252C74.6184 14.7382 75.0463 14.6601 75.4441 14.496C75.842 14.3319 76.2006 14.0856 76.4965 13.7732C77.1016 13.1388 77.4042 12.2893 77.4043 11.2246C77.4043 10.1455 77.1017 9.28862 76.4965 8.65397C76.2005 8.34169 75.8419 8.0955 75.4441 7.93151C75.0463 7.76752 74.6183 7.68942 74.1882 7.70238C73.757 7.68399 73.3269 7.75833 72.9269 7.92037C72.5269 8.08241 72.1663 8.32839 71.8695 8.64169V8.64249Z" fill="white"/>
    <path d="M83.4429 0.470512C83.8376 0.16551 84.3223 2.41697e-05 84.8211 2.41697e-05C85.3199 2.41697e-05 85.8046 0.16551 86.1992 0.470512C86.3707 0.621861 86.5066 0.80913 86.5974 1.01902C86.6882 1.22891 86.7316 1.45625 86.7245 1.68482C86.7301 1.90995 86.6859 2.13353 86.5951 2.33961C86.5043 2.54568 86.3691 2.72916 86.1992 2.87697C85.8046 3.18198 85.3199 3.34744 84.8211 3.34744C84.3223 3.34744 83.8376 3.18198 83.4429 2.87697C83.273 2.72912 83.1379 2.54562 83.0471 2.33956C82.9563 2.13349 82.9121 1.90994 82.9176 1.68482C82.9106 1.45625 82.954 1.22893 83.0448 1.01904C83.1356 0.80916 83.2715 0.621887 83.4429 0.470512ZM86.3535 5.16307V17.2833H83.2675V5.16307H86.3535Z" fill="white"/>
    <path d="M95.6279 14.6361V17.2833H94.0091C92.6527 17.2833 91.6135 16.9552 90.8916 16.2989C90.1697 15.6426 89.8087 14.5487 89.8085 13.0173V7.76656H88.124V5.16307H89.8085V2.16597H92.8932V5.16307H95.6058V7.76656H92.8932V13.061C92.8932 13.6445 93.0099 14.0529 93.2434 14.2863C93.4769 14.5196 93.8707 14.6362 94.4247 14.6361H95.6279Z" fill="white"/>
    <path d="M105.21 5.73193C105.925 6.19566 106.47 6.87894 106.764 7.67904V5.16307H109.827V17.2833H106.764V14.7454C106.469 15.5476 105.925 16.2341 105.21 16.7036C104.429 17.2071 103.514 17.4624 102.585 17.4362C101.615 17.4499 100.66 17.1922 99.8284 16.6921C98.9936 16.1763 98.3282 15.4271 97.9144 14.5373C97.4599 13.4914 97.2253 12.3632 97.2253 11.2228C97.2253 10.0824 97.4599 8.95421 97.9144 7.90832C98.3283 7.01856 98.9937 6.26945 99.8284 5.75349C100.66 5.25362 101.615 4.99605 102.585 5.00981C103.513 4.98376 104.427 5.23521 105.21 5.73193ZM101.229 8.6425C100.645 9.26976 100.353 10.1303 100.354 11.224C100.354 12.3177 100.646 13.1746 101.229 13.7946C101.812 14.415 102.585 14.7252 103.548 14.7252C103.978 14.7382 104.406 14.6601 104.804 14.496C105.201 14.332 105.56 14.0856 105.856 13.7732C106.461 13.1388 106.764 12.2893 106.764 11.2246C106.764 10.1455 106.461 9.28863 105.856 8.65398C105.56 8.34168 105.201 8.09546 104.803 7.93147C104.406 7.76748 103.978 7.68941 103.548 7.70239C103.116 7.684 102.686 7.75834 102.286 7.92038C101.886 8.08242 101.526 8.32839 101.229 8.6417V8.6425Z" fill="white"/>
    <path d="M115.712 1.094V17.2833H112.627V1.094H115.712Z" fill="white"/>
    <path d="M63.3379 23.1669V38.4373H60.2749V27.783L56.3589 38.4373H53.69L49.7738 27.8266V38.4373H46.6892V23.1669H50.43L55.0683 34.6524L59.6187 23.1669H63.3379Z" fill="white"/>
    <path d="M74.922 26.9079C75.855 27.3964 76.6263 28.1448 77.1426 29.0627C77.6744 30.0846 77.952 31.2197 77.952 32.3717C77.952 33.5238 77.6744 34.6588 77.1426 35.6808C76.6222 36.5955 75.8519 37.343 74.922 37.8356C73.9344 38.332 72.8443 38.5905 71.7389 38.5905C70.6335 38.5905 69.5434 38.332 68.5558 37.8356C67.6258 37.343 66.8555 36.5955 66.3352 35.6808C65.8035 34.6588 65.5258 33.5238 65.5258 32.3717C65.5258 31.2197 65.8035 30.0846 66.3352 29.0627C66.8515 28.1448 67.6228 27.3963 68.5558 26.9079C69.5456 26.4187 70.6348 26.1642 71.7389 26.1642C72.843 26.1642 73.9322 26.4187 74.922 26.9079ZM69.5513 29.7412C68.953 30.3466 68.6539 31.2252 68.6542 32.3772C68.6544 33.5291 68.9535 34.4079 69.5513 35.0135C69.8383 35.3015 70.1792 35.53 70.5547 35.6859C70.9301 35.8418 71.3327 35.922 71.7392 35.922C72.1457 35.922 72.5482 35.8418 72.9237 35.6859C73.2991 35.53 73.6401 35.3015 73.9271 35.0135C74.525 34.4084 74.8241 33.5297 74.8242 32.3772C74.8243 31.2247 74.5253 30.346 73.9271 29.7412C73.6401 29.4533 73.2991 29.2248 72.9237 29.0689C72.5482 28.913 72.1457 28.8327 71.7392 28.8327C71.3327 28.8327 70.9301 28.913 70.5547 29.0689C70.1792 29.2248 69.8383 29.4533 69.5513 29.7412Z" fill="white"/>
    <path d="M85.0182 26.8095C85.7725 26.3618 86.6358 26.1309 87.5129 26.1422V29.4458H86.6158C84.3548 29.4458 83.2245 30.4959 83.2249 32.5962V38.4371H80.1397V26.317H83.2251V28.6362C83.6567 27.8839 84.274 27.255 85.0182 26.8095Z" fill="white"/>
    <path d="M98.0025 26.9079C98.9354 27.3963 99.7067 28.1448 100.223 29.0627C100.755 30.0846 101.032 31.2197 101.032 32.3717C101.032 33.5238 100.755 34.6588 100.223 35.6808C99.7026 36.5955 98.9324 37.343 98.0025 37.8356C97.0148 38.332 95.9247 38.5905 94.8193 38.5905C93.7139 38.5905 92.6238 38.332 91.6361 37.8356C90.7061 37.3431 89.9359 36.5956 89.4157 35.6808C88.8839 34.6588 88.6063 33.5238 88.6063 32.3717C88.6063 31.2197 88.8839 30.0846 89.4157 29.0627C89.9319 28.1448 90.7031 27.3963 91.6361 26.9079C92.6259 26.4187 93.7152 26.1642 94.8193 26.1642C95.9234 26.1642 97.0127 26.4187 98.0025 26.9079ZM92.6316 29.7412C92.0335 30.3466 91.7345 31.2252 91.7347 32.3772C91.7348 33.5291 92.0338 34.4079 92.6316 35.0135C92.9186 35.3014 93.2596 35.5297 93.6351 35.6856C94.0105 35.8414 94.413 35.9216 94.8195 35.9216C95.226 35.9216 95.6285 35.8414 96.0039 35.6856C96.3793 35.5297 96.7204 35.3014 97.0074 35.0135C97.6053 34.4084 97.9043 33.5297 97.9043 32.3772C97.9043 31.2247 97.6053 30.346 97.0074 29.7412C96.7204 29.4533 96.3794 29.2248 96.004 29.0689C95.6286 28.913 95.226 28.8327 94.8195 28.8327C94.413 28.8327 94.0104 28.913 93.635 29.0689C93.2596 29.2248 92.9186 29.4533 92.6316 29.7412Z" fill="white"/>
    <path d="M112.573 27.4331C113.616 28.279 114.268 29.4312 114.531 30.8896H111.271C111.165 30.2911 110.847 29.751 110.374 29.369C109.866 28.9835 109.239 28.7864 108.602 28.8112C108.215 28.8038 107.832 28.8813 107.478 29.0381C107.125 29.195 106.81 29.4275 106.556 29.7192C106.01 30.3246 105.736 31.2106 105.736 32.3772C105.736 33.5438 106.01 34.4298 106.556 35.0353C106.81 35.3271 107.125 35.5596 107.478 35.7165C107.832 35.8734 108.215 35.9508 108.602 35.9433C109.239 35.9681 109.866 35.7709 110.374 35.3854C110.847 35.0035 111.165 34.4634 111.271 33.8649H114.531C114.268 35.3234 113.616 36.4756 112.573 37.3216C111.53 38.1676 110.228 38.5906 108.668 38.5906C107.57 38.6109 106.486 38.3511 105.517 37.8356C104.608 37.3419 103.862 36.5929 103.373 35.6808C102.87 34.6504 102.608 33.5186 102.608 32.3717C102.608 31.2248 102.87 30.0931 103.373 29.0627C103.858 28.1476 104.605 27.3975 105.517 26.9079C106.488 26.3995 107.572 26.1437 108.668 26.1642C110.228 26.1642 111.53 26.5872 112.573 27.4331Z" fill="white"/>
    <path d="M126.072 27.4331C127.115 28.279 127.767 29.4312 128.03 30.8896H124.77C124.665 30.2911 124.346 29.751 123.873 29.369C123.365 28.9835 122.739 28.7864 122.101 28.8112C121.715 28.8038 121.331 28.8813 120.978 29.0382C120.624 29.1951 120.309 29.4275 120.056 29.7192C119.509 30.3246 119.235 31.2106 119.235 32.3772C119.235 33.5438 119.509 34.4298 120.056 35.0353C120.309 35.3271 120.624 35.5596 120.978 35.7165C121.331 35.8734 121.714 35.9508 122.101 35.9433C122.739 35.9681 123.365 35.7709 123.873 35.3854C124.346 35.0035 124.665 34.4635 124.77 33.8649H128.03C127.767 35.3234 127.115 36.4756 126.072 37.3216C125.029 38.1676 123.728 38.5906 122.167 38.5906C121.07 38.6109 119.985 38.3511 119.016 37.8356C118.107 37.3419 117.362 36.5928 116.872 35.6808C116.369 34.6504 116.107 33.5186 116.107 32.3717C116.107 31.2248 116.369 30.0931 116.872 29.0627C117.358 28.1476 118.104 27.3976 119.016 26.9079C119.988 26.3995 121.071 26.1437 122.167 26.1642C123.727 26.1642 125.028 26.5872 126.072 27.4331Z" fill="white"/>
    <path d="M139.001 26.9079C139.934 27.3964 140.706 28.1448 141.222 29.0627C141.754 30.0846 142.031 31.2197 142.031 32.3717C142.031 33.5238 141.754 34.6588 141.222 35.6808C140.701 36.5955 139.931 37.343 139.001 37.8356C138.014 38.332 136.924 38.5905 135.818 38.5905C134.713 38.5905 133.623 38.332 132.635 37.8356C131.705 37.343 130.935 36.5955 130.414 35.6808C129.883 34.6588 129.605 33.5238 129.605 32.3717C129.605 31.2197 129.883 30.0846 130.414 29.0627C130.931 28.1448 131.702 27.3963 132.635 26.9079C133.625 26.4187 134.714 26.1642 135.818 26.1642C136.922 26.1642 138.011 26.4187 139.001 26.9079ZM133.631 29.7412C133.032 30.3466 132.733 31.2252 132.733 32.3772C132.733 33.5291 133.032 34.4079 133.631 35.0135C133.918 35.3013 134.259 35.5297 134.634 35.6855C135.009 35.8413 135.412 35.9215 135.818 35.9215C136.225 35.9215 136.627 35.8413 137.003 35.6855C137.378 35.5297 137.719 35.3013 138.006 35.0135C138.604 34.4084 138.903 33.5297 138.903 32.3772C138.904 31.2247 138.605 30.346 138.006 29.7412C137.719 29.4533 137.378 29.2248 137.003 29.0689C136.628 28.913 136.225 28.8327 135.818 28.8327C135.412 28.8327 135.009 28.913 134.634 29.0689C134.258 29.2248 133.918 29.4533 133.631 29.7412Z" fill="white"/>
</svg>
