<svg width="184" height="50" viewBox="0 0 184 50" fill="none" xmlns="http://www.w3.org/2000/svg">
<path d="M35.5539 10.7399L35.4375 10.8564L24.5821 21.7117L13.7268 10.8553L13.6104 10.7389L16.8208 7.5284L16.9373 7.64486L22.3116 13.0192V2.27057L24.5821 0L26.8527 2.27057V13.0192L32.227 7.64486L32.3435 7.5284L35.5539 10.7399Z" fill="#00CDAE"/>
<path d="M35.5539 38.4251L32.3435 41.6356L32.227 41.5192L26.8527 36.1466V46.8935L24.5821 49.164L22.3116 46.8935V36.1466L16.9373 41.5192L16.8208 41.6356L13.6104 38.4251L24.5824 27.4534L35.5539 38.4251Z" fill="#2575F0"/>
<path d="M46.8932 26.8529H36.1464L41.5189 32.2273L41.6354 32.3437L38.4249 35.5542L38.3085 35.4377L27.4531 24.5824L38.4249 13.6106L41.6354 16.8211L41.5189 16.9375L36.1464 22.3119H46.8932L49.1638 24.5824L46.8932 26.8529Z" fill="#2575F0"/>
<path d="M21.7109 24.5824L10.8556 35.4377L10.7391 35.5542L7.52865 32.3437L7.64511 32.2273L13.0176 26.8529H2.27055L0 24.5824L2.27055 22.3119H13.0163L7.64383 16.9375L7.52737 16.8211L10.7378 13.6106L21.7109 24.5824Z" fill="#2575F0"/>
<path d="M76.8047 7.10058C75.9772 5.60222 74.7181 4.38747 73.191 3.61431C71.613 2.79239 69.7376 2.38134 67.5647 2.38117H60.5707V5.86744H67.2246C69.3784 5.86744 71.0459 6.43445 72.2269 7.56848C73.408 8.70252 73.9985 10.2992 73.9985 12.3584C73.9985 14.3994 73.408 15.9868 72.2269 17.1206C71.0459 18.2545 69.3784 18.8213 67.2246 18.8212H60.5707V22.3926H67.5637C69.7357 22.3926 71.6111 21.9721 73.1899 21.1312C74.7177 20.3392 75.9756 19.1109 76.8037 17.6024C77.6238 15.9735 78.0509 14.1752 78.0509 12.3515C78.0509 10.5278 77.6238 8.72947 76.8037 7.10058H76.8047Z" fill="#1F2545"/>
<path d="M81.2835 0.609603C81.7949 0.214416 82.4229 0 83.0692 0C83.7155 0 84.3435 0.214416 84.8549 0.609603C85.0769 0.80574 85.253 1.04839 85.3706 1.32032C85.4882 1.59225 85.5444 1.88676 85.5352 2.18289C85.5424 2.47453 85.4851 2.76416 85.3676 3.03114C85.25 3.29812 85.0749 3.53588 84.8549 3.72745C84.3435 4.1226 83.7155 4.33696 83.0692 4.33696C82.4229 4.33696 81.7949 4.1226 81.2835 3.72745C81.0635 3.53585 80.8885 3.29808 80.7709 3.03111C80.6533 2.76413 80.596 2.47452 80.6032 2.18289C80.594 1.88677 80.6503 1.59227 80.7679 1.32035C80.8854 1.04843 81.0615 0.805785 81.2835 0.609603ZM85.0545 6.68935V22.3926H81.0572V6.68935H85.0545Z" fill="#1F2545"/>
<path d="M98.2337 7.42636C99.16 8.02718 99.8662 8.91245 100.246 9.94908V6.68934H104.215V22.449C104.236 23.8068 103.94 25.1508 103.35 26.3739C102.784 27.524 101.886 28.4772 100.771 29.1093C99.6273 29.7705 98.2432 30.1011 96.6183 30.1013C94.3503 30.1013 92.5173 29.5626 91.1193 28.4852C89.7237 27.4137 88.807 25.835 88.5681 24.0918H92.5082C92.7092 24.8494 93.1772 25.5088 93.826 25.9486C94.5754 26.4199 95.4502 26.6524 96.3346 26.6156C97.5063 26.6156 98.4511 26.2706 99.169 25.5807C99.887 24.8908 100.246 23.8468 100.246 22.4488V19.1041C99.8646 20.1435 99.1592 21.0328 98.234 21.6412C97.2218 22.2935 96.036 22.6244 94.8324 22.5904C93.5754 22.6082 92.3385 22.2743 91.2612 21.6263C90.1795 20.958 89.3173 19.9874 88.7811 18.8345C88.1922 17.4794 87.8883 16.0177 87.8883 14.5402C87.8883 13.0627 88.1922 11.601 88.7811 10.2459C89.3175 9.09307 90.1796 8.12253 91.2612 7.45405C92.3386 6.80637 93.5754 6.47265 94.8324 6.49052C96.034 6.45687 97.2184 6.78274 98.2337 7.42636ZM93.0751 11.1973C92.3189 12.01 91.9409 13.1249 91.9413 14.542C91.9416 15.959 92.3196 17.0692 93.0751 17.8725C93.8307 18.6763 94.8321 19.0782 96.0794 19.0782C96.6366 19.095 97.1911 18.9938 97.7065 18.7812C98.2219 18.5687 98.6866 18.2496 99.07 17.8448C99.8539 17.0229 100.246 15.9222 100.246 14.5428C100.246 13.1447 99.8541 12.0345 99.07 11.2122C98.6865 10.8076 98.2218 10.4887 97.7064 10.2762C97.191 10.0637 96.6366 9.96254 96.0794 9.97933C95.5207 9.9555 94.9634 10.0518 94.4452 10.2618C93.9269 10.4717 93.4597 10.7904 93.0751 11.1963V11.1973Z" fill="#1F2545"/>
<path d="M108.07 0.609603C108.581 0.214437 109.209 3.13147e-05 109.855 3.13147e-05C110.502 3.13147e-05 111.13 0.214437 111.641 0.609603C111.863 0.805693 112.039 1.04832 112.157 1.32026C112.275 1.5922 112.331 1.88674 112.322 2.18289C112.329 2.47456 112.272 2.76424 112.154 3.03123C112.036 3.29822 111.861 3.53594 111.641 3.72745C111.13 4.12262 110.502 4.33699 109.855 4.33699C109.209 4.33699 108.581 4.12262 108.07 3.72745C107.85 3.5359 107.675 3.29815 107.557 3.03117C107.439 2.76419 107.382 2.47455 107.389 2.18289C107.38 1.88674 107.436 1.59222 107.554 1.32029C107.672 1.04836 107.848 0.805727 108.07 0.609603ZM111.841 6.68935V22.3926H107.843V6.68935H111.841Z" fill="#1F2545"/>
<path d="M123.857 18.9628V22.3926H121.76C120.002 22.3926 118.656 21.9674 117.72 21.1171C116.785 20.2668 116.317 18.8496 116.317 16.8654V10.0625H114.135V6.68935H116.317V2.80627H120.314V6.68935H123.828V10.0625H120.314V16.9221C120.314 17.678 120.465 18.2071 120.768 18.5095C121.07 18.8119 121.58 18.9629 122.298 18.9628H123.857Z" fill="#1F2545"/>
<path d="M136.272 7.42638C137.199 8.02719 137.905 8.91246 138.285 9.94909V6.68936H142.253V22.3926H138.285V19.1044C137.903 20.1438 137.197 21.0331 136.272 21.6415C135.26 22.2937 134.074 22.6246 132.871 22.5906C131.614 22.6084 130.377 22.2745 129.299 21.6266C128.218 20.9582 127.355 19.9876 126.819 18.8348C126.23 17.4797 125.927 16.018 125.927 14.5405C125.927 13.0629 126.23 11.6012 126.819 10.2461C127.356 9.09335 128.218 8.12281 129.299 7.45431C130.377 6.80668 131.614 6.47296 132.871 6.49079C134.072 6.45704 135.257 6.78282 136.272 7.42638ZM131.113 11.1974C130.357 12.01 129.979 13.1249 129.98 14.542C129.98 15.9591 130.358 17.0692 131.113 17.8725C131.869 18.6763 132.87 19.0782 134.118 19.0782C134.675 19.095 135.23 18.9938 135.745 18.7813C136.26 18.5687 136.725 18.2496 137.108 17.8448C137.892 17.0229 138.284 15.9222 138.285 14.5428C138.285 13.1447 137.893 12.0345 137.108 11.2122C136.725 10.8076 136.26 10.4886 135.745 10.2761C135.23 10.0637 134.675 9.96253 134.118 9.97934C133.559 9.95551 133.002 10.0518 132.484 10.2618C131.965 10.4717 131.498 10.7904 131.113 11.1963V11.1974Z" fill="#1F2545"/>
<path d="M149.878 1.4174V22.3926H145.881V1.4174H149.878Z" fill="#1F2545"/>
<path d="M82.0215 30.0154V49.8H78.053V35.9961L72.9793 49.8H69.5216L64.4476 36.0526V49.8H60.4512V30.0154H65.2978L71.3073 44.8962L77.2029 30.0154H82.0215Z" fill="#1F2545"/>
<path d="M97.0301 34.8623C98.2388 35.4952 99.2381 36.4649 99.907 37.6541C100.596 38.9781 100.956 40.4487 100.956 41.9413C100.956 43.4339 100.596 44.9045 99.907 46.2286C99.2329 47.4137 98.2349 48.3821 97.0301 49.0204C95.7504 49.6636 94.3381 49.9985 92.906 49.9985C91.4738 49.9985 90.0615 49.6636 88.7818 49.0204C87.577 48.3822 86.579 47.4138 85.9049 46.2286C85.2159 44.9045 84.8562 43.4339 84.8562 41.9413C84.8562 40.4487 85.2159 38.9781 85.9049 37.6541C86.5737 36.4648 87.573 35.4951 88.7818 34.8623C90.0642 34.2285 91.4755 33.8987 92.906 33.8987C94.3364 33.8987 95.7477 34.2285 97.0301 34.8623ZM90.0717 38.5332C89.2964 39.3175 88.909 40.4559 88.9093 41.9484C88.9097 43.4409 89.2971 44.5794 90.0717 45.3641C90.4435 45.7372 90.8852 46.0332 91.3717 46.2352C91.8581 46.4371 92.3796 46.5411 92.9063 46.5411C93.433 46.5411 93.9546 46.4371 94.441 46.2352C94.9274 46.0332 95.3692 45.7372 95.741 45.3641C96.5157 44.5801 96.9032 43.4416 96.9033 41.9484C96.9035 40.4552 96.516 39.3168 95.741 38.5332C95.3692 38.1601 94.9274 37.8641 94.441 37.6621C93.9546 37.4601 93.433 37.3562 92.9063 37.3562C92.3796 37.3562 91.8581 37.4601 91.3717 37.6621C90.8852 37.8641 90.4435 38.1601 90.0717 38.5332Z" fill="#1F2545"/>
<path d="M110.111 34.7348C111.088 34.1547 112.207 33.8556 113.343 33.8703V38.1505H112.181C109.251 38.1505 107.787 39.511 107.787 42.2321V49.7998H103.79V34.0968H107.788V37.1015C108.347 36.1269 109.147 35.312 110.111 34.7348Z" fill="#1F2545"/>
<path d="M126.934 34.8623C128.142 35.4951 129.141 36.4649 129.81 37.6541C130.499 38.9781 130.859 40.4487 130.859 41.9413C130.859 43.4339 130.499 44.9045 129.81 46.2286C129.136 47.4137 128.138 48.3822 126.934 49.0204C125.654 49.6636 124.241 49.9985 122.809 49.9985C121.377 49.9985 119.965 49.6636 118.685 49.0204C117.48 48.3823 116.482 47.4138 115.808 46.2286C115.119 44.9045 114.76 43.4339 114.76 41.9413C114.76 40.4487 115.119 38.9781 115.808 37.6541C116.477 36.4649 117.476 35.4951 118.685 34.8623C119.967 34.2285 121.379 33.8987 122.809 33.8987C124.24 33.8987 125.651 34.2285 126.934 34.8623ZM119.975 38.5332C119.2 39.3175 118.813 40.4559 118.813 41.9484C118.813 43.4409 119.2 44.5794 119.975 45.3641C120.347 45.737 120.789 46.0329 121.275 46.2348C121.761 46.4367 122.283 46.5406 122.81 46.5406C123.336 46.5406 123.858 46.4367 124.344 46.2348C124.83 46.0329 125.272 45.737 125.644 45.3641C126.419 44.5801 126.806 43.4416 126.806 41.9484C126.806 40.4552 126.419 39.3168 125.644 38.5332C125.272 38.1601 124.831 37.8641 124.344 37.6621C123.858 37.4601 123.336 37.3562 122.81 37.3562C122.283 37.3562 121.761 37.4601 121.275 37.6621C120.788 37.8641 120.347 38.1601 119.975 38.5332Z" fill="#1F2545"/>
<path d="M145.811 35.5428C147.162 36.6387 148.008 38.1315 148.348 40.0211H144.124C143.987 39.2457 143.575 38.5459 142.962 38.0509C142.304 37.5515 141.492 37.2962 140.666 37.3283C140.165 37.3187 139.669 37.419 139.211 37.6223C138.753 37.8255 138.345 38.1268 138.016 38.5047C137.308 39.289 136.953 40.4369 136.953 41.9484C136.953 43.4599 137.308 44.6078 138.016 45.3923C138.345 45.7703 138.753 46.0716 139.211 46.2749C139.668 46.4782 140.165 46.5785 140.666 46.5688C141.492 46.6008 142.304 46.3453 142.962 45.8459C143.575 45.3511 143.988 44.6514 144.124 43.8759H148.348C148.007 45.7655 147.162 47.2584 145.811 48.3545C144.46 49.4505 142.774 49.9986 140.751 49.9986C139.33 50.0249 137.925 49.6882 136.67 49.0204C135.491 48.3808 134.526 47.4103 133.892 46.2286C133.239 44.8936 132.9 43.4273 132.9 41.9413C132.9 40.4554 133.239 38.989 133.892 37.6541C134.52 36.4685 135.487 35.4967 136.67 34.8623C137.928 34.2036 139.331 33.8722 140.751 33.8987C142.773 33.8987 144.46 34.4468 145.811 35.5428Z" fill="#1F2545"/>
<path d="M163.301 35.5428C164.652 36.6387 165.497 38.1315 165.838 40.0211H161.614C161.477 39.2456 161.064 38.5459 160.452 38.0509C159.793 37.5515 158.982 37.2962 158.156 37.3283C157.655 37.3187 157.158 37.4191 156.7 37.6223C156.242 37.8256 155.835 38.1268 155.506 38.5047C154.797 39.289 154.443 40.4369 154.443 41.9484C154.443 43.4599 154.797 44.6078 155.506 45.3923C155.835 45.7703 156.242 46.0716 156.7 46.2749C157.158 46.4781 157.655 46.5785 158.156 46.5688C158.982 46.6008 159.793 46.3453 160.452 45.8459C161.065 45.3512 161.478 44.6514 161.614 43.876H165.838C165.497 45.7656 164.651 47.2584 163.301 48.3545C161.95 49.4505 160.264 49.9986 158.241 49.9986C156.82 50.0249 155.415 49.6883 154.16 49.0204C152.981 48.3807 152.015 47.4103 151.382 46.2286C150.729 44.8936 150.39 43.4273 150.39 41.9413C150.39 40.4554 150.729 38.9891 151.382 37.6541C152.01 36.4685 152.977 35.4968 154.16 34.8623C155.418 34.2036 156.821 33.8722 158.241 33.8987C160.262 33.8987 161.949 34.4468 163.301 35.5428Z" fill="#1F2545"/>
<path d="M180.052 34.8623C181.261 35.4952 182.26 36.4649 182.929 37.6541C183.618 38.9781 183.978 40.4487 183.978 41.9413C183.978 43.4339 183.618 44.9045 182.929 46.2286C182.255 47.4137 181.257 48.3821 180.052 49.0204C178.773 49.6636 177.36 49.9985 175.928 49.9985C174.496 49.9985 173.084 49.6636 171.804 49.0204C170.599 48.3822 169.601 47.4138 168.927 46.2286C168.238 44.9045 167.878 43.4339 167.878 41.9413C167.878 40.4487 168.238 38.9781 168.927 37.6541C169.596 36.4648 170.595 35.4951 171.804 34.8623C173.086 34.2285 174.498 33.8987 175.928 33.8987C177.359 33.8987 178.77 34.2285 180.052 34.8623ZM173.094 38.5332C172.319 39.3175 171.931 40.4559 171.931 41.9484C171.931 43.4409 172.319 44.5794 173.094 45.3641C173.466 45.737 173.907 46.0328 174.394 46.2347C174.88 46.4366 175.402 46.5405 175.928 46.5405C176.455 46.5405 176.977 46.4366 177.463 46.2347C177.949 46.0328 178.391 45.737 178.763 45.3641C179.538 44.5801 179.925 43.4416 179.925 41.9484C179.926 40.4552 179.538 39.3168 178.763 38.5332C178.391 38.1601 177.95 37.8641 177.463 37.6621C176.977 37.4601 176.455 37.3562 175.928 37.3562C175.402 37.3562 174.88 37.4601 174.394 37.6621C173.907 37.8641 173.466 38.1601 173.094 38.5332Z" fill="#1F2545"/>
</svg>
