<svg width="23" height="23" viewBox="0 0 23 23" fill="none" xmlns="http://www.w3.org/2000/svg">
<g id="annotation-question">
<path id="Icon" d="M9.58333 8.14798C9.75219 7.66797 10.0855 7.26321 10.5242 7.00539C10.9628 6.74757 11.4786 6.65333 11.9801 6.73935C12.4817 6.82537 12.9365 7.08611 13.2642 7.47539C13.5919 7.86466 13.7713 8.35735 13.7705 8.86619C13.7705 10.3026 11.6159 11.0208 11.6159 11.0208M11.6437 13.8958H11.6532M9.4875 18.4L10.8867 20.2656C11.0947 20.543 11.1988 20.6817 11.3263 20.7313C11.438 20.7748 11.562 20.7748 11.6737 20.7313C11.8012 20.6817 11.9053 20.543 12.1133 20.2656L13.5125 18.4C13.7934 18.0254 13.9339 17.8381 14.1052 17.6951C14.3337 17.5045 14.6034 17.3696 14.893 17.3013C15.1102 17.25 15.3443 17.25 15.8125 17.25C17.1521 17.25 17.8219 17.25 18.3502 17.0312C19.0547 16.7394 19.6144 16.1797 19.9062 15.4752C20.125 14.9469 20.125 14.2771 20.125 12.9375V7.475C20.125 5.86485 20.125 5.05977 19.8116 4.44478C19.536 3.90381 19.0962 3.46399 18.5552 3.18836C17.9402 2.875 17.1352 2.875 15.525 2.875H7.475C5.86485 2.875 5.05977 2.875 4.44478 3.18836C3.90381 3.46399 3.46399 3.90381 3.18836 4.44478C2.875 5.05977 2.875 5.86485 2.875 7.475V12.9375C2.875 14.2771 2.875 14.9469 3.09385 15.4752C3.38564 16.1797 3.94533 16.7394 4.64979 17.0312C5.17813 17.25 5.84792 17.25 7.1875 17.25C7.65572 17.25 7.88983 17.25 8.10703 17.3013C8.39662 17.3696 8.66632 17.5045 8.89477 17.6951C9.0661 17.8381 9.20657 18.0254 9.4875 18.4Z" stroke="#A7A6A8" stroke-opacity="0.9" stroke-linecap="round" stroke-linejoin="round"/>
</g>
</svg>
