<svg width="36" height="36" viewBox="0 0 36 36" fill="none" xmlns="http://www.w3.org/2000/svg">
<path d="M31.5 31.5L4.5 4.5M30 30H8.8C7.11984 30 6.27976 30 5.63803 29.673C5.07354 29.3854 4.6146 28.9265 4.32698 28.362C4 27.7202 4 26.8802 4 25.2V23.25C6.89949 23.25 9.25 20.8995 9.25 18C9.25 15.1005 6.89949 12.75 4 12.75V10.8C4 9.11984 4 8.27976 4.32698 7.63803C4.6146 7.07354 5 6.5 6 6M16 8V6M16 6H14.5M16 6H29.2C30.8802 6 31.7202 6 32.362 6.32698C32.9265 6.6146 33.3854 7.07354 33.673 7.63803C34 8.27976 34 9.11984 34 10.8V12.75C31.1005 12.75 28.75 15.1005 28.75 18C28.75 20.8995 31.1005 23.25 34 23.25V25.5M16 18.75V17.25M16 25.5V24" stroke="#667085" stroke-width="2" stroke-linecap="round" stroke-linejoin="round"/>
</svg>
